<svg width="500" height="500" viewBox="0 0 500 500" fill="none" xmlns="http://www.w3.org/2000/svg">
<path d="M454.711 190.21H369.111C369.111 190.21 377.601 167 390.661 167C403.721 167 407.811 183 407.811 183C407.811 183 416.621 174.31 423.861 174.31C431.101 174.31 437.401 185.8 437.401 185.8C437.401 185.8 447.631 179.65 454.711 190.21Z" fill="#EBEBEB"/>
<path d="M389.111 99.418H349.111C349.111 99.418 358.051 86.418 365.111 86.418C372.171 86.418 374.231 95.058 374.231 95.058C374.231 95.058 379.231 91.058 383.811 91.748C388.391 92.438 389.111 99.418 389.111 99.418Z" fill="#EBEBEB"/>
<path d="M123.211 158.459H45.291C45.291 158.459 56.001 134.639 67.381 133.149C78.761 131.659 84.251 150.849 84.251 150.849C84.251 150.849 91.611 144.069 97.401 144.069C103.191 144.069 107.661 152.999 107.661 152.999C107.661 152.999 119.241 146.879 123.211 158.459Z" fill="#EBEBEB"/>
<path d="M179.931 69.4691H127.291C127.291 69.4691 136.291 52.2091 146.141 51.9491C155.991 51.6891 161.141 65.0191 161.141 65.0191C161.141 65.0191 176.371 52.7691 179.931 69.4691Z" fill="#EBEBEB"/>
<path d="M153.61 188.66H118.08C118.08 188.66 124.19 177.01 130.81 176.85C137.43 176.69 140.91 185.66 140.91 185.66C140.91 185.66 151.21 177.4 153.61 188.66Z" fill="#EBEBEB"/>
<path d="M360.381 207.76H317.051V434.9H360.381V207.76Z" fill="#DBDBDB"/>
<path d="M332.201 215.139H323.781V223.809H332.201V215.139Z" fill="#EBEBEB"/>
<path d="M342.971 215.139H334.551V223.809H342.971V215.139Z" fill="#EBEBEB"/>
<path d="M332.201 229.859H323.781V238.529H332.201V229.859Z" fill="#EBEBEB"/>
<path d="M342.971 229.859H334.551V238.529H342.971V229.859Z" fill="#EBEBEB"/>
<path d="M332.201 244.59H323.781V253.26H332.201V244.59Z" fill="#EBEBEB"/>
<path d="M342.971 244.59H334.551V253.26H342.971V244.59Z" fill="#EBEBEB"/>
<path d="M332.201 259.309H323.781V267.979H332.201V259.309Z" fill="#EBEBEB"/>
<path d="M342.971 259.309H334.551V267.979H342.971V259.309Z" fill="#EBEBEB"/>
<path d="M332.201 274.039H323.781V282.709H332.201V274.039Z" fill="#EBEBEB"/>
<path d="M342.971 274.039H334.551V282.709H342.971V274.039Z" fill="#EBEBEB"/>
<path d="M332.201 288.76H323.781V297.43H332.201V288.76Z" fill="#EBEBEB"/>
<path d="M342.971 288.76H334.551V297.43H342.971V288.76Z" fill="#EBEBEB"/>
<path d="M332.201 303.488H323.781V312.158H332.201V303.488Z" fill="#EBEBEB"/>
<path d="M342.971 303.488H334.551V312.158H342.971V303.488Z" fill="#EBEBEB"/>
<path d="M332.201 318.209H323.781V326.879H332.201V318.209Z" fill="#EBEBEB"/>
<path d="M342.971 318.209H334.551V326.879H342.971V318.209Z" fill="#EBEBEB"/>
<path d="M332.201 332.939H323.781V341.609H332.201V332.939Z" fill="#EBEBEB"/>
<path d="M342.971 332.939H334.551V341.609H342.971V332.939Z" fill="#EBEBEB"/>
<path d="M332.201 347.66H323.781V356.33H332.201V347.66Z" fill="#EBEBEB"/>
<path d="M342.971 347.658H334.551V356.328H342.971V347.658Z" fill="#EBEBEB"/>
<path d="M332.201 362.389H323.781V371.059H332.201V362.389Z" fill="#EBEBEB"/>
<path d="M342.971 362.389H334.551V371.059H342.971V362.389Z" fill="#EBEBEB"/>
<path d="M332.201 377.109H323.781V385.779H332.201V377.109Z" fill="#EBEBEB"/>
<path d="M342.971 377.109H334.551V385.779H342.971V377.109Z" fill="#EBEBEB"/>
<path d="M332.201 391.84H323.781V400.51H332.201V391.84Z" fill="#EBEBEB"/>
<path d="M342.971 391.84H334.551V400.51H342.971V391.84Z" fill="#EBEBEB"/>
<path d="M332.201 406.559H323.781V415.229H332.201V406.559Z" fill="#EBEBEB"/>
<path d="M345.24 415.229H353.66V406.559H345.24V415.229Z" fill="#EBEBEB"/>
<path d="M345.24 400.5H353.66V391.83H345.24V400.5Z" fill="#EBEBEB"/>
<path d="M345.24 385.779H353.66V377.109H345.24V385.779Z" fill="#EBEBEB"/>
<path d="M345.24 371.049H353.66V362.379H345.24V371.049Z" fill="#EBEBEB"/>
<path d="M345.24 356.328H353.66V347.658H345.24V356.328Z" fill="#EBEBEB"/>
<path d="M345.24 341.6H353.66V332.93H345.24V341.6Z" fill="#EBEBEB"/>
<path d="M345.24 326.879H353.66V318.209H345.24V326.879Z" fill="#EBEBEB"/>
<path d="M345.24 312.148H353.66V303.478H345.24V312.148Z" fill="#EBEBEB"/>
<path d="M345.24 297.43H353.66V288.76H345.24V297.43Z" fill="#EBEBEB"/>
<path d="M345.24 282.699H353.66V274.029H345.24V282.699Z" fill="#EBEBEB"/>
<path d="M345.24 267.979H353.66V259.309H345.24V267.979Z" fill="#EBEBEB"/>
<path d="M345.24 253.25H353.66V244.58H345.24V253.25Z" fill="#EBEBEB"/>
<path d="M345.24 238.529H353.66V229.859H345.24V238.529Z" fill="#EBEBEB"/>
<path d="M345.24 223.799H353.66V215.129H345.24V223.799Z" fill="#EBEBEB"/>
<path d="M342.971 406.559H334.551V415.229H342.971V406.559Z" fill="#EBEBEB"/>
<path d="M394.541 207.76H360.381V434.9H394.541V207.76Z" fill="#A6A6A6"/>
<path d="M384.061 415.229H391.021V406.559H384.061V415.229Z" fill="#C7C7C7"/>
<path d="M375.161 415.229H382.121V406.559H375.161V415.229Z" fill="#C7C7C7"/>
<path d="M384.061 400.5H391.021V391.83H384.061V400.5Z" fill="#C7C7C7"/>
<path d="M375.161 400.5H382.121V391.83H375.161V400.5Z" fill="#C7C7C7"/>
<path d="M384.061 385.779H391.021V377.109H384.061V385.779Z" fill="#C7C7C7"/>
<path d="M375.161 385.779H382.121V377.109H375.161V385.779Z" fill="#C7C7C7"/>
<path d="M384.061 371.049H391.021V362.379H384.061V371.049Z" fill="#C7C7C7"/>
<path d="M375.161 371.049H382.121V362.379H375.161V371.049Z" fill="#C7C7C7"/>
<path d="M384.061 356.328H391.021V347.658H384.061V356.328Z" fill="#C7C7C7"/>
<path d="M375.161 356.328H382.121V347.658H375.161V356.328Z" fill="#C7C7C7"/>
<path d="M384.061 341.6H391.021V332.93H384.061V341.6Z" fill="#C7C7C7"/>
<path d="M375.161 341.6H382.121V332.93H375.161V341.6Z" fill="#C7C7C7"/>
<path d="M384.061 326.879H391.021V318.209H384.061V326.879Z" fill="#C7C7C7"/>
<path d="M375.161 326.879H382.121V318.209H375.161V326.879Z" fill="#C7C7C7"/>
<path d="M384.061 312.148H391.021V303.478H384.061V312.148Z" fill="#C7C7C7"/>
<path d="M375.161 312.148H382.121V303.478H375.161V312.148Z" fill="#C7C7C7"/>
<path d="M384.061 297.43H391.021V288.76H384.061V297.43Z" fill="#C7C7C7"/>
<path d="M375.161 297.43H382.121V288.76H375.161V297.43Z" fill="#C7C7C7"/>
<path d="M384.061 282.699H391.021V274.029H384.061V282.699Z" fill="#C7C7C7"/>
<path d="M375.161 282.699H382.121V274.029H375.161V282.699Z" fill="#C7C7C7"/>
<path d="M384.061 267.979H391.021V259.309H384.061V267.979Z" fill="#C7C7C7"/>
<path d="M375.161 267.979H382.121V259.309H375.161V267.979Z" fill="#C7C7C7"/>
<path d="M384.061 253.25H391.021V244.58H384.061V253.25Z" fill="#C7C7C7"/>
<path d="M375.161 253.25H382.121V244.58H375.161V253.25Z" fill="#C7C7C7"/>
<path d="M384.061 238.529H391.021V229.859H384.061V238.529Z" fill="#C7C7C7"/>
<path d="M375.161 238.529H382.121V229.859H375.161V238.529Z" fill="#C7C7C7"/>
<path d="M384.061 223.799H391.021V215.129H384.061V223.799Z" fill="#C7C7C7"/>
<path d="M373.312 215.139H366.352V223.809H373.312V215.139Z" fill="#C7C7C7"/>
<path d="M373.312 229.859H366.352V238.529H373.312V229.859Z" fill="#C7C7C7"/>
<path d="M373.312 244.59H366.352V253.26H373.312V244.59Z" fill="#C7C7C7"/>
<path d="M373.312 259.309H366.352V267.979H373.312V259.309Z" fill="#C7C7C7"/>
<path d="M373.312 274.039H366.352V282.709H373.312V274.039Z" fill="#C7C7C7"/>
<path d="M373.312 288.76H366.352V297.43H373.312V288.76Z" fill="#C7C7C7"/>
<path d="M373.312 303.488H366.352V312.158H373.312V303.488Z" fill="#C7C7C7"/>
<path d="M373.312 318.209H366.352V326.879H373.312V318.209Z" fill="#C7C7C7"/>
<path d="M373.312 332.939H366.352V341.609H373.312V332.939Z" fill="#C7C7C7"/>
<path d="M373.312 347.66H366.352V356.33H373.312V347.66Z" fill="#C7C7C7"/>
<path d="M373.312 362.389H366.352V371.059H373.312V362.389Z" fill="#C7C7C7"/>
<path d="M373.312 377.109H366.352V385.779H373.312V377.109Z" fill="#C7C7C7"/>
<path d="M373.312 391.84H366.352V400.51H373.312V391.84Z" fill="#C7C7C7"/>
<path d="M373.312 406.559H366.352V415.229H373.312V406.559Z" fill="#C7C7C7"/>
<path d="M375.161 223.799H382.121V215.129H375.161V223.799Z" fill="#C7C7C7"/>
<path d="M140.382 202.799H95.1816V434.899H140.382V202.799Z" fill="#EBEBEB"/>
<path d="M140.38 198.18H94.0898V202.8H140.38V198.18Z" fill="#C7C7C7"/>
<path d="M103.84 209.609H99.2598V434.899H103.84V209.609Z" fill="white"/>
<path d="M111.961 209.609H107.381V434.899H111.961V209.609Z" fill="white"/>
<path d="M120.07 209.609H115.49V434.899H120.07V209.609Z" fill="white"/>
<path d="M128.182 209.609H123.602V434.899H128.182V209.609Z" fill="white"/>
<path d="M136.291 209.609H131.711V434.899H136.291V209.609Z" fill="white"/>
<path d="M103.84 215.449H99.2598V224.569H103.84V215.449Z" fill="#EBEBEB"/>
<path d="M111.961 215.449H107.381V224.569H111.961V215.449Z" fill="#EBEBEB"/>
<path d="M120.07 215.449H115.49V224.569H120.07V215.449Z" fill="#EBEBEB"/>
<path d="M128.182 215.449H123.602V224.569H128.182V215.449Z" fill="#EBEBEB"/>
<path d="M136.291 215.449H131.711V224.569H136.291V215.449Z" fill="#EBEBEB"/>
<path d="M103.84 230.279H99.2598V239.399H103.84V230.279Z" fill="#EBEBEB"/>
<path d="M111.961 230.279H107.381V239.399H111.961V230.279Z" fill="#EBEBEB"/>
<path d="M120.07 230.279H115.49V239.399H120.07V230.279Z" fill="#EBEBEB"/>
<path d="M128.182 230.279H123.602V239.399H128.182V230.279Z" fill="#EBEBEB"/>
<path d="M136.291 230.279H131.711V239.399H136.291V230.279Z" fill="#EBEBEB"/>
<path d="M103.84 245.109H99.2598V254.229H103.84V245.109Z" fill="#EBEBEB"/>
<path d="M111.961 245.109H107.381V254.229H111.961V245.109Z" fill="#EBEBEB"/>
<path d="M120.07 245.109H115.49V254.229H120.07V245.109Z" fill="#EBEBEB"/>
<path d="M128.182 245.109H123.602V254.229H128.182V245.109Z" fill="#EBEBEB"/>
<path d="M136.291 245.109H131.711V254.229H136.291V245.109Z" fill="#EBEBEB"/>
<path d="M103.84 259.939H99.2598V269.059H103.84V259.939Z" fill="#EBEBEB"/>
<path d="M111.961 259.939H107.381V269.059H111.961V259.939Z" fill="#EBEBEB"/>
<path d="M120.07 259.939H115.49V269.059H120.07V259.939Z" fill="#EBEBEB"/>
<path d="M128.182 259.939H123.602V269.059H128.182V259.939Z" fill="#EBEBEB"/>
<path d="M136.291 259.939H131.711V269.059H136.291V259.939Z" fill="#EBEBEB"/>
<path d="M103.84 274.77H99.2598V283.89H103.84V274.77Z" fill="#EBEBEB"/>
<path d="M111.961 274.77H107.381V283.89H111.961V274.77Z" fill="#EBEBEB"/>
<path d="M120.07 274.77H115.49V283.89H120.07V274.77Z" fill="#EBEBEB"/>
<path d="M128.182 274.77H123.602V283.89H128.182V274.77Z" fill="#EBEBEB"/>
<path d="M136.291 274.77H131.711V283.89H136.291V274.77Z" fill="#EBEBEB"/>
<path d="M103.84 289.59H99.2598V298.71H103.84V289.59Z" fill="#EBEBEB"/>
<path d="M111.961 289.59H107.381V298.71H111.961V289.59Z" fill="#EBEBEB"/>
<path d="M120.07 289.59H115.49V298.71H120.07V289.59Z" fill="#EBEBEB"/>
<path d="M128.182 289.59H123.602V298.71H128.182V289.59Z" fill="#EBEBEB"/>
<path d="M136.291 289.59H131.711V298.71H136.291V289.59Z" fill="#EBEBEB"/>
<path d="M103.84 304.42H99.2598V313.54H103.84V304.42Z" fill="#EBEBEB"/>
<path d="M111.961 304.42H107.381V313.54H111.961V304.42Z" fill="#EBEBEB"/>
<path d="M120.07 304.42H115.49V313.54H120.07V304.42Z" fill="#EBEBEB"/>
<path d="M128.182 304.42H123.602V313.54H128.182V304.42Z" fill="#EBEBEB"/>
<path d="M136.291 304.42H131.711V313.54H136.291V304.42Z" fill="#EBEBEB"/>
<path d="M103.84 319.25H99.2598V328.37H103.84V319.25Z" fill="#EBEBEB"/>
<path d="M111.961 319.25H107.381V328.37H111.961V319.25Z" fill="#EBEBEB"/>
<path d="M120.07 319.25H115.49V328.37H120.07V319.25Z" fill="#EBEBEB"/>
<path d="M128.182 319.25H123.602V328.37H128.182V319.25Z" fill="#EBEBEB"/>
<path d="M136.291 319.25H131.711V328.37H136.291V319.25Z" fill="#EBEBEB"/>
<path d="M103.84 334.078H99.2598V343.198H103.84V334.078Z" fill="#EBEBEB"/>
<path d="M111.961 334.078H107.381V343.198H111.961V334.078Z" fill="#EBEBEB"/>
<path d="M120.07 334.078H115.49V343.198H120.07V334.078Z" fill="#EBEBEB"/>
<path d="M128.182 334.078H123.602V343.198H128.182V334.078Z" fill="#EBEBEB"/>
<path d="M136.291 334.078H131.711V343.198H136.291V334.078Z" fill="#EBEBEB"/>
<path d="M103.84 348.91H99.2598V358.03H103.84V348.91Z" fill="#EBEBEB"/>
<path d="M111.961 348.908H107.381V358.028H111.961V348.908Z" fill="#EBEBEB"/>
<path d="M120.07 348.91H115.49V358.03H120.07V348.91Z" fill="#EBEBEB"/>
<path d="M128.182 348.91H123.602V358.03H128.182V348.91Z" fill="#EBEBEB"/>
<path d="M136.291 348.908H131.711V358.028H136.291V348.908Z" fill="#EBEBEB"/>
<path d="M103.84 363.729H99.2598V372.849H103.84V363.729Z" fill="#EBEBEB"/>
<path d="M111.961 363.729H107.381V372.849H111.961V363.729Z" fill="#EBEBEB"/>
<path d="M120.07 363.729H115.49V372.849H120.07V363.729Z" fill="#EBEBEB"/>
<path d="M128.182 363.729H123.602V372.849H128.182V363.729Z" fill="#EBEBEB"/>
<path d="M136.291 363.729H131.711V372.849H136.291V363.729Z" fill="#EBEBEB"/>
<path d="M103.84 378.559H99.2598V387.679H103.84V378.559Z" fill="#EBEBEB"/>
<path d="M111.961 378.559H107.381V387.679H111.961V378.559Z" fill="#EBEBEB"/>
<path d="M120.07 378.559H115.49V387.679H120.07V378.559Z" fill="#EBEBEB"/>
<path d="M128.182 378.559H123.602V387.679H128.182V378.559Z" fill="#EBEBEB"/>
<path d="M136.291 378.559H131.711V387.679H136.291V378.559Z" fill="#EBEBEB"/>
<path d="M103.84 393.389H99.2598V402.509H103.84V393.389Z" fill="#EBEBEB"/>
<path d="M111.961 393.389H107.381V402.509H111.961V393.389Z" fill="#EBEBEB"/>
<path d="M120.07 393.389H115.49V402.509H120.07V393.389Z" fill="#EBEBEB"/>
<path d="M128.182 393.389H123.602V402.509H128.182V393.389Z" fill="#EBEBEB"/>
<path d="M136.291 393.389H131.711V402.509H136.291V393.389Z" fill="#EBEBEB"/>
<path d="M103.84 408.219H99.2598V434.909H103.84V408.219Z" fill="#EBEBEB"/>
<path d="M111.961 408.219H107.381V434.909H111.961V408.219Z" fill="#EBEBEB"/>
<path d="M120.07 408.219H115.49V434.909H120.07V408.219Z" fill="#EBEBEB"/>
<path d="M128.182 408.219H123.602V434.909H128.182V408.219Z" fill="#EBEBEB"/>
<path d="M136.291 408.219H131.711V434.909H136.291V408.219Z" fill="#EBEBEB"/>
<path d="M169.401 202.799H140.381V434.899H169.401V202.799Z" fill="#DBDBDB"/>
<path d="M170.661 198.18H140.381V202.8H170.661V198.18Z" fill="#C7C7C7"/>
<path d="M149.051 209.609H144.471V434.899H149.051V209.609Z" fill="#C7C7C7"/>
<path d="M157.16 209.609H152.58V434.899H157.16V209.609Z" fill="#C7C7C7"/>
<path d="M165.271 209.609H160.691V434.899H165.271V209.609Z" fill="#C7C7C7"/>
<path d="M149.051 215.449H144.471V224.569H149.051V215.449Z" fill="#DBDBDB"/>
<path d="M157.16 215.449H152.58V224.569H157.16V215.449Z" fill="#DBDBDB"/>
<path d="M165.271 215.449H160.691V224.569H165.271V215.449Z" fill="#DBDBDB"/>
<path d="M149.051 230.279H144.471V239.399H149.051V230.279Z" fill="#DBDBDB"/>
<path d="M157.16 230.279H152.58V239.399H157.16V230.279Z" fill="#DBDBDB"/>
<path d="M165.271 230.279H160.691V239.399H165.271V230.279Z" fill="#DBDBDB"/>
<path d="M149.051 245.109H144.471V254.229H149.051V245.109Z" fill="#DBDBDB"/>
<path d="M157.16 245.109H152.58V254.229H157.16V245.109Z" fill="#DBDBDB"/>
<path d="M165.271 245.109H160.691V254.229H165.271V245.109Z" fill="#DBDBDB"/>
<path d="M149.051 259.939H144.471V269.059H149.051V259.939Z" fill="#DBDBDB"/>
<path d="M157.16 259.939H152.58V269.059H157.16V259.939Z" fill="#DBDBDB"/>
<path d="M165.271 259.939H160.691V269.059H165.271V259.939Z" fill="#DBDBDB"/>
<path d="M149.051 274.77H144.471V283.89H149.051V274.77Z" fill="#DBDBDB"/>
<path d="M157.16 274.77H152.58V283.89H157.16V274.77Z" fill="#DBDBDB"/>
<path d="M165.271 274.77H160.691V283.89H165.271V274.77Z" fill="#DBDBDB"/>
<path d="M149.051 289.59H144.471V298.71H149.051V289.59Z" fill="#DBDBDB"/>
<path d="M157.16 289.59H152.58V298.71H157.16V289.59Z" fill="#DBDBDB"/>
<path d="M165.271 289.59H160.691V298.71H165.271V289.59Z" fill="#DBDBDB"/>
<path d="M149.051 304.42H144.471V313.54H149.051V304.42Z" fill="#DBDBDB"/>
<path d="M157.16 304.42H152.58V313.54H157.16V304.42Z" fill="#DBDBDB"/>
<path d="M165.271 304.42H160.691V313.54H165.271V304.42Z" fill="#DBDBDB"/>
<path d="M149.051 319.25H144.471V328.37H149.051V319.25Z" fill="#DBDBDB"/>
<path d="M157.16 319.25H152.58V328.37H157.16V319.25Z" fill="#DBDBDB"/>
<path d="M165.271 319.25H160.691V328.37H165.271V319.25Z" fill="#DBDBDB"/>
<path d="M149.051 334.078H144.471V343.198H149.051V334.078Z" fill="#DBDBDB"/>
<path d="M157.16 334.078H152.58V343.198H157.16V334.078Z" fill="#DBDBDB"/>
<path d="M165.271 334.078H160.691V343.198H165.271V334.078Z" fill="#DBDBDB"/>
<path d="M149.051 348.908H144.471V358.028H149.051V348.908Z" fill="#DBDBDB"/>
<path d="M157.16 348.91H152.58V358.03H157.16V348.91Z" fill="#DBDBDB"/>
<path d="M165.271 348.91H160.691V358.03H165.271V348.91Z" fill="#DBDBDB"/>
<path d="M149.051 363.729H144.471V372.849H149.051V363.729Z" fill="#DBDBDB"/>
<path d="M157.16 363.729H152.58V372.849H157.16V363.729Z" fill="#DBDBDB"/>
<path d="M165.271 363.729H160.691V372.849H165.271V363.729Z" fill="#DBDBDB"/>
<path d="M149.051 378.559H144.471V387.679H149.051V378.559Z" fill="#DBDBDB"/>
<path d="M157.16 378.559H152.58V387.679H157.16V378.559Z" fill="#DBDBDB"/>
<path d="M165.271 378.559H160.691V387.679H165.271V378.559Z" fill="#DBDBDB"/>
<path d="M149.051 393.389H144.471V402.509H149.051V393.389Z" fill="#DBDBDB"/>
<path d="M157.16 393.389H152.58V402.509H157.16V393.389Z" fill="#DBDBDB"/>
<path d="M165.271 393.389H160.691V402.509H165.271V393.389Z" fill="#DBDBDB"/>
<path d="M149.051 408.219H144.471V434.909H149.051V408.219Z" fill="#DBDBDB"/>
<path d="M157.16 408.219H152.58V434.909H157.16V408.219Z" fill="#DBDBDB"/>
<path d="M165.271 408.219H160.691V434.909H165.271V408.219Z" fill="#DBDBDB"/>
<path d="M87.5907 272.318H44.7207V434.908H87.5907V272.318Z" fill="#EBEBEB"/>
<path d="M87.5805 261.529H50.8105V272.309H87.5805V261.529Z" fill="#C7C7C7"/>
<path d="M82.8899 277.939H49.4199V399.479H82.8899V277.939Z" fill="#DBDBDB"/>
<path d="M82.8899 289.539H49.4199V292.409H82.8899V289.539Z" fill="white"/>
<path d="M82.8899 301.439H49.4199V304.309H82.8899V301.439Z" fill="white"/>
<path d="M82.8899 313.34H49.4199V316.21H82.8899V313.34Z" fill="white"/>
<path d="M82.8899 325.229H49.4199V328.099H82.8899V325.229Z" fill="white"/>
<path d="M82.8899 337.129H49.4199V339.999H82.8899V337.129Z" fill="white"/>
<path d="M82.8899 349.029H49.4199V351.899H82.8899V349.029Z" fill="white"/>
<path d="M82.8899 360.918H49.4199V363.788H82.8899V360.918Z" fill="white"/>
<path d="M82.8899 372.818H49.4199V375.688H82.8899V372.818Z" fill="white"/>
<path d="M82.8899 384.719H49.4199V387.589H82.8899V384.719Z" fill="white"/>
<path d="M82.8899 396.619H49.4199V399.489H82.8899V396.619Z" fill="white"/>
<path d="M114.44 272.318H87.5898V434.908H114.44V272.318Z" fill="#DBDBDB"/>
<path d="M110.41 261.529H87.5898V272.309H110.41V261.529Z" fill="#A6A6A6"/>
<path d="M111.941 277.939H91.291V399.479H111.941V277.939Z" fill="#C7C7C7"/>
<path d="M111.941 289.539H91.291V292.409H111.941V289.539Z" fill="white"/>
<path d="M111.941 301.439H91.291V304.309H111.941V301.439Z" fill="white"/>
<path d="M111.941 313.34H91.291V316.21H111.941V313.34Z" fill="white"/>
<path d="M111.941 325.229H91.291V328.099H111.941V325.229Z" fill="white"/>
<path d="M111.941 337.129H91.291V339.999H111.941V337.129Z" fill="white"/>
<path d="M111.941 349.029H91.291V351.899H111.941V349.029Z" fill="white"/>
<path d="M111.941 360.918H91.291V363.788H111.941V360.918Z" fill="white"/>
<path d="M111.941 372.818H91.291V375.688H111.941V372.818Z" fill="white"/>
<path d="M111.941 384.719H91.291V387.589H111.941V384.719Z" fill="white"/>
<path d="M111.941 396.619H91.291V399.489H111.941V396.619Z" fill="white"/>
<path d="M419.941 275.059H397.041V302.109H419.941V275.059Z" fill="#DBDBDB"/>
<path d="M434.461 275.059H419.941V303.099H434.461V275.059Z" fill="#C7C7C7"/>
<path d="M435.42 287H421.01V303.1H435.42V287Z" fill="#DBDBDB"/>
<path d="M444.41 287H435.42V303.1H444.41V287Z" fill="#C7C7C7"/>
<path d="M425.28 300.35H388.26V434.91H425.28V300.35Z" fill="#EBEBEB"/>
<path d="M404.13 306.129H392.49V310.889H404.13V306.129Z" fill="white"/>
<path d="M419.021 306.129H407.381V310.889H419.021V306.129Z" fill="white"/>
<path d="M404.13 314.209H392.49V318.969H404.13V314.209Z" fill="white"/>
<path d="M419.021 314.209H407.381V318.969H419.021V314.209Z" fill="white"/>
<path d="M404.13 322.279H392.49V327.039H404.13V322.279Z" fill="white"/>
<path d="M419.021 322.279H407.381V327.039H419.021V322.279Z" fill="white"/>
<path d="M404.13 330.359H392.49V335.119H404.13V330.359Z" fill="white"/>
<path d="M419.021 330.359H407.381V335.119H419.021V330.359Z" fill="white"/>
<path d="M404.13 338.439H392.49V343.199H404.13V338.439Z" fill="white"/>
<path d="M419.021 338.439H407.381V343.199H419.021V338.439Z" fill="white"/>
<path d="M404.13 346.51H392.49V351.27H404.13V346.51Z" fill="white"/>
<path d="M419.021 346.51H407.381V351.27H419.021V346.51Z" fill="white"/>
<path d="M404.13 354.59H392.49V359.35H404.13V354.59Z" fill="white"/>
<path d="M419.021 354.59H407.381V359.35H419.021V354.59Z" fill="white"/>
<path d="M404.13 362.668H392.49V367.428H404.13V362.668Z" fill="white"/>
<path d="M419.021 362.67H407.381V367.43H419.021V362.67Z" fill="white"/>
<path d="M404.13 370.738H392.49V375.498H404.13V370.738Z" fill="white"/>
<path d="M419.021 370.738H407.381V375.498H419.021V370.738Z" fill="white"/>
<path d="M404.13 378.818H392.49V383.578H404.13V378.818Z" fill="white"/>
<path d="M419.021 378.818H407.381V383.578H419.021V378.818Z" fill="white"/>
<path d="M404.13 386.898H392.49V391.658H404.13V386.898Z" fill="white"/>
<path d="M419.021 386.898H407.381V391.658H419.021V386.898Z" fill="white"/>
<path d="M404.13 394.969H392.49V399.729H404.13V394.969Z" fill="white"/>
<path d="M419.021 394.969H407.381V399.729H419.021V394.969Z" fill="white"/>
<path d="M404.13 403.049H392.49V407.809H404.13V403.049Z" fill="white"/>
<path d="M419.021 403.049H407.381V407.809H419.021V403.049Z" fill="white"/>
<path d="M404.13 411.119H392.49V415.879H404.13V411.119Z" fill="white"/>
<path d="M419.021 411.119H407.381V415.879H419.021V411.119Z" fill="white"/>
<path d="M455.281 300.35H425.281V434.91H455.281V300.35Z" fill="#C7C7C7"/>
<path d="M442.711 415.889H452.271V411.129H442.711V415.889Z" fill="#EBEBEB"/>
<path d="M430.491 415.889H440.051V411.129H430.491V415.889Z" fill="#EBEBEB"/>
<path d="M442.711 407.799H452.271V403.039H442.711V407.799Z" fill="#EBEBEB"/>
<path d="M430.491 407.799H440.051V403.039H430.491V407.799Z" fill="#EBEBEB"/>
<path d="M442.711 399.729H452.271V394.969H442.711V399.729Z" fill="#EBEBEB"/>
<path d="M430.491 399.729H440.051V394.969H430.491V399.729Z" fill="#EBEBEB"/>
<path d="M442.711 391.648H452.271V386.888H442.711V391.648Z" fill="#EBEBEB"/>
<path d="M430.491 391.648H440.051V386.888H430.491V391.648Z" fill="#EBEBEB"/>
<path d="M442.711 383.568H452.271V378.808H442.711V383.568Z" fill="#EBEBEB"/>
<path d="M430.491 383.568H440.051V378.808H430.491V383.568Z" fill="#EBEBEB"/>
<path d="M442.711 375.5H452.271V370.74H442.711V375.5Z" fill="#EBEBEB"/>
<path d="M430.491 375.5H440.051V370.74H430.491V375.5Z" fill="#EBEBEB"/>
<path d="M442.711 367.418H452.271V362.658H442.711V367.418Z" fill="#EBEBEB"/>
<path d="M430.491 367.42H440.051V362.66H430.491V367.42Z" fill="#EBEBEB"/>
<path d="M442.711 359.35H452.271V354.59H442.711V359.35Z" fill="#EBEBEB"/>
<path d="M430.491 359.35H440.051V354.59H430.491V359.35Z" fill="#EBEBEB"/>
<path d="M442.711 351.27H452.271V346.51H442.711V351.27Z" fill="#EBEBEB"/>
<path d="M430.491 351.27H440.051V346.51H430.491V351.27Z" fill="#EBEBEB"/>
<path d="M442.711 343.189H452.271V338.429H442.711V343.189Z" fill="#EBEBEB"/>
<path d="M430.491 343.189H440.051V338.429H430.491V343.189Z" fill="#EBEBEB"/>
<path d="M442.711 335.119H452.271V330.359H442.711V335.119Z" fill="#EBEBEB"/>
<path d="M430.491 335.119H440.051V330.359H430.491V335.119Z" fill="#EBEBEB"/>
<path d="M442.711 327.039H452.271V322.279H442.711V327.039Z" fill="#EBEBEB"/>
<path d="M430.491 327.039H440.051V322.279H430.491V327.039Z" fill="#EBEBEB"/>
<path d="M442.711 318.959H452.271V314.199H442.711V318.959Z" fill="#EBEBEB"/>
<path d="M430.491 318.959H440.051V314.199H430.491V318.959Z" fill="#EBEBEB"/>
<path d="M442.711 310.889H452.271V306.129H442.711V310.889Z" fill="#EBEBEB"/>
<path d="M430.491 310.889H440.051V306.129H430.491V310.889Z" fill="#EBEBEB"/>
<path d="M291.551 347.219H247.881V434.899H291.551V347.219Z" fill="#C7C7C7"/>
<path d="M262.48 354.809H254.75V360.179H262.48V354.809Z" fill="#DBDBDB"/>
<path d="M262.48 366.289H254.75V371.659H262.48V366.289Z" fill="#DBDBDB"/>
<path d="M262.48 377.76H254.75V383.13H262.48V377.76Z" fill="#DBDBDB"/>
<path d="M262.48 389.229H254.75V394.599H262.48V389.229Z" fill="#DBDBDB"/>
<path d="M262.48 400.709H254.75V406.079H262.48V400.709Z" fill="#DBDBDB"/>
<path d="M262.48 412.18H254.75V417.55H262.48V412.18Z" fill="#DBDBDB"/>
<path d="M262.48 423.648H254.75V429.018H262.48V423.648Z" fill="#DBDBDB"/>
<path d="M273.601 354.809H265.871V360.179H273.601V354.809Z" fill="#DBDBDB"/>
<path d="M273.601 366.289H265.871V371.659H273.601V366.289Z" fill="#DBDBDB"/>
<path d="M273.601 377.76H265.871V383.13H273.601V377.76Z" fill="#DBDBDB"/>
<path d="M273.601 389.229H265.871V394.599H273.601V389.229Z" fill="#DBDBDB"/>
<path d="M273.601 400.709H265.871V406.079H273.601V400.709Z" fill="#DBDBDB"/>
<path d="M273.601 412.18H265.871V417.55H273.601V412.18Z" fill="#DBDBDB"/>
<path d="M273.601 423.648H265.871V429.018H273.601V423.648Z" fill="#DBDBDB"/>
<path d="M284.691 354.809H276.961V360.179H284.691V354.809Z" fill="#DBDBDB"/>
<path d="M284.691 366.289H276.961V371.659H284.691V366.289Z" fill="#DBDBDB"/>
<path d="M284.691 377.76H276.961V383.13H284.691V377.76Z" fill="#DBDBDB"/>
<path d="M284.691 389.229H276.961V394.599H284.691V389.229Z" fill="#DBDBDB"/>
<path d="M284.691 400.709H276.961V406.079H284.691V400.709Z" fill="#DBDBDB"/>
<path d="M284.691 412.18H276.961V417.55H284.691V412.18Z" fill="#DBDBDB"/>
<path d="M284.691 423.648H276.961V429.018H284.691V423.648Z" fill="#DBDBDB"/>
<path d="M291.55 338.09H262.48V347.23H291.55V338.09Z" fill="#DBDBDB"/>
<path d="M291.551 332.43H273.121V338.09H291.551V332.43Z" fill="#EBEBEB"/>
<path d="M322.191 347.219H291.551V434.899H322.191V347.219Z" fill="#A6A6A6"/>
<path d="M312.771 428.17H319.061V422.8H312.771V428.17Z" fill="#C7C7C7"/>
<path d="M312.771 416.699H319.061V411.329H312.771V416.699Z" fill="#C7C7C7"/>
<path d="M312.771 405.219H319.061V399.849H312.771V405.219Z" fill="#C7C7C7"/>
<path d="M312.771 393.75H319.061V388.38H312.771V393.75Z" fill="#C7C7C7"/>
<path d="M312.771 382.279H319.061V376.909H312.771V382.279Z" fill="#C7C7C7"/>
<path d="M312.771 370.799H319.061V365.429H312.771V370.799Z" fill="#C7C7C7"/>
<path d="M312.771 359.318H319.061V353.948H312.771V359.318Z" fill="#C7C7C7"/>
<path d="M303.72 428.168H310.01V422.798H303.72V428.168Z" fill="#C7C7C7"/>
<path d="M303.72 416.699H310.01V411.329H303.72V416.699Z" fill="#C7C7C7"/>
<path d="M303.72 405.219H310.01V399.849H303.72V405.219Z" fill="#C7C7C7"/>
<path d="M303.72 393.75H310.01V388.38H303.72V393.75Z" fill="#C7C7C7"/>
<path d="M303.72 382.279H310.01V376.909H303.72V382.279Z" fill="#C7C7C7"/>
<path d="M303.72 370.799H310.01V365.429H303.72V370.799Z" fill="#C7C7C7"/>
<path d="M303.72 359.318H310.01V353.948H303.72V359.318Z" fill="#C7C7C7"/>
<path d="M294.69 428.168H300.98V422.798H294.69V428.168Z" fill="#C7C7C7"/>
<path d="M294.69 416.699H300.98V411.329H294.69V416.699Z" fill="#C7C7C7"/>
<path d="M294.69 405.219H300.98V399.849H294.69V405.219Z" fill="#C7C7C7"/>
<path d="M294.69 393.75H300.98V388.38H294.69V393.75Z" fill="#C7C7C7"/>
<path d="M294.69 382.279H300.98V376.909H294.69V382.279Z" fill="#C7C7C7"/>
<path d="M294.69 370.799H300.98V365.429H294.69V370.799Z" fill="#C7C7C7"/>
<path d="M294.69 359.318H300.98V353.948H294.69V359.318Z" fill="#C7C7C7"/>
<path d="M317.551 338.09H291.551V347.23H317.551V338.09Z" fill="#C7C7C7"/>
<path d="M305.641 332.43H291.551V338.09H305.641V332.43Z" fill="#DBDBDB"/>
<path d="M406.709 225H340.709V427.64H406.709V225Z" fill="#455A64"/>
<path d="M406.46 204.609H357.08V224.989H406.46V204.609Z" fill="#37474F"/>
<path d="M365.409 207.76H361.189V221.85H365.409V207.76Z" fill="#455A64"/>
<path d="M372.79 207.76H368.57V221.85H372.79V207.76Z" fill="#455A64"/>
<path d="M380.179 207.76H375.959V221.85H380.179V207.76Z" fill="#455A64"/>
<path d="M387.57 207.76H383.35V221.85H387.57V207.76Z" fill="#455A64"/>
<path d="M394.96 207.76H390.74V221.85H394.96V207.76Z" fill="#455A64"/>
<path d="M402.349 207.76H398.129V221.85H402.349V207.76Z" fill="#455A64"/>
<path d="M428.919 204.609H406.459V224.989H428.919V204.609Z" fill="#455A64"/>
<path d="M413.199 207.76H409.609V221.85H413.199V207.76Z" fill="#37474F"/>
<path d="M419.481 207.76H415.891V221.85H419.481V207.76Z" fill="#37474F"/>
<path d="M425.76 207.76H422.17V221.85H425.76V207.76Z" fill="#37474F"/>
<path d="M440.049 225H406.459V427.64H440.049V225Z" fill="#37474F"/>
<path d="M367.949 194.281H366.439V204.611H367.949V194.281Z" fill="#263238"/>
<path d="M397.09 194.281H395.58V204.611H397.09V194.281Z" fill="#263238"/>
<path d="M403.79 176.221H359.75V194.281H403.79V176.221Z" fill="#BA68C8"/>
<path d="M366.399 238.949H354.219V257.599H366.399V238.949Z" fill="#263238"/>
<path d="M391.19 238.951H379.01V257.601H391.19V238.951Z" fill="#263238"/>
<path d="M366.399 268.35H354.219V287H366.399V268.35Z" fill="#263238"/>
<path d="M391.19 268.35H379.01V287H391.19V268.35Z" fill="#263238"/>
<path d="M366.399 297.74H354.219V316.39H366.399V297.74Z" fill="#263238"/>
<path d="M391.19 297.74H379.01V316.39H391.19V297.74Z" fill="#263238"/>
<path d="M366.399 327.141H354.219V345.791H366.399V327.141Z" fill="#263238"/>
<path d="M391.19 327.141H379.01V345.791H391.19V327.141Z" fill="#263238"/>
<path d="M366.399 356.531H354.219V375.181H366.399V356.531Z" fill="#263238"/>
<path d="M391.19 356.531H379.01V375.181H391.19V356.531Z" fill="#263238"/>
<path d="M366.399 385.92H354.219V404.57H366.399V385.92Z" fill="#263238"/>
<path d="M391.19 385.92H379.01V404.57H391.19V385.92Z" fill="#263238"/>
<path d="M419.629 238.949H412.629V257.599H419.629V238.949Z" fill="#263238"/>
<path d="M433.879 238.949H426.879V257.599H433.879V238.949Z" fill="#263238"/>
<path d="M419.629 268.35H412.629V287H419.629V268.35Z" fill="#263238"/>
<path d="M433.879 268.35H426.879V287H433.879V268.35Z" fill="#263238"/>
<path d="M419.629 297.74H412.629V316.39H419.629V297.74Z" fill="#263238"/>
<path d="M433.879 297.74H426.879V316.39H433.879V297.74Z" fill="#263238"/>
<path d="M419.629 327.141H412.629V345.791H419.629V327.141Z" fill="#263238"/>
<path d="M433.879 327.141H426.879V345.791H433.879V327.141Z" fill="#263238"/>
<path d="M419.629 356.531H412.629V375.181H419.629V356.531Z" fill="#263238"/>
<path d="M433.879 356.531H426.879V375.181H433.879V356.531Z" fill="#263238"/>
<path d="M419.629 385.92H412.629V404.57H419.629V385.92Z" fill="#263238"/>
<path d="M433.879 385.92H426.879V404.57H433.879V385.92Z" fill="#263238"/>
<path d="M231.82 167.67H196.52V427.63H231.82V167.67Z" fill="#37474F"/>
<path d="M231.82 182.24H196.52V184.97H231.82V182.24Z" fill="#455A64"/>
<path d="M206.66 193H200.16V208.2H206.66V193Z" fill="#263238"/>
<path d="M206.66 212.18H200.16V227.38H206.66V212.18Z" fill="#263238"/>
<path d="M206.66 231.35H200.16V246.55H206.66V231.35Z" fill="#263238"/>
<path d="M206.66 250.52H200.16V265.72H206.66V250.52Z" fill="#263238"/>
<path d="M206.66 269.701H200.16V284.901H206.66V269.701Z" fill="#263238"/>
<path d="M206.66 288.881H200.16V304.081H206.66V288.881Z" fill="#263238"/>
<path d="M206.66 308.041H200.16V323.241H206.66V308.041Z" fill="#263238"/>
<path d="M206.66 327.221H200.16V342.421H206.66V327.221Z" fill="#263238"/>
<path d="M206.66 346.4H200.16V361.6H206.66V346.4Z" fill="#263238"/>
<path d="M206.66 365.57H200.16V380.77H206.66V365.57Z" fill="#263238"/>
<path d="M206.66 384.74H200.16V399.94H206.66V384.74Z" fill="#263238"/>
<path d="M206.66 403.92H200.16V419.12H206.66V403.92Z" fill="#263238"/>
<path d="M206.66 193H200.16V208.2H206.66V193Z" fill="#263238"/>
<path d="M206.66 212.18H200.16V227.38H206.66V212.18Z" fill="#263238"/>
<path d="M206.66 231.35H200.16V246.55H206.66V231.35Z" fill="#263238"/>
<path d="M206.66 250.52H200.16V265.72H206.66V250.52Z" fill="#263238"/>
<path d="M206.66 269.701H200.16V284.901H206.66V269.701Z" fill="#263238"/>
<path d="M206.66 288.881H200.16V304.081H206.66V288.881Z" fill="#263238"/>
<path d="M206.66 308.041H200.16V323.241H206.66V308.041Z" fill="#263238"/>
<path d="M206.66 327.221H200.16V342.421H206.66V327.221Z" fill="#263238"/>
<path d="M206.66 346.4H200.16V361.6H206.66V346.4Z" fill="#263238"/>
<path d="M206.66 365.57H200.16V380.77H206.66V365.57Z" fill="#263238"/>
<path d="M206.66 384.74H200.16V399.94H206.66V384.74Z" fill="#263238"/>
<path d="M206.66 403.92H200.16V419.12H206.66V403.92Z" fill="#263238"/>
<path d="M217.42 193H210.92V208.2H217.42V193Z" fill="#263238"/>
<path d="M217.42 212.18H210.92V227.38H217.42V212.18Z" fill="#263238"/>
<path d="M217.42 231.35H210.92V246.55H217.42V231.35Z" fill="#263238"/>
<path d="M217.42 250.52H210.92V265.72H217.42V250.52Z" fill="#263238"/>
<path d="M217.42 269.701H210.92V284.901H217.42V269.701Z" fill="#263238"/>
<path d="M217.42 288.881H210.92V304.081H217.42V288.881Z" fill="#263238"/>
<path d="M217.42 308.041H210.92V323.241H217.42V308.041Z" fill="#263238"/>
<path d="M217.42 327.221H210.92V342.421H217.42V327.221Z" fill="#263238"/>
<path d="M217.42 346.4H210.92V361.6H217.42V346.4Z" fill="#263238"/>
<path d="M217.42 365.57H210.92V380.77H217.42V365.57Z" fill="#263238"/>
<path d="M217.42 384.74H210.92V399.94H217.42V384.74Z" fill="#263238"/>
<path d="M217.42 403.92H210.92V419.12H217.42V403.92Z" fill="#263238"/>
<path d="M217.42 193H210.92V208.2H217.42V193Z" fill="#263238"/>
<path d="M217.42 212.18H210.92V227.38H217.42V212.18Z" fill="#263238"/>
<path d="M217.42 231.35H210.92V246.55H217.42V231.35Z" fill="#263238"/>
<path d="M217.42 250.52H210.92V265.72H217.42V250.52Z" fill="#263238"/>
<path d="M217.42 269.701H210.92V284.901H217.42V269.701Z" fill="#263238"/>
<path d="M217.42 288.881H210.92V304.081H217.42V288.881Z" fill="#263238"/>
<path d="M217.42 308.041H210.92V323.241H217.42V308.041Z" fill="#263238"/>
<path d="M217.42 327.221H210.92V342.421H217.42V327.221Z" fill="#263238"/>
<path d="M217.42 346.4H210.92V361.6H217.42V346.4Z" fill="#263238"/>
<path d="M217.42 365.57H210.92V380.77H217.42V365.57Z" fill="#263238"/>
<path d="M217.42 384.74H210.92V399.94H217.42V384.74Z" fill="#263238"/>
<path d="M217.42 403.92H210.92V419.12H217.42V403.92Z" fill="#263238"/>
<path d="M228.18 193H221.68V208.2H228.18V193Z" fill="#263238"/>
<path d="M228.18 212.18H221.68V227.38H228.18V212.18Z" fill="#263238"/>
<path d="M228.18 231.35H221.68V246.55H228.18V231.35Z" fill="#263238"/>
<path d="M228.18 250.52H221.68V265.72H228.18V250.52Z" fill="#263238"/>
<path d="M228.18 269.701H221.68V284.901H228.18V269.701Z" fill="#263238"/>
<path d="M228.18 288.881H221.68V304.081H228.18V288.881Z" fill="#263238"/>
<path d="M228.18 308.041H221.68V323.241H228.18V308.041Z" fill="#263238"/>
<path d="M228.18 327.221H221.68V342.421H228.18V327.221Z" fill="#263238"/>
<path d="M228.18 346.4H221.68V361.6H228.18V346.4Z" fill="#263238"/>
<path d="M228.18 365.57H221.68V380.77H228.18V365.57Z" fill="#263238"/>
<path d="M228.18 384.74H221.68V399.94H228.18V384.74Z" fill="#263238"/>
<path d="M228.18 403.92H221.68V419.12H228.18V403.92Z" fill="#263238"/>
<path d="M228.18 193H221.68V208.2H228.18V193Z" fill="#263238"/>
<path d="M228.18 212.18H221.68V227.38H228.18V212.18Z" fill="#263238"/>
<path d="M228.18 231.35H221.68V246.55H228.18V231.35Z" fill="#263238"/>
<path d="M228.18 250.52H221.68V265.72H228.18V250.52Z" fill="#263238"/>
<path d="M228.18 269.701H221.68V284.901H228.18V269.701Z" fill="#263238"/>
<path d="M228.18 288.881H221.68V304.081H228.18V288.881Z" fill="#263238"/>
<path d="M228.18 308.041H221.68V323.241H228.18V308.041Z" fill="#263238"/>
<path d="M228.18 327.221H221.68V342.421H228.18V327.221Z" fill="#263238"/>
<path d="M228.18 346.4H221.68V361.6H228.18V346.4Z" fill="#263238"/>
<path d="M228.18 365.57H221.68V380.77H228.18V365.57Z" fill="#263238"/>
<path d="M228.18 384.74H221.68V399.94H228.18V384.74Z" fill="#263238"/>
<path d="M228.18 403.92H221.68V419.12H228.18V403.92Z" fill="#263238"/>
<path d="M196.52 167.67H136.17V427.63H196.52V167.67Z" fill="#455A64"/>
<path d="M196.52 182.24H136.17V184.97H196.52V182.24Z" fill="#37474F"/>
<path d="M196.52 153.07H157.68V167.67H196.52V153.07Z" fill="#37474F"/>
<path d="M196.52 167.67H214.77V153.07H196.52V167.67Z" fill="#263238"/>
<path d="M153.191 193H142.641V208.2H153.191V193Z" fill="#263238"/>
<path d="M153.191 212.18H142.641V227.38H153.191V212.18Z" fill="#263238"/>
<path d="M153.191 231.35H142.641V246.55H153.191V231.35Z" fill="#263238"/>
<path d="M153.191 250.52H142.641V265.72H153.191V250.52Z" fill="#263238"/>
<path d="M153.191 269.701H142.641V284.901H153.191V269.701Z" fill="#263238"/>
<path d="M153.191 288.881H142.641V304.081H153.191V288.881Z" fill="#263238"/>
<path d="M153.191 308.041H142.641V323.241H153.191V308.041Z" fill="#263238"/>
<path d="M153.191 327.221H142.641V342.421H153.191V327.221Z" fill="#263238"/>
<path d="M153.191 346.4H142.641V361.6H153.191V346.4Z" fill="#263238"/>
<path d="M153.191 365.57H142.641V380.77H153.191V365.57Z" fill="#263238"/>
<path d="M153.191 384.74H142.641V399.94H153.191V384.74Z" fill="#263238"/>
<path d="M153.191 403.92H142.641V419.12H153.191V403.92Z" fill="#263238"/>
<path d="M153.191 193H142.641V208.2H153.191V193Z" fill="#263238"/>
<path d="M153.191 212.18H142.641V227.38H153.191V212.18Z" fill="#263238"/>
<path d="M153.191 231.35H142.641V246.55H153.191V231.35Z" fill="#263238"/>
<path d="M153.191 250.52H142.641V265.72H153.191V250.52Z" fill="#263238"/>
<path d="M153.191 269.701H142.641V284.901H153.191V269.701Z" fill="#263238"/>
<path d="M153.191 288.881H142.641V304.081H153.191V288.881Z" fill="#263238"/>
<path d="M153.191 308.041H142.641V323.241H153.191V308.041Z" fill="#263238"/>
<path d="M153.191 327.221H142.641V342.421H153.191V327.221Z" fill="#263238"/>
<path d="M153.191 346.4H142.641V361.6H153.191V346.4Z" fill="#263238"/>
<path d="M153.191 365.57H142.641V380.77H153.191V365.57Z" fill="#263238"/>
<path d="M153.191 384.74H142.641V399.94H153.191V384.74Z" fill="#263238"/>
<path d="M153.191 403.92H142.641V419.12H153.191V403.92Z" fill="#263238"/>
<path d="M170.659 193H160.109V208.2H170.659V193Z" fill="#263238"/>
<path d="M170.659 212.18H160.109V227.38H170.659V212.18Z" fill="#263238"/>
<path d="M170.659 231.35H160.109V246.55H170.659V231.35Z" fill="#263238"/>
<path d="M170.659 250.52H160.109V265.72H170.659V250.52Z" fill="#263238"/>
<path d="M170.659 269.701H160.109V284.901H170.659V269.701Z" fill="#263238"/>
<path d="M170.659 288.881H160.109V304.081H170.659V288.881Z" fill="#263238"/>
<path d="M170.659 308.041H160.109V323.241H170.659V308.041Z" fill="#263238"/>
<path d="M170.659 327.221H160.109V342.421H170.659V327.221Z" fill="#263238"/>
<path d="M170.659 346.4H160.109V361.6H170.659V346.4Z" fill="#263238"/>
<path d="M170.659 365.57H160.109V380.77H170.659V365.57Z" fill="#263238"/>
<path d="M170.659 384.74H160.109V399.94H170.659V384.74Z" fill="#263238"/>
<path d="M170.659 403.92H160.109V419.12H170.659V403.92Z" fill="#263238"/>
<path d="M170.659 193H160.109V208.2H170.659V193Z" fill="#263238"/>
<path d="M170.659 212.18H160.109V227.38H170.659V212.18Z" fill="#263238"/>
<path d="M170.659 231.35H160.109V246.55H170.659V231.35Z" fill="#263238"/>
<path d="M170.659 250.52H160.109V265.72H170.659V250.52Z" fill="#263238"/>
<path d="M170.659 269.701H160.109V284.901H170.659V269.701Z" fill="#263238"/>
<path d="M170.659 288.881H160.109V304.081H170.659V288.881Z" fill="#263238"/>
<path d="M170.659 308.041H160.109V323.241H170.659V308.041Z" fill="#263238"/>
<path d="M170.659 327.221H160.109V342.421H170.659V327.221Z" fill="#263238"/>
<path d="M170.659 346.4H160.109V361.6H170.659V346.4Z" fill="#263238"/>
<path d="M170.659 365.57H160.109V380.77H170.659V365.57Z" fill="#263238"/>
<path d="M170.659 384.74H160.109V399.94H170.659V384.74Z" fill="#263238"/>
<path d="M170.659 403.92H160.109V419.12H170.659V403.92Z" fill="#263238"/>
<path d="M188.14 193H177.59V208.2H188.14V193Z" fill="#263238"/>
<path d="M188.14 212.18H177.59V227.38H188.14V212.18Z" fill="#263238"/>
<path d="M188.14 231.35H177.59V246.55H188.14V231.35Z" fill="#263238"/>
<path d="M188.14 250.52H177.59V265.72H188.14V250.52Z" fill="#263238"/>
<path d="M188.14 269.701H177.59V284.901H188.14V269.701Z" fill="#263238"/>
<path d="M188.14 288.881H177.59V304.081H188.14V288.881Z" fill="#263238"/>
<path d="M188.14 308.041H177.59V323.241H188.14V308.041Z" fill="#263238"/>
<path d="M188.14 327.221H177.59V342.421H188.14V327.221Z" fill="#263238"/>
<path d="M188.14 346.4H177.59V361.6H188.14V346.4Z" fill="#263238"/>
<path d="M188.14 365.57H177.59V380.77H188.14V365.57Z" fill="#263238"/>
<path d="M188.14 384.74H177.59V399.94H188.14V384.74Z" fill="#263238"/>
<path d="M188.14 403.92H177.59V419.12H188.14V403.92Z" fill="#263238"/>
<path d="M188.14 193H177.59V208.2H188.14V193Z" fill="#263238"/>
<path d="M188.14 212.18H177.59V227.38H188.14V212.18Z" fill="#263238"/>
<path d="M188.14 231.35H177.59V246.55H188.14V231.35Z" fill="#263238"/>
<path d="M188.14 250.52H177.59V265.72H188.14V250.52Z" fill="#263238"/>
<path d="M188.14 269.701H177.59V284.901H188.14V269.701Z" fill="#263238"/>
<path d="M188.14 288.881H177.59V304.081H188.14V288.881Z" fill="#263238"/>
<path d="M188.14 308.041H177.59V323.241H188.14V308.041Z" fill="#263238"/>
<path d="M188.14 327.221H177.59V342.421H188.14V327.221Z" fill="#263238"/>
<path d="M188.14 346.4H177.59V361.6H188.14V346.4Z" fill="#263238"/>
<path d="M188.14 365.57H177.59V380.77H188.14V365.57Z" fill="#263238"/>
<path d="M188.14 384.74H177.59V399.94H188.14V384.74Z" fill="#263238"/>
<path d="M188.14 403.92H177.59V419.12H188.14V403.92Z" fill="#263238"/>
<path d="M113.27 427.631H65.4297V277.561L113.27 246.551V427.631Z" fill="#BA68C8"/>
<path d="M107.121 427.63H70.8105V281.76L107.121 258.23V427.63Z" fill="#BA68C8"/>
<path opacity="0.3" d="M107.121 427.63H70.8105V281.76L107.121 258.23V427.63Z" fill="black"/>
<g opacity="0.3">
<path d="M107.119 284.279H74.9688V285.439H107.119V284.279Z" fill="black"/>
<path d="M107.119 293.76H74.9688V294.92H107.119V293.76Z" fill="black"/>
<path d="M107.119 303.24H74.9688V304.4H107.119V303.24Z" fill="black"/>
<path d="M107.119 312.719H74.9688V313.879H107.119V312.719Z" fill="black"/>
<path d="M107.119 322.199H74.9688V323.359H107.119V322.199Z" fill="black"/>
<path d="M107.119 331.68H74.9688V332.84H107.119V331.68Z" fill="black"/>
<path d="M107.119 341.16H74.9688V342.32H107.119V341.16Z" fill="black"/>
<path d="M107.119 350.639H74.9688V351.799H107.119V350.639Z" fill="black"/>
<path d="M107.119 360.119H74.9688V361.279H107.119V360.119Z" fill="black"/>
<path d="M107.119 369.6H74.9688V370.76H107.119V369.6Z" fill="black"/>
<path d="M107.119 379.08H74.9688V380.24H107.119V379.08Z" fill="black"/>
<path d="M107.119 388.559H74.9688V389.719H107.119V388.559Z" fill="black"/>
<path d="M107.119 398.039H74.9688V399.199H107.119V398.039Z" fill="black"/>
<path d="M107.119 407.52H74.9688V408.68H107.119V407.52Z" fill="black"/>
<path d="M107.119 417H74.9688V418.16H107.119V417Z" fill="black"/>
<path d="M107.119 426.48H74.9688V427.64H107.119V426.48Z" fill="black"/>
<path d="M90.4688 273.269L90.4688 427.639H91.6288L91.6288 273.269H90.4688Z" fill="black"/>
</g>
<path d="M107.12 258.23V263.45L74.9703 284.28V427.63H70.8203V281.75L107.12 258.23Z" fill="#BA68C8"/>
<path opacity="0.2" d="M107.12 258.23V263.45L74.9703 284.28V427.63H70.8203V281.75L107.12 258.23Z" fill="black"/>
<path d="M155.42 246.551H113.27V427.631H155.42V246.551Z" fill="#BA68C8"/>
<path opacity="0.2" d="M155.42 246.551H113.27V427.631H155.42V246.551Z" fill="black"/>
<g opacity="0.2">
<path d="M151.329 258.23H117.359V262.33H151.329V258.23Z" fill="black"/>
<path d="M151.329 267.51H117.359V271.61H151.329V267.51Z" fill="black"/>
<path d="M151.329 276.801H117.359V280.901H151.329V276.801Z" fill="black"/>
<path d="M151.329 286.08H117.359V290.18H151.329V286.08Z" fill="black"/>
<path d="M151.329 295.371H117.359V299.471H151.329V295.371Z" fill="black"/>
<path d="M151.329 304.66H117.359V308.76H151.329V304.66Z" fill="black"/>
<path d="M151.329 313.941H117.359V318.041H151.329V313.941Z" fill="black"/>
<path d="M151.329 323.23H117.359V327.33H151.329V323.23Z" fill="black"/>
<path d="M151.329 332.51H117.359V336.61H151.329V332.51Z" fill="black"/>
<path d="M151.329 341.801H117.359V345.901H151.329V341.801Z" fill="black"/>
<path d="M151.329 351.09H117.359V355.19H151.329V351.09Z" fill="black"/>
<path d="M151.329 360.371H117.359V364.471H151.329V360.371Z" fill="black"/>
<path d="M151.329 369.66H117.359V373.76H151.329V369.66Z" fill="black"/>
<path d="M151.329 378.941H117.359V383.041H151.329V378.941Z" fill="black"/>
<path d="M151.329 388.23H117.359V392.33H151.329V388.23Z" fill="black"/>
<path d="M151.329 397.52H117.359V401.62H151.329V397.52Z" fill="black"/>
<path d="M151.329 406.801H117.359V410.901H151.329V406.801Z" fill="black"/>
<path d="M151.329 416.09H117.359V420.19H151.329V416.09Z" fill="black"/>
</g>
<path d="M329.69 235.91H291.77V427.64H329.69V235.91Z" fill="#BA68C8"/>
<path opacity="0.2" d="M329.69 235.91H291.77V427.64H329.69V235.91Z" fill="black"/>
<path d="M291.769 235.91H331.959V229.63H291.769V235.91Z" fill="#BA68C8"/>
<path d="M291.76 229.631H325.84V219.821H291.76V229.631Z" fill="#BA68C8"/>
<path opacity="0.2" d="M291.76 229.631H325.84V219.821H291.76V229.631Z" fill="black"/>
<path d="M291.77 219.811H317.84V198.171H291.77V219.811Z" fill="#BA68C8"/>
<path opacity="0.3" d="M291.77 219.811H317.84V198.171H291.77V219.811Z" fill="black"/>
<g opacity="0.3">
<path d="M300.54 243.17H295.4V263.34H300.54V243.17Z" fill="black"/>
</g>
<g opacity="0.3">
<path d="M300.54 270.65H295.4V290.82H300.54V270.65Z" fill="black"/>
</g>
<g opacity="0.3">
<path d="M300.54 298.121H295.4V318.291H300.54V298.121Z" fill="black"/>
</g>
<g opacity="0.3">
<path d="M300.54 325.59H295.4V345.76H300.54V325.59Z" fill="black"/>
</g>
<g opacity="0.3">
<path d="M300.54 353.07H295.4V373.24H300.54V353.07Z" fill="black"/>
</g>
<g opacity="0.3">
<path d="M300.54 380.541H295.4V400.711H300.54V380.541Z" fill="black"/>
</g>
<g opacity="0.3">
<path d="M309.05 243.17H303.91V263.34H309.05V243.17Z" fill="black"/>
</g>
<g opacity="0.3">
<path d="M309.05 270.65H303.91V290.82H309.05V270.65Z" fill="black"/>
</g>
<g opacity="0.3">
<path d="M309.05 298.121H303.91V318.291H309.05V298.121Z" fill="black"/>
</g>
<g opacity="0.3">
<path d="M309.05 325.59H303.91V345.76H309.05V325.59Z" fill="black"/>
</g>
<g opacity="0.3">
<path d="M309.05 353.07H303.91V373.24H309.05V353.07Z" fill="black"/>
</g>
<g opacity="0.3">
<path d="M309.05 380.541H303.91V400.711H309.05V380.541Z" fill="black"/>
</g>
<g opacity="0.3">
<path d="M317.55 243.17H312.41V263.34H317.55V243.17Z" fill="black"/>
</g>
<g opacity="0.3">
<path d="M317.55 270.65H312.41V290.82H317.55V270.65Z" fill="black"/>
</g>
<g opacity="0.3">
<path d="M317.55 298.121H312.41V318.291H317.55V298.121Z" fill="black"/>
</g>
<g opacity="0.3">
<path d="M317.55 325.59H312.41V345.76H317.55V325.59Z" fill="black"/>
</g>
<g opacity="0.3">
<path d="M317.55 353.07H312.41V373.24H317.55V353.07Z" fill="black"/>
</g>
<g opacity="0.3">
<path d="M317.55 380.541H312.41V400.711H317.55V380.541Z" fill="black"/>
</g>
<g opacity="0.3">
<path d="M326.05 243.17H320.91V263.34H326.05V243.17Z" fill="black"/>
</g>
<g opacity="0.3">
<path d="M326.05 270.65H320.91V290.82H326.05V270.65Z" fill="black"/>
</g>
<g opacity="0.3">
<path d="M326.05 298.121H320.91V318.291H326.05V298.121Z" fill="black"/>
</g>
<g opacity="0.3">
<path d="M326.05 325.59H320.91V345.76H326.05V325.59Z" fill="black"/>
</g>
<g opacity="0.3">
<path d="M326.05 353.07H320.91V373.24H326.05V353.07Z" fill="black"/>
</g>
<g opacity="0.3">
<path d="M326.05 380.541H320.91V400.711H326.05V380.541Z" fill="black"/>
</g>
<path d="M291.759 235.91H214.029V427.64H291.759V235.91Z" fill="#BA68C8"/>
<path d="M291.77 219.811H217.76V229.621H291.77V219.811Z" fill="#BA68C8"/>
<path d="M291.77 198.18H236.08V219.82H291.77V198.18Z" fill="#BA68C8"/>
<path opacity="0.2" d="M291.77 198.18H236.08V219.82H291.77V198.18Z" fill="black"/>
<path d="M291.769 229.621H211.709V235.901H291.769V229.621Z" fill="#BA68C8"/>
<path opacity="0.2" d="M291.769 229.621H211.709V235.901H291.769V229.621Z" fill="black"/>
<g opacity="0.3">
<path d="M232.019 243.17H221.469V263.34H232.019V243.17Z" fill="black"/>
</g>
<g opacity="0.3">
<path d="M232.019 270.65H221.469V290.82H232.019V270.65Z" fill="black"/>
</g>
<g opacity="0.3">
<path d="M232.019 298.121H221.469V318.291H232.019V298.121Z" fill="black"/>
</g>
<g opacity="0.3">
<path d="M232.019 325.59H221.469V345.76H232.019V325.59Z" fill="black"/>
</g>
<g opacity="0.3">
<path d="M232.019 353.07H221.469V373.24H232.019V353.07Z" fill="black"/>
</g>
<g opacity="0.3">
<path d="M232.019 380.541H221.469V400.711H232.019V380.541Z" fill="black"/>
</g>
<g opacity="0.3">
<path d="M249.46 243.17H238.91V263.34H249.46V243.17Z" fill="black"/>
</g>
<g opacity="0.3">
<path d="M249.46 270.65H238.91V290.82H249.46V270.65Z" fill="black"/>
</g>
<g opacity="0.3">
<path d="M249.46 298.121H238.91V318.291H249.46V298.121Z" fill="black"/>
</g>
<g opacity="0.3">
<path d="M249.46 325.59H238.91V345.76H249.46V325.59Z" fill="black"/>
</g>
<g opacity="0.3">
<path d="M249.46 353.07H238.91V373.24H249.46V353.07Z" fill="black"/>
</g>
<g opacity="0.3">
<path d="M249.46 380.541H238.91V400.711H249.46V380.541Z" fill="black"/>
</g>
<g opacity="0.3">
<path d="M266.9 243.17H256.35V263.34H266.9V243.17Z" fill="black"/>
</g>
<g opacity="0.3">
<path d="M266.9 270.65H256.35V290.82H266.9V270.65Z" fill="black"/>
</g>
<g opacity="0.3">
<path d="M266.9 298.121H256.35V318.291H266.9V298.121Z" fill="black"/>
</g>
<g opacity="0.3">
<path d="M266.9 325.59H256.35V345.76H266.9V325.59Z" fill="black"/>
</g>
<g opacity="0.3">
<path d="M266.9 353.07H256.35V373.24H266.9V353.07Z" fill="black"/>
</g>
<g opacity="0.3">
<path d="M266.9 380.541H256.35V400.711H266.9V380.541Z" fill="black"/>
</g>
<g opacity="0.3">
<path d="M284.329 243.17H273.779V263.34H284.329V243.17Z" fill="black"/>
</g>
<g opacity="0.3">
<path d="M284.329 270.65H273.779V290.82H284.329V270.65Z" fill="black"/>
</g>
<g opacity="0.3">
<path d="M284.329 298.121H273.779V318.291H284.329V298.121Z" fill="black"/>
</g>
<g opacity="0.3">
<path d="M284.329 325.59H273.779V345.76H284.329V325.59Z" fill="black"/>
</g>
<g opacity="0.3">
<path d="M284.329 353.07H273.779V373.24H284.329V353.07Z" fill="black"/>
</g>
<g opacity="0.3">
<path d="M284.329 380.541H273.779V400.711H284.329V380.541Z" fill="black"/>
</g>
<path opacity="0.3" d="M266.9 408.631H238.91V427.631H266.9V408.631Z" fill="black"/>
<path d="M407.49 318.301H369.57V427.631H407.49V318.301Z" fill="#BA68C8"/>
<path opacity="0.2" d="M407.49 318.301H369.57V427.631H407.49V318.301Z" fill="black"/>
<path d="M369.57 318.311H409.76V312.031H369.57V318.311Z" fill="#BA68C8"/>
<path d="M369.57 312.02H403.65V302.21H369.57V312.02Z" fill="#BA68C8"/>
<path opacity="0.2" d="M369.57 312.02H403.65V302.21H369.57V312.02Z" fill="black"/>
<g opacity="0.3">
<path d="M378.349 325.57H373.209V345.74H378.349V325.57Z" fill="black"/>
</g>
<g opacity="0.3">
<path d="M378.349 353.041H373.209V373.211H378.349V353.041Z" fill="black"/>
</g>
<g opacity="0.3">
<path d="M378.349 380.52H373.209V400.69H378.349V380.52Z" fill="black"/>
</g>
<g opacity="0.3">
<path d="M386.849 325.57H381.709V345.74H386.849V325.57Z" fill="black"/>
</g>
<g opacity="0.3">
<path d="M386.849 353.041H381.709V373.211H386.849V353.041Z" fill="black"/>
</g>
<g opacity="0.3">
<path d="M386.849 380.52H381.709V400.69H386.849V380.52Z" fill="black"/>
</g>
<g opacity="0.3">
<path d="M395.349 325.57H390.209V345.74H395.349V325.57Z" fill="black"/>
</g>
<g opacity="0.3">
<path d="M395.349 353.041H390.209V373.211H395.349V353.041Z" fill="black"/>
</g>
<g opacity="0.3">
<path d="M395.349 380.52H390.209V400.69H395.349V380.52Z" fill="black"/>
</g>
<g opacity="0.3">
<path d="M403.849 325.57H398.709V345.74H403.849V325.57Z" fill="black"/>
</g>
<g opacity="0.3">
<path d="M403.849 353.041H398.709V373.211H403.849V353.041Z" fill="black"/>
</g>
<g opacity="0.3">
<path d="M403.849 380.52H398.709V400.69H403.849V380.52Z" fill="black"/>
</g>
<path d="M369.57 318.301H291.84V427.631H369.57V318.301Z" fill="#BA68C8"/>
<path d="M369.571 302.211H295.561V312.021H369.571V302.211Z" fill="#BA68C8"/>
<path d="M369.57 312.02H289.51V318.3H369.57V312.02Z" fill="#BA68C8"/>
<path opacity="0.2" d="M369.57 312.02H289.51V318.3H369.57V312.02Z" fill="black"/>
<g opacity="0.3">
<path d="M309.82 325.57H299.27V345.74H309.82V325.57Z" fill="black"/>
</g>
<g opacity="0.3">
<path d="M309.82 353.041H299.27V373.211H309.82V353.041Z" fill="black"/>
</g>
<g opacity="0.3">
<path d="M309.82 380.52H299.27V400.69H309.82V380.52Z" fill="black"/>
</g>
<g opacity="0.3">
<path d="M327.259 325.57H316.709V345.74H327.259V325.57Z" fill="black"/>
</g>
<g opacity="0.3">
<path d="M327.259 353.041H316.709V373.211H327.259V353.041Z" fill="black"/>
</g>
<g opacity="0.3">
<path d="M327.259 380.52H316.709V400.69H327.259V380.52Z" fill="black"/>
</g>
<g opacity="0.3">
<path d="M344.7 325.57H334.15V345.74H344.7V325.57Z" fill="black"/>
</g>
<g opacity="0.3">
<path d="M344.7 353.041H334.15V373.211H344.7V353.041Z" fill="black"/>
</g>
<g opacity="0.3">
<path d="M344.7 380.52H334.15V400.69H344.7V380.52Z" fill="black"/>
</g>
<g opacity="0.3">
<path d="M362.14 325.57H351.59V345.74H362.14V325.57Z" fill="black"/>
</g>
<g opacity="0.3">
<path d="M362.14 353.041H351.59V373.211H362.14V353.041Z" fill="black"/>
</g>
<g opacity="0.3">
<path d="M362.14 380.52H351.59V400.69H362.14V380.52Z" fill="black"/>
</g>
<path d="M339.21 163.801C338.691 163.542 338.156 163.315 337.61 163.121C337.051 162.908 336.465 162.774 335.87 162.721C335.684 162.703 335.497 162.724 335.32 162.781C335.263 162.796 335.209 162.819 335.16 162.851L335.05 162.931L334.86 163.091C334.637 163.292 334.427 163.505 334.23 163.731C333.83 164.171 333.48 164.631 333.13 165.101L333.57 164.951C332.982 164.787 332.384 164.664 331.78 164.581C331.472 164.537 331.161 164.514 330.85 164.511C330.687 164.496 330.523 164.496 330.36 164.511C330.268 164.522 330.178 164.543 330.09 164.571C329.996 164.606 329.906 164.65 329.82 164.701C329.554 164.888 329.318 165.114 329.12 165.371C328.93 165.611 328.76 165.861 328.59 166.121C328.272 166.628 327.994 167.16 327.76 167.711C328.15 167.251 328.52 166.791 328.91 166.351C329.1 166.141 329.3 165.921 329.51 165.731C329.695 165.538 329.907 165.373 330.14 165.241C330.362 165.167 330.597 165.143 330.83 165.171C331.112 165.191 331.393 165.231 331.67 165.291C332.23 165.391 332.8 165.531 333.35 165.671L333.62 165.751L333.78 165.521C334.1 165.061 334.45 164.611 334.78 164.171C334.95 163.951 335.13 163.741 335.31 163.551L335.45 163.421L335.52 163.371C335.619 163.335 335.724 163.314 335.83 163.311C336.384 163.312 336.936 163.366 337.48 163.471C338.08 163.581 338.64 163.701 339.21 163.801Z" fill="#263238"/>
<path d="M332.921 180.822C332.237 180.282 331.515 179.791 330.761 179.352C329.998 178.873 329.174 178.5 328.311 178.242C328.047 178.174 327.773 178.15 327.501 178.172C327.409 178.187 327.319 178.21 327.231 178.242L327.051 178.322L326.731 178.492C326.331 178.732 325.971 178.992 325.611 179.252C324.901 179.792 324.261 180.362 323.611 180.952L324.291 180.862C323.485 180.446 322.649 180.088 321.791 179.792C321.351 179.637 320.9 179.513 320.441 179.422C320.198 179.367 319.95 179.334 319.701 179.322C319.565 179.312 319.428 179.312 319.291 179.322C319.146 179.349 319.002 179.386 318.861 179.432C318.412 179.627 317.996 179.894 317.631 180.222C317.277 180.511 316.942 180.825 316.631 181.162C316.013 181.812 315.448 182.511 314.941 183.252C315.641 182.692 316.321 182.122 317.021 181.602C317.371 181.332 317.721 181.082 318.081 180.852C318.413 180.627 318.772 180.449 319.151 180.322C319.488 180.286 319.828 180.32 320.151 180.422C320.556 180.534 320.953 180.671 321.341 180.832C322.141 181.142 322.941 181.522 323.701 181.892L324.081 182.092L324.381 181.802C324.991 181.222 325.631 180.652 326.271 180.112C326.59 179.843 326.924 179.592 327.271 179.362C327.347 179.305 327.427 179.254 327.511 179.212L327.621 179.152C327.777 179.121 327.936 179.121 328.091 179.152C328.903 179.309 329.697 179.547 330.461 179.862C331.311 180.162 332.111 180.502 332.921 180.822Z" fill="#263238"/>
<path d="M158.67 141.45C158.2 141.107 157.709 140.793 157.2 140.51C156.68 140.212 156.121 139.983 155.54 139.83C155.362 139.799 155.179 139.799 155 139.83C154.941 139.822 154.88 139.822 154.82 139.83L154.7 139.89L154.49 140.01C154.23 140.18 153.99 140.36 153.76 140.54C153.3 140.91 152.88 141.31 152.46 141.72L152.91 141.64C152.36 141.381 151.792 141.16 151.21 140.98C150.913 140.885 150.609 140.811 150.3 140.76C150.138 140.733 149.975 140.717 149.81 140.71H149.54C149.442 140.734 149.345 140.765 149.25 140.8C148.954 140.935 148.683 141.121 148.45 141.35C148.225 141.551 148.011 141.765 147.81 141.99C147.41 142.439 147.049 142.921 146.73 143.43C147.18 143.04 147.62 142.64 148.08 142.28C148.31 142.1 148.53 141.92 148.77 141.76C148.987 141.605 149.222 141.478 149.47 141.38C149.705 141.345 149.944 141.362 150.17 141.43C150.443 141.494 150.71 141.578 150.97 141.68C151.51 141.87 152.05 142.1 152.57 142.34L152.83 142.45L153.02 142.26C153.41 141.85 153.83 141.46 154.24 141.09C154.44 140.905 154.651 140.732 154.87 140.57L155.03 140.46H155.1C155.203 140.438 155.308 140.438 155.41 140.46C155.956 140.555 156.491 140.699 157.01 140.89C157.58 141 158.12 141.25 158.67 141.45Z" fill="#263238"/>
<path d="M172.931 139.141C172.441 138.438 171.903 137.77 171.321 137.141C170.735 136.463 170.062 135.864 169.321 135.361C169.089 135.217 168.836 135.113 168.571 135.051H168.291H168.101L167.741 135.121C167.281 135.231 166.861 135.371 166.441 135.511C165.611 135.811 164.821 136.171 164.021 136.511L164.701 136.621C164.047 135.986 163.352 135.395 162.621 134.851C162.243 134.577 161.849 134.327 161.441 134.101C161.224 133.984 161 133.88 160.771 133.791C160.64 133.747 160.506 133.714 160.371 133.691C160.224 133.681 160.077 133.681 159.931 133.691C159.444 133.749 158.968 133.881 158.521 134.081C158.091 134.261 157.691 134.471 157.291 134.681C156.51 135.127 155.765 135.632 155.061 136.191C155.901 135.861 156.711 135.511 157.541 135.191C157.946 135.037 158.36 134.907 158.781 134.801C159.159 134.68 159.553 134.613 159.951 134.601C160.309 134.665 160.65 134.805 160.951 135.011C161.297 135.243 161.631 135.493 161.951 135.761C162.621 136.291 163.271 136.881 163.891 137.471L164.201 137.771L164.571 137.581C165.321 137.201 166.101 136.851 166.871 136.581C167.244 136.412 167.628 136.268 168.021 136.151L168.291 136.071H168.421C168.578 136.09 168.73 136.138 168.871 136.211C169.581 136.607 170.251 137.073 170.871 137.601C171.601 138.001 172.261 138.591 172.931 139.141Z" fill="#263238"/>
<path d="M353.271 176.641C352.781 175.936 352.239 175.267 351.651 174.641C351.07 173.958 350.397 173.359 349.651 172.861C349.424 172.71 349.169 172.604 348.901 172.551C348.808 172.541 348.714 172.541 348.621 172.551H348.431C348.309 172.564 348.188 172.587 348.071 172.621C347.629 172.723 347.195 172.853 346.771 173.011C345.941 173.311 345.151 173.661 344.351 174.011L345.031 174.121C344.38 173.483 343.685 172.892 342.951 172.351C342.578 172.07 342.183 171.82 341.771 171.601C341.556 171.48 341.332 171.376 341.101 171.291C340.981 171.291 340.831 171.221 340.701 171.181C340.554 171.171 340.407 171.171 340.261 171.181C339.774 171.236 339.299 171.364 338.851 171.561C338.43 171.742 338.019 171.946 337.621 172.171C336.84 172.614 336.095 173.116 335.391 173.671C336.231 173.341 337.041 173.001 337.871 172.671C338.281 172.521 338.691 172.381 339.111 172.271C339.49 172.154 339.884 172.09 340.281 172.081C340.641 172.141 340.982 172.281 341.281 172.491C341.63 172.716 341.964 172.963 342.281 173.231C342.951 173.761 343.601 174.361 344.221 174.941L344.531 175.241L344.901 175.051C345.651 174.681 346.431 174.331 347.201 174.051C347.575 173.886 347.959 173.743 348.351 173.621C348.441 173.621 348.541 173.561 348.621 173.551H348.751C348.908 173.57 349.06 173.618 349.201 173.691C349.929 174.085 350.616 174.551 351.251 175.081C351.941 175.541 352.601 176.101 353.271 176.641Z" fill="#263238"/>
<path d="M88.4203 427.631C88.4203 427.631 87.5803 423.711 85.9003 423.101C84.2203 422.491 83.1903 424.261 83.1903 424.261C83.1903 424.261 82.8003 420.511 80.4103 419.381C78.0203 418.251 76.2403 420.561 76.2403 420.561C76.2403 420.561 74.4103 415.801 71.1403 415.801C67.8703 415.801 66.2303 422.801 66.2303 422.801C66.2303 422.801 64.3003 420.731 62.3203 421.901C60.3403 423.071 60.3203 427.671 60.3203 427.671L88.4203 427.631Z" fill="#37474F"/>
<path d="M367.26 427.631C367.26 427.631 366.42 423.711 364.74 423.101C363.06 422.491 362.04 424.261 362.04 424.261C362.04 424.261 361.64 420.511 359.26 419.381C356.88 418.251 355.09 420.561 355.09 420.561C355.09 420.561 353.26 415.801 349.99 415.801C346.72 415.801 345.07 422.801 345.07 422.801C345.07 422.801 343.15 420.731 341.17 421.901C339.19 423.071 339.17 427.671 339.17 427.671L367.26 427.631Z" fill="#455A64"/>
<path d="M162.698 427.632H133.148C133.148 427.632 134.148 423.472 136.078 423.172C136.668 423.119 137.26 423.249 137.775 423.542C138.289 423.835 138.702 424.278 138.958 424.812C138.958 424.812 138.868 419.002 142.528 418.012C146.188 417.022 149.248 422.152 149.248 422.152C149.248 422.152 151.548 419.232 154.668 419.412C157.788 419.592 158.598 424.412 158.598 424.412C158.598 424.412 161.438 422.762 162.698 427.632Z" fill="#37474F"/>
<path d="M62.1594 427.631H46.6094C46.6094 427.631 46.6094 425.321 48.1694 424.701C48.5851 424.522 49.0478 424.483 49.4878 424.589C49.9278 424.696 50.3214 424.942 50.6094 425.291C50.6094 425.291 51.2294 421.031 54.0794 421.031C56.9294 421.031 58.2994 424.701 58.2994 424.701C58.5411 424.351 58.8802 424.079 59.2747 423.919C59.6692 423.759 60.1019 423.718 60.5194 423.801C62.0994 424.001 62.1594 427.631 62.1594 427.631Z" fill="#455A64"/>
<path d="M174.9 427.63H159.35C159.35 427.63 159.35 425.32 160.91 424.7C161.325 424.521 161.788 424.481 162.228 424.588C162.668 424.694 163.062 424.941 163.35 425.29C163.35 425.29 164 421 166.83 421C169.66 421 171 424.7 171 424.7C171.241 424.35 171.58 424.078 171.975 423.918C172.369 423.758 172.802 423.717 173.22 423.8C174.84 424 174.9 427.63 174.9 427.63Z" fill="#455A64"/>
<path d="M430.698 427.631H415.148C415.148 427.631 415.148 425.321 416.708 424.701C417.124 424.522 417.587 424.483 418.027 424.589C418.467 424.696 418.86 424.942 419.148 425.291C419.148 425.291 419.768 421.031 422.618 421.031C425.468 421.031 426.838 424.701 426.838 424.701C427.079 424.35 427.418 424.077 427.813 423.917C428.208 423.757 428.641 423.717 429.058 423.801C430.638 424.001 430.698 427.631 430.698 427.631Z" fill="#455A64"/>
<path d="M453.39 427.631H427.75C427.75 427.631 427.81 423.821 430.33 422.801C431.015 422.513 431.775 422.455 432.496 422.635C433.218 422.815 433.861 423.224 434.33 423.801C434.33 423.801 435.33 416.801 440.06 416.801C444.79 416.801 447 422.801 447 422.801C447.398 422.222 447.957 421.774 448.608 421.511C449.258 421.248 449.972 421.182 450.66 421.321C453.29 421.661 453.39 427.631 453.39 427.631Z" fill="#37474F"/>
<path d="M458.629 427.629H41.3594V434.899H458.629V427.629Z" fill="#C7C7C7"/>
<path d="M70.6188 427.629C71.272 430.008 71.272 432.52 70.6188 434.899C70.2673 433.722 70.0987 432.497 70.1188 431.269C70.1029 430.037 70.2714 428.81 70.6188 427.629Z" fill="#263238"/>
<path d="M103.23 427.629C103.578 428.81 103.746 430.037 103.73 431.269C103.75 432.497 103.582 433.722 103.23 434.899C102.577 432.52 102.577 430.008 103.23 427.629Z" fill="#263238"/>
<path d="M135.849 427.629C136.502 430.008 136.502 432.52 135.849 434.899C135.498 433.722 135.329 432.497 135.349 431.269C135.333 430.037 135.502 428.81 135.849 427.629Z" fill="#263238"/>
<path d="M168.459 427.629C168.806 428.81 168.975 430.037 168.959 431.269C168.979 432.497 168.81 433.722 168.459 434.899C167.805 432.52 167.805 430.008 168.459 427.629Z" fill="#263238"/>
<path d="M201.08 427.629C201.733 430.008 201.733 432.52 201.08 434.899C200.728 433.722 200.56 432.497 200.58 431.269C200.564 430.037 200.732 428.81 201.08 427.629Z" fill="#263238"/>
<path d="M233.689 427.629C234.037 428.81 234.205 430.037 234.189 431.269C234.209 432.497 234.041 433.722 233.689 434.899C233.036 432.52 233.036 430.008 233.689 427.629Z" fill="#263238"/>
<path d="M266.31 427.629C266.963 430.008 266.963 432.52 266.31 434.899C265.959 433.722 265.79 432.497 265.81 431.269C265.794 430.037 265.963 428.81 266.31 427.629Z" fill="#263238"/>
<path d="M298.92 427.629C299.267 428.81 299.436 430.037 299.42 431.269C299.44 432.497 299.271 433.722 298.92 434.899C298.266 432.52 298.266 430.008 298.92 427.629Z" fill="#263238"/>
<path d="M331.539 427.629C332.192 430.008 332.192 432.52 331.539 434.899C331.187 433.722 331.019 432.497 331.039 431.269C331.023 430.037 331.191 428.81 331.539 427.629Z" fill="#263238"/>
<path d="M364.15 427.629C364.497 428.81 364.666 430.037 364.65 431.269C364.67 432.497 364.502 433.722 364.15 434.899C363.497 432.52 363.497 430.008 364.15 427.629Z" fill="#263238"/>
<path d="M396.769 427.629C397.422 430.008 397.422 432.52 396.769 434.899C396.418 433.722 396.249 432.497 396.269 431.269C396.253 430.037 396.422 428.81 396.769 427.629Z" fill="#263238"/>
<path d="M429.379 427.629C429.726 428.81 429.895 430.037 429.879 431.269C429.899 432.497 429.73 433.722 429.379 434.899C428.725 432.52 428.725 430.008 429.379 427.629Z" fill="#263238"/>
<path d="M44.4492 434.898L95.8392 434.658L147.229 434.568L249.999 434.398L352.769 434.568L404.159 434.658L455.549 434.898L404.159 435.148L352.769 435.238L249.999 435.398L147.229 435.228L95.8392 435.148L44.4492 434.898Z" fill="#263238"/>
<path opacity="0.1" d="M294.456 128.698C306.707 116.447 306.707 96.5844 294.456 84.3337C282.205 72.0829 262.343 72.0829 250.092 84.3337C237.841 96.5844 237.841 116.447 250.092 128.698C262.343 140.948 282.205 140.948 294.456 128.698Z" fill="#BA68C8"/>
<path d="M272.269 126.249C283.166 126.249 291.999 117.416 291.999 106.519C291.999 95.6225 283.166 86.7891 272.269 86.7891C261.372 86.7891 252.539 95.6225 252.539 106.519C252.539 117.416 261.372 126.249 272.269 126.249Z" fill="#BA68C8"/>
</svg>
