<svg width="500" height="500" viewBox="0 0 500 500" fill="none" xmlns="http://www.w3.org/2000/svg">
<path d="M104.924 71.2617V107.92H94.7641L80.8341 91.2667V107.92H68.7891V71.2617H78.9491L92.8791 87.9147V71.2617H104.924Z" fill="#E0E0E0"/>
<path d="M420.277 262.934C420.277 254.585 426.853 248.52 435.833 248.52C444.813 248.52 451.39 254.585 451.39 262.934C451.39 271.283 444.813 277.348 435.833 277.348C426.853 277.348 420.277 271.283 420.277 262.934ZM442.016 262.934C442.016 258.641 439.259 256.042 435.832 256.042C432.405 256.042 429.649 258.641 429.649 262.934C429.649 267.227 432.406 269.827 435.832 269.827C439.258 269.827 442.016 267.227 442.016 262.934Z" fill="#E0E0E0"/>
<path d="M85.4288 331.443C85.4288 337.823 80.5457 341.84 72.8657 341.84H68.8878V348.613H59.5938V321.045H72.8657C80.5457 321.045 85.4288 325.063 85.4288 331.443ZM76.0558 331.443C76.0558 329.434 74.8348 328.213 72.2748 328.213H68.8878V334.672H72.2748C74.8348 334.672 76.0558 333.451 76.0558 331.443Z" fill="#E0E0E0"/>
<path d="M403.915 101.894C408.214 105.801 412.136 110.078 415.992 114.397C417.879 116.604 443.199 147.236 445.014 149.497L447.774 152.87C448.893 154.078 449.368 155.82 449.06 157.584C448.775 159.536 447.117 161.055 445.273 161.053C443.599 161.112 442.064 160.343 441.122 158.974L438.441 155.535C436.633 153.262 411.553 122.404 409.807 120.071C406.401 115.329 402.034 111.359 399.089 106.2C398.405 105.056 399.821 102.62 400.97 101.791C401.92 101.106 403.132 101.148 403.916 101.893L403.915 101.894Z" fill="#E0E0E0"/>
<path d="M400.793 47.6562C412.571 59.8002 415.267 78.1132 407.49 93.1362C405.533 96.9212 402.967 100.358 399.893 103.309C384.262 118.441 359.323 118.037 344.191 102.405C329.059 86.7742 329.463 61.8352 345.095 46.7032C360.725 31.5722 385.66 31.9752 400.793 47.6022V47.6552V47.6562Z" fill="#F0F0F0"/>
<path d="M340.765 42.852C323.284 59.834 322.88 87.772 339.862 105.253C356.844 122.734 384.782 123.138 402.263 106.156C419.707 89.209 420.152 61.344 403.257 43.849C386.327 26.318 358.39 25.83 340.859 42.761L340.765 42.852ZM398.34 102.239C383.095 117.005 358.766 116.617 344 101.372C329.234 86.127 329.622 61.798 344.867 47.032C360.084 32.293 384.358 32.649 399.137 47.827C413.924 63.052 413.569 87.381 398.345 102.168L398.295 102.217L398.341 102.239H398.34Z" fill="#E0E0E0"/>
<path d="M443.921 309.355H263.174C259.942 309.355 257.312 306.725 257.312 303.493V40.2194C257.312 36.9874 259.942 34.3574 263.174 34.3574H443.921C447.152 34.3574 449.783 36.9864 449.783 40.2194V303.493C449.783 306.726 447.152 309.355 443.921 309.355ZM263.174 34.6074C260.079 34.6074 257.562 37.1254 257.562 40.2194V303.493C257.562 306.588 260.08 309.105 263.174 309.105H443.921C447.016 309.105 449.533 306.588 449.533 303.493V40.2194C449.533 37.1254 447.014 34.6074 443.921 34.6074H263.174Z" fill="#E0E0E0"/>
<path d="M235.494 309.355H54.7468C51.5148 309.355 48.8848 306.725 48.8848 303.493V40.2194C48.8848 36.9874 51.5138 34.3574 54.7468 34.3574H235.494C238.726 34.3574 241.356 36.9864 241.356 40.2194V303.493C241.356 306.726 238.726 309.355 235.494 309.355ZM54.7468 34.6074C51.6528 34.6074 49.1348 37.1254 49.1348 40.2194V303.493C49.1348 306.588 51.6528 309.105 54.7468 309.105H235.494C238.589 309.105 241.106 306.588 241.106 303.493V40.2194C241.106 37.1254 238.588 34.6074 235.494 34.6074H54.7468Z" fill="#E0E0E0"/>
<path d="M500 370.424H0V370.674H500V370.424Z" fill="#E0E0E0"/>
<path d="M67.7319 384.689H51.6719V384.939H67.7319V384.689Z" fill="#E0E0E0"/>
<path d="M223.882 381.98H170.352V382.23H223.882V381.98Z" fill="#E0E0E0"/>
<path d="M104.982 393.98H68.7324V394.23H104.982V393.98Z" fill="#E0E0E0"/>
<path d="M421.542 381.85H378.352V382.1H421.542V381.85Z" fill="#E0E0E0"/>
<path d="M436.781 381.85H430.451V382.1H436.781V381.85Z" fill="#E0E0E0"/>
<path d="M370.103 388.08H316.213V388.33H370.103V388.08Z" fill="#E0E0E0"/>
<path d="M58.2022 218.993C55.5152 223.084 53.7092 227.577 52.7472 232.212L45.3652 232.907V247.202L52.7472 247.897C53.7082 252.531 55.5162 257.024 58.2022 261.116L53.4872 266.81L63.5962 276.918L69.2912 272.204C73.3822 274.89 77.8752 276.697 82.5092 277.658L83.2042 285.041H97.4992L98.1942 277.659C102.828 276.696 107.322 274.89 111.413 272.204L117.108 276.918L127.217 266.81L122.503 261.115C125.189 257.024 126.996 252.53 127.957 247.896L135.338 247.201V232.906L127.958 232.21C126.996 227.576 125.188 223.083 122.502 218.992L127.217 213.297L117.108 203.189L111.414 207.904C107.322 205.218 102.829 203.41 98.1952 202.448L97.5002 195.066H83.2042L82.5092 202.448C77.8752 203.41 73.3822 205.216 69.2912 207.903L63.5962 203.188L53.4872 213.297L58.2022 218.992V218.993ZM104.037 226.37C111.594 233.927 111.594 246.181 104.037 253.738C96.4792 261.296 84.2252 261.295 76.6682 253.738C69.1102 246.18 69.1112 233.927 76.6682 226.369C84.2252 218.812 96.4782 218.812 104.036 226.369L104.037 226.37Z" fill="#E0E0E0"/>
<path d="M386.258 358.721C384.765 360.994 383.761 363.491 383.227 366.067L379.125 366.453V374.397L383.227 374.783C383.761 377.358 384.766 379.855 386.258 382.129L383.638 385.293L389.255 390.91L392.42 388.29C394.694 389.783 397.19 390.787 399.766 391.321L400.152 395.424H408.096L408.483 391.322C411.058 390.787 413.555 389.783 415.829 388.29L418.993 390.91L424.611 385.293L421.991 382.128C423.483 379.854 424.487 377.358 425.022 374.782L429.124 374.396V366.452L425.023 366.065C424.488 363.49 423.484 360.993 421.991 358.72L424.611 355.555L418.994 349.938L415.83 352.558C413.556 351.065 411.059 350.061 408.484 349.526L408.098 345.424H400.154L399.768 349.526C397.193 350.061 394.696 351.065 392.423 352.557L389.258 349.937L383.641 355.555L386.261 358.72L386.258 358.721ZM411.729 362.821C415.928 367.021 415.929 373.83 411.729 378.03C407.529 382.23 400.72 382.23 396.52 378.03C392.32 373.83 392.32 367.021 396.52 362.821C400.72 358.622 407.529 358.621 411.729 362.821Z" fill="#E0E0E0"/>
<path d="M257.562 460.845C366.223 460.845 454.31 458.259 454.31 455.069C454.31 451.879 366.223 449.293 257.562 449.293C148.902 449.293 60.8145 451.879 60.8145 455.069C60.8145 458.259 148.902 460.845 257.562 460.845Z" fill="#F5F5F5"/>
<path d="M421.685 118.065C431.317 114.094 442.393 118.57 446.422 128.063C450.452 137.556 445.91 148.471 436.277 152.443C428.841 155.509 420.558 153.525 415.308 148.099L409.633 148.283L411.676 142.723C411.634 142.628 411.581 142.54 411.541 142.444C407.511 132.951 412.053 122.036 421.686 118.065H421.685Z" fill="#407BFF"/>
<path d="M440.787 117.96C440.734 117.96 440.681 117.943 440.636 117.909C435.861 114.266 429.101 113.207 423.411 115.214C423.281 115.26 423.139 115.192 423.093 115.061C423.047 114.931 423.114 114.788 423.245 114.742C429.088 112.68 436.033 113.767 440.938 117.511C441.048 117.594 441.069 117.752 440.986 117.862C440.936 117.926 440.862 117.96 440.787 117.96Z" fill="#407BFF"/>
<path d="M418.226 117.518C418.153 117.518 418.08 117.486 418.031 117.424C417.945 117.316 417.963 117.159 418.07 117.072C418.822 116.471 419.712 116.019 420.643 115.765C420.776 115.728 420.914 115.808 420.95 115.94C420.986 116.073 420.908 116.211 420.774 116.247C419.908 116.483 419.081 116.904 418.382 117.462C418.336 117.499 418.28 117.518 418.226 117.518Z" fill="#407BFF"/>
<path d="M428.375 144.158C427.665 144.158 427.071 143.932 426.594 143.479C426.118 143.027 425.879 142.476 425.879 141.826C425.879 141.176 426.113 140.635 426.581 140.199C427.049 139.764 427.647 139.546 428.375 139.546C429.103 139.546 429.701 139.764 430.169 140.199C430.637 140.635 430.871 141.177 430.871 141.826C430.871 142.475 430.633 143.027 430.156 143.479C429.68 143.932 429.086 144.158 428.375 144.158ZM429.987 137.726H426.763L425.957 126.016H430.793L429.987 137.726Z" fill="white"/>
<path d="M54.6053 163.195C45.4443 156.133 43.6073 142.999 50.5033 133.859C57.3993 124.719 70.4153 123.034 79.5763 130.096C86.6483 135.548 89.3333 144.614 87.0273 152.672L90.3513 158.028L83.8713 159.146C83.8033 159.239 83.7483 159.338 83.6783 159.431C76.7833 168.571 63.7663 170.256 54.6053 163.195Z" fill="#407BFF"/>
<path d="M81.272 126.673C81.219 126.673 81.166 126.656 81.12 126.622C75.81 122.571 68.294 121.395 61.972 123.626C61.842 123.671 61.699 123.604 61.653 123.473C61.607 123.343 61.675 123.2 61.806 123.154C68.282 120.869 75.982 122.073 81.424 126.224C81.533 126.307 81.555 126.465 81.471 126.575C81.422 126.639 81.347 126.673 81.272 126.673Z" fill="#407BFF"/>
<path d="M56.2244 126.184C56.1514 126.184 56.0784 126.152 56.0294 126.09C55.9434 125.982 55.9604 125.825 56.0684 125.738C56.8994 125.073 57.8834 124.573 58.9154 124.292C59.0504 124.257 59.1864 124.335 59.2224 124.468C59.2584 124.601 59.1804 124.739 59.0464 124.775C58.0804 125.038 57.1594 125.506 56.3804 126.129C56.3344 126.166 56.2794 126.184 56.2244 126.184Z" fill="#407BFF"/>
<path d="M75.3322 142.195L72.3008 139.164L60.3714 151.094L63.4028 154.125L75.3322 142.195Z" fill="white"/>
<path d="M63.1415 139.327L60.2188 142.463L72.561 153.965L75.4838 150.829L63.1415 139.327Z" fill="white"/>
<path d="M359.475 75.9082H131.03C127.302 75.9082 124.279 78.9307 124.279 82.6592V397.449C124.279 401.178 127.302 404.2 131.03 404.2H359.475C363.204 404.2 366.226 401.178 366.226 397.449V82.6592C366.226 78.9307 363.204 75.9082 359.475 75.9082Z" fill="#407BFF"/>
<path d="M143.216 84.875H132.551V395.854L356.259 397.618L362.439 390.487L357.024 97.135L143.216 84.875Z" fill="#EBEBEB"/>
<path d="M362.439 390.487H141.244V84.875H132.551V397.618H356.259L362.439 390.487Z" fill="#E0E0E0"/>
<path opacity="0.2" d="M132.551 397.617L141.244 390.486H362.439L356.259 397.617H132.551Z" fill="black"/>
<path d="M381.497 380.455H162.931C141.637 331.299 137.869 206.245 141.244 84.875H358.256C356.484 206.176 360.761 315.099 381.497 380.455Z" fill="white"/>
<path d="M382.181 380.954H162.603L162.472 380.653C137.982 324.12 138.347 171.064 140.744 84.861L140.758 84.375H358.763L358.755 84.882C356.638 229.835 364.016 323.707 381.973 380.302L382.18 380.953L382.181 380.954ZM163.261 379.954H380.815C362.996 323.251 355.663 229.594 357.749 85.375H141.731C139.352 171.431 139.023 323.465 163.26 379.954H163.261Z" fill="#263238"/>
<path d="M179.652 134.049H166.455V122.098H208.042V134.049H194.845V167.813H179.652V134.049Z" fill="#263238"/>
<path d="M220.738 153.586H336.446C337.411 153.586 337.413 152.086 336.446 152.086H220.738C219.773 152.086 219.771 153.586 220.738 153.586Z" fill="#263238"/>
<path d="M170.689 184.877H336.445C337.41 184.877 337.412 183.377 336.445 183.377H170.689C169.724 183.377 169.722 184.877 170.689 184.877Z" fill="#263238"/>
<path d="M170.689 212.219H251.191C252.156 212.219 252.158 210.719 251.191 210.719H170.689C169.724 210.719 169.722 212.219 170.689 212.219Z" fill="#263238"/>
<path d="M173.904 239.562H286.154C287.119 239.562 287.121 238.062 286.154 238.062H173.904C172.939 238.062 172.937 239.562 173.904 239.562Z" fill="#263238"/>
<path d="M177.119 266.904H234.292C235.257 266.904 235.259 265.404 234.292 265.404H177.119C176.154 265.404 176.152 266.904 177.119 266.904Z" fill="#263238"/>
<path d="M244.244 266.904H338.42C339.385 266.904 339.387 265.404 338.42 265.404H244.244C243.279 265.404 243.277 266.904 244.244 266.904Z" fill="#263238"/>
<path d="M180.332 294.246H248.485C249.45 294.246 249.452 292.746 248.485 292.746H180.332C179.367 292.746 179.365 294.246 180.332 294.246Z" fill="#407BFF"/>
<path d="M183.545 321.59H291.64C292.605 321.59 292.607 320.09 291.64 320.09H183.545C182.58 320.09 182.578 321.59 183.545 321.59Z" fill="#263238"/>
<path d="M189.078 351.932H262.209C263.174 351.932 263.176 350.432 262.209 350.432H189.078C188.113 350.432 188.111 351.932 189.078 351.932Z" fill="#263238"/>
<path d="M283.879 133.403C277.175 132.206 270.295 132.37 263.667 133.953C257.768 135.361 251.424 137.788 247.159 142.273C243.341 146.288 241.359 152.644 244.153 157.778C246.721 162.496 252.343 164.263 257.327 164.946C264.154 165.881 271.17 165.597 277.929 164.288C283.735 163.164 290.582 161.501 294.802 157.04C298.284 153.36 299.265 147.977 298.358 143.106C297.417 138.054 294.332 134.242 289.975 131.654C284.567 128.442 278.112 127.643 271.936 128.25C264.243 129.006 256.704 131.319 249.787 134.737C248.922 135.165 249.681 136.459 250.544 136.032C256.226 133.225 262.304 131.246 268.558 130.207C274.063 129.293 279.792 129.189 285.123 131.044C289.315 132.503 293.47 135.213 295.514 139.265C297.609 143.419 297.839 148.805 295.783 153.019C293.328 158.05 287.818 160.169 282.754 161.601C276.599 163.341 270.198 164.133 263.805 163.96C258.659 163.821 252.672 163.408 248.352 160.274C243.628 156.847 243.404 150.536 246.298 145.813C249.663 140.32 256.37 137.517 262.31 135.856C269.188 133.933 276.454 133.596 283.483 134.851C284.427 135.02 284.832 133.574 283.882 133.405L283.879 133.403Z" fill="#407BFF"/>
<path d="M265.643 334.686C254.951 333.078 243.741 334.798 234.162 339.889C230.22 341.984 225.944 346.208 228.203 351.062C230.399 355.781 236.457 356.522 240.939 357.556C252.352 360.19 264.145 362.364 275.857 360.506C280.534 359.764 286.107 358.567 289.784 355.359C293.29 352.3 292.909 347.768 289.871 344.522C286.137 340.533 280.199 338.663 274.955 337.822C269.12 336.887 263.191 337.077 257.311 337.333C256.349 337.375 256.344 338.875 257.311 338.833C266.396 338.438 276.257 338.034 284.529 342.459C287.972 344.301 292.843 348.318 290.138 352.68C287.846 356.375 282.3 357.635 278.379 358.506C268.192 360.769 257.625 359.541 247.52 357.467C244.897 356.929 242.287 356.333 239.68 355.723C237.236 355.15 234.617 354.709 232.427 353.417C230.539 352.303 228.972 350.386 229.111 348.087C229.268 345.472 231.239 343.439 233.331 342.103C237.828 339.231 243.243 337.485 248.451 336.475C253.976 335.404 259.682 335.295 265.246 336.131C266.19 336.273 266.598 334.828 265.645 334.685L265.643 334.686Z" fill="#407BFF"/>
<path d="M304.773 341.277H350.411C351.376 341.277 351.378 339.777 350.411 339.777H304.773C303.808 339.777 303.806 341.277 304.773 341.277Z" fill="#407BFF"/>
<path d="M307.965 345.162H348.497C349.462 345.162 349.464 343.662 348.497 343.662H307.965C307 343.662 306.998 345.162 307.965 345.162Z" fill="#407BFF"/>
<path d="M218.733 70.8926H282.248C286.447 70.8926 289.856 74.3016 289.856 78.5006V95.7166H211.125V78.5006C211.125 74.3016 214.534 70.8926 218.733 70.8926Z" fill="#263238"/>
<path d="M236.172 73.5999L232.498 61.7969H270.767L266.466 74.0799L236.172 73.5999Z" fill="#263238"/>
<path d="M206.404 70.8848H150.824V71.6348H206.404V70.8848Z" fill="#407BFF"/>
<path d="M194.367 195.664C203.002 188.94 211.105 181.558 219.74 174.834C220.501 174.242 219.432 173.187 218.679 173.773C210.044 180.497 201.941 187.879 193.306 194.603C192.545 195.195 193.614 196.25 194.367 195.664Z" fill="#407BFF"/>
<path d="M192.2 175.054C191.951 175.038 192.056 175.013 192.319 175.178C192.6 175.354 192.867 175.552 193.13 175.753C193.881 176.327 194.601 176.944 195.317 177.559C197.56 179.485 199.745 181.481 201.92 183.483C206.526 187.722 211.072 192.028 215.597 196.354C216.626 197.338 217.654 198.323 218.679 199.311C219.374 199.981 220.436 198.922 219.74 198.25C212.091 190.871 204.443 183.423 196.378 176.498C195.537 175.776 194.689 175.056 193.8 174.391C193.334 174.042 192.807 173.592 192.2 173.553C191.236 173.49 191.24 174.99 192.2 175.053V175.054Z" fill="#407BFF"/>
<path d="M259.996 294.248H343.014C343.979 294.248 343.981 292.748 343.014 292.748H259.996C259.031 292.748 259.029 294.248 259.996 294.248Z" fill="#263238"/>
<path d="M304.775 321.592H348.499C349.464 321.592 349.466 320.092 348.499 320.092H304.775C303.81 320.092 303.808 321.592 304.775 321.592Z" fill="#263238"/>
<path d="M301.041 239.562H338.419C339.384 239.562 339.386 238.062 338.419 238.062H301.041C300.076 238.062 300.074 239.562 301.041 239.562Z" fill="#263238"/>
<path d="M260.828 212.219H293.351C294.316 212.219 294.318 210.719 293.351 210.719H260.828C259.863 210.719 259.861 212.219 260.828 212.219Z" fill="#407BFF"/>
<path d="M304.775 212.051H338.422C339.387 212.051 339.389 210.551 338.422 210.551H304.775C303.81 210.551 303.808 212.051 304.775 212.051Z" fill="#263238"/>
<path d="M341.708 253.912C345.42 257.257 347.495 262.191 347.167 267.196C346.846 272.095 344.144 276.716 340.106 279.478C339.314 280.02 340.064 281.32 340.864 280.773C345.267 277.761 348.159 272.897 348.639 267.573C349.133 262.09 346.838 256.519 342.769 252.851C342.054 252.206 340.989 253.264 341.708 253.912Z" fill="#407BFF"/>
<path d="M349.425 276.831C347.997 277.435 346.57 278.039 345.142 278.643L343.001 279.549C342.449 279.783 341.844 280.12 341.235 280.16C340.705 280.196 340.659 279.814 340.701 279.365C340.763 278.687 340.958 278.004 341.093 277.337C341.403 275.798 341.714 274.258 342.024 272.719C342.214 271.776 340.768 271.373 340.578 272.32C340.211 274.142 339.843 275.964 339.476 277.786C339.209 279.109 338.783 281.081 340.533 281.581C341.205 281.773 341.932 281.599 342.564 281.348C343.386 281.022 344.194 280.66 345.009 280.315C346.734 279.585 348.459 278.855 350.184 278.126C350.56 277.967 350.635 277.419 350.453 277.1C350.232 276.711 349.798 276.674 349.427 276.831H349.425Z" fill="#407BFF"/>
<path d="M147.678 70.8848H139.033V71.6348H147.678V70.8848Z" fill="#407BFF"/>
<path d="M440.626 356.432C435.072 349.806 435.194 340.558 440.898 335.777C446.602 330.996 455.729 332.492 461.283 339.118C466.837 345.744 466.715 354.992 461.011 359.773C455.307 364.554 446.18 363.058 440.626 356.432Z" fill="#407BFF"/>
<path d="M288.39 174.856L280.24 145.576L309.031 157.555L460.535 338.304L439.894 355.605L288.39 174.856Z" fill="#407BFF"/>
<path d="M287.848 148.729C287.206 151.666 285.399 153.205 282.395 153.325L288.392 174.857C288.392 174.857 294.069 178.014 293.753 170.895C293.753 170.895 299.952 172.991 299.639 165.962C299.639 165.962 305.023 167.256 304.773 161.658C304.773 161.658 309.254 162.523 309.033 157.556L287.848 148.729Z" fill="#EF8274"/>
<path opacity="0.3" d="M299.727 165.924L452.339 345.595L457.144 341.567C457.721 340.702 304.862 161.621 304.862 161.621C305.111 167.218 299.728 165.925 299.728 165.925L299.727 165.924Z" fill="white"/>
<path opacity="0.3" d="M293.818 170.943C293.993 174.869 292.345 175.668 290.832 175.596L442.377 354.011L447.182 349.983C447.731 349.16 309.183 186.774 295.919 171.231C294.776 171.265 293.818 170.943 293.818 170.943Z" fill="white"/>
<path d="M441.25 358.312L463.113 339.986L460.156 336.459L438.293 354.785L441.25 358.312Z" fill="#263238"/>
<path d="M404.103 425.443L404.123 444.376L394.592 445.059L391.242 427.272C395.601 424.368 399.891 423.675 404.102 425.442L404.103 425.443Z" fill="#FFB463"/>
<path d="M403.792 442.277C404.73 444.776 404.791 455 404.791 455L384.588 455.022C383.388 451.325 385.245 448.801 387.601 448.466C388.614 448.323 389.805 447.285 390.673 446.377C390.679 446.259 391.914 440.58 392.678 440.309C392.678 440.309 393.204 439.718 393.652 440.308C394.1 440.897 394.489 442.817 394.489 442.817C397.643 438.906 400.733 439.428 403.791 442.278L403.792 442.277Z" fill="#263238"/>
<path d="M404.036 445.244C401.753 444.404 399.304 444.723 397.313 446.12C396.965 446.365 396.634 445.793 396.98 445.551C399.1 444.063 401.78 443.714 404.211 444.609C404.606 444.754 404.435 445.392 404.036 445.245V445.244Z" fill="white"/>
<path d="M384.65 453.525L404.556 453.503C404.738 453.503 404.886 453.355 404.886 453.173C404.886 452.991 404.738 452.844 404.556 452.844L384.65 452.866C384.468 452.866 384.32 453.014 384.32 453.196C384.32 453.378 384.468 453.525 384.65 453.525Z" fill="white"/>
<path d="M362.622 422.974L362.645 444.343L353.474 445.041L348.963 425.039C352.645 422.306 356.921 420.967 362.622 422.974Z" fill="#FFB463"/>
<path d="M363.005 442.32C363.943 444.819 364.004 455.042 364.004 455.042L340.794 455.067C339.594 451.37 342.102 449.178 344.458 448.843C345.471 448.701 349.018 447.326 349.887 446.419C349.893 446.301 351.128 440.622 351.892 440.351C351.892 440.351 352.418 439.76 352.866 440.351C353.314 440.941 353.703 442.86 353.703 442.86C356.857 438.949 359.947 439.471 363.005 442.321V442.32Z" fill="#263238"/>
<path d="M362.888 445.289C360.605 444.449 358.156 444.768 356.165 446.164C355.817 446.409 355.486 445.837 355.832 445.594C357.952 444.106 360.632 443.757 363.063 444.652C363.458 444.798 363.287 445.435 362.888 445.288V445.289Z" fill="white"/>
<path d="M340.795 453.573L363.77 453.548C363.952 453.548 364.1 453.4 364.1 453.218C364.1 453.036 363.952 452.889 363.77 452.889L340.795 452.914C340.613 452.914 340.465 453.062 340.465 453.244C340.465 453.426 340.613 453.573 340.795 453.573Z" fill="white"/>
<path d="M405.92 435.956L387.166 437.069C382.959 421.862 378.8 367.335 378.37 350.965C377.856 331.405 371.577 282.314 377.129 272.099C382.682 261.884 407.798 270.019 407.798 270.019C407.798 270.019 404.668 329.793 405.92 348.856C407.004 365.378 408.682 413.945 405.92 435.955V435.956Z" fill="#263238"/>
<path d="M368.464 435.957L349.872 437.07C347.609 420.236 338.515 358.928 339.262 347.184C340.174 332.839 350.943 270.747 354.947 265.96C358.951 261.172 388.268 273.582 388.268 273.582C388.268 273.582 376.219 326.976 366.719 350.07C364.746 354.867 369.99 415.482 368.464 435.957Z" fill="#263238"/>
<g opacity="0.3">
<path d="M381.15 309.312C381.506 308.44 381.863 307.568 382.193 306.681C383.96 301.936 385.297 296.997 386.358 291.959C389.416 291.595 392.437 290.848 395.381 289.723C395.754 289.581 395.594 288.87 395.219 289.013C390.563 290.791 385.725 291.616 380.843 291.464C380.45 291.452 380.451 292.188 380.843 292.2C382.472 292.251 384.096 292.183 385.712 292.02C384.648 297.025 383.316 301.936 381.541 306.644C379.764 311.358 377.608 315.843 375.382 320.264C375.177 320.671 375.705 321.04 375.908 320.636C377.548 317.379 379.144 314.083 380.584 310.691C380.717 314.737 381.12 327.24 381.573 343.805C382.355 372.391 388.364 418.87 390.043 431.405H390.661C389.008 419.068 382.966 372.42 382.182 343.78C381.646 324.199 381.18 310.283 381.148 309.313L381.15 309.312Z" fill="white"/>
<path d="M403.37 348.345C397.963 347.991 392.549 348.167 387.166 348.871C386.779 348.922 386.777 349.658 387.166 349.607C392.549 348.903 397.964 348.727 403.37 349.081C403.763 349.107 403.76 348.37 403.37 348.345Z" fill="white"/>
<path d="M342.602 348.41C343.022 339.436 352.276 301.343 352.369 300.96C352.416 300.765 352.324 300.56 352.163 300.503C352.002 300.446 351.832 300.557 351.785 300.752C351.403 302.322 342.417 339.31 341.994 348.368C341.63 356.159 351.278 428.188 351.689 431.251C351.713 431.432 351.843 431.56 351.989 431.56C352.005 431.56 352.022 431.559 352.038 431.555C352.204 431.522 352.317 431.333 352.29 431.132C352.189 430.383 342.241 356.12 342.602 348.409V348.41Z" fill="white"/>
<path d="M347.86 297.016C354.831 293.838 357.085 284.601 358.745 276.702C358.842 276.242 358.254 276.047 358.157 276.506C356.559 284.108 354.438 293.233 347.698 296.306C347.334 296.472 347.493 297.184 347.86 297.016Z" fill="white"/>
<path d="M363.466 349.053C358.935 348.709 354.404 348.364 349.873 348.02C349.481 347.99 349.483 348.727 349.873 348.756C354.404 349.1 358.935 349.445 363.466 349.789C363.858 349.819 363.856 349.082 363.466 349.053Z" fill="white"/>
</g>
<path d="M370.373 150.632C369.921 150.525 369.445 151.025 369.302 151.715C369.159 152.405 369.409 153.024 369.861 153.131C370.313 153.238 370.789 152.738 370.932 152.048C371.122 151.358 370.825 150.739 370.373 150.632Z" fill="#263238"/>
<path d="M369.1 159.76C367.903 159.824 366.739 159.353 365.922 158.475C367.654 156.944 369.168 155.181 370.421 153.238L369.1 159.76Z" fill="#F98412"/>
<path d="M373.919 148.584C373.221 147.792 372.186 147.38 371.134 147.477C370.909 147.506 370.7 147.355 370.658 147.132C370.622 146.905 370.777 146.693 371.003 146.656C372.346 146.501 373.679 147.012 374.574 148.025C374.733 148.187 374.733 148.446 374.574 148.608C374.496 148.681 374.395 148.723 374.288 148.727C374.148 148.749 374.007 148.695 373.919 148.584Z" fill="#263238"/>
<path d="M378.468 172.188C379.706 177.163 379.896 182.448 372.755 184.15C372.755 184.15 365.911 190.637 379.004 190.637C390.895 190.637 392.645 184.15 392.645 184.15C388.17 179.889 389.42 168.164 390.669 161.773L378.468 172.188Z" fill="#FFB463"/>
<path d="M394.556 149.776C393.299 143.364 387.082 139.185 380.669 140.442C371.671 142.132 367.957 154.499 368.231 162.498C368.529 171.378 378.217 177.4 386.002 172.151C391.192 168.663 392.084 163.652 394.334 155.261C394.837 153.475 394.913 151.596 394.556 149.776Z" fill="#FFB463"/>
<path d="M399.855 148.763C401.607 147.722 401.802 143.391 399.724 140.811C399.968 142.334 399.827 143.564 399.513 144.556C398.775 142.015 396.389 139.316 393.928 138.823C387.977 137.633 383.406 132.277 381.49 129.396C380.574 132.527 383.168 135.502 383.168 135.502C381.323 135.454 376.217 133.074 375.276 130.884C374.695 133.175 374.996 135.602 376.121 137.681C373.74 137.164 371.252 137.726 369.324 139.216C370.92 139.122 372.472 139.762 373.538 140.954C372.267 141.264 370.94 141.264 369.67 140.954C371.195 143.356 373.519 145.069 376.728 145.741C373.771 147.709 375.431 152.493 376.169 155.261C372.884 159.772 377.716 163.129 378.895 166.783C379.8 169.687 386.906 171.389 390.226 169.866C391.964 169.081 392.142 167.14 394.797 164.117C396.933 161.684 400.681 156.904 399.855 151.309C400.358 151.888 400.915 152.693 401.486 153.833C401.572 151.786 400.834 149.499 399.855 148.763Z" fill="#263238"/>
<path d="M376.706 150.858C374.195 151.596 372.838 155.226 372.695 157.547C372.528 160.094 374.23 161.784 376.504 160.094C378.236 158.792 379.491 156.955 380.075 154.869C380.718 152.358 379.218 150.12 376.706 150.858Z" fill="#FFB463"/>
<path d="M372.805 183.864C372.805 183.864 375.879 182.606 374.486 180.142C379.009 178.821 389.789 178.938 392.169 179.64C394.347 180.283 396.246 182.673 395.282 184.447L372.805 183.864Z" fill="#263238"/>
<path opacity="0.8" d="M372.805 183.864C372.805 183.864 375.879 182.606 374.486 180.142C379.009 178.821 389.789 178.938 392.169 179.64C394.347 180.283 396.246 182.673 395.282 184.447L372.805 183.864Z" fill="white"/>
<path d="M409.564 217.485C409.564 217.485 416.54 229.739 416.41 230.299L395.941 244.411L398.087 251.057C398.087 251.057 425.271 241.947 427.79 233.196C430.309 224.445 419.438 208.271 419.438 208.271L409.564 217.485Z" fill="#FFB463"/>
<path d="M400.472 243.796C400.472 243.796 398.948 241.289 396.585 240.742C394.222 240.195 392.48 239.129 390.695 238.844C388.91 238.559 390.481 240.425 391.518 241.249C392.555 242.073 393.722 243.017 392.977 243.696C392.233 244.375 383.773 246.253 382.848 247.312C381.923 248.371 383.386 248.495 383.386 248.495C383.386 248.495 381.344 249.007 381.326 249.871C381.321 250.095 381.675 250.625 382.642 250.538C384.818 250.342 389.364 249.694 389.364 249.694C389.102 249.726 383.549 250.925 382.74 251.214C381.684 251.591 381.377 252.307 381.616 252.913C381.955 253.775 388.892 252.522 389.221 252.674C389.221 252.674 385.203 253.261 384.788 254.382C384.372 255.502 386.921 255.27 389.13 254.639C391.155 254.06 395.279 253.455 397.28 252.667C399.746 251.696 401.184 250.49 401.311 248.008C401.438 245.525 400.472 243.799 400.472 243.799V243.796Z" fill="#FFB463"/>
<path opacity="0.3" d="M383.643 248.499C383.585 248.499 383.534 248.459 383.521 248.401C383.506 248.334 383.548 248.267 383.616 248.252C385.255 247.885 386.935 247.588 388.611 247.37C388.69 247.36 388.743 247.41 388.752 247.478C388.761 247.546 388.713 247.609 388.645 247.618C386.976 247.835 385.303 248.131 383.671 248.496C383.662 248.498 383.652 248.499 383.644 248.499H383.643Z" fill="black"/>
<path opacity="0.3" d="M390.79 252.621C390.745 252.621 390.702 252.597 390.68 252.555C389.655 250.612 389.211 248.339 389.433 246.155C389.439 246.087 389.497 246.038 389.57 246.043C389.638 246.05 389.688 246.111 389.681 246.18C389.465 248.316 389.898 250.538 390.901 252.437C390.933 252.499 390.91 252.574 390.849 252.606C390.83 252.616 390.81 252.621 390.79 252.621Z" fill="black"/>
<path opacity="0.3" d="M397.404 246.996C396.724 246.996 396.039 246.823 395.449 246.493C394.653 246.048 394.009 245.306 393.68 244.457C393.655 244.393 393.687 244.32 393.751 244.295C393.817 244.27 393.889 244.303 393.912 244.367C394.22 245.162 394.824 245.858 395.569 246.275C396.315 246.692 397.223 246.842 398.064 246.686C398.131 246.673 398.196 246.718 398.21 246.786C398.223 246.854 398.178 246.919 398.109 246.932C397.878 246.974 397.641 246.996 397.404 246.996Z" fill="black"/>
<path d="M398.06 205.326C399.523 211.38 402.533 216.95 406.797 221.49L423.247 208.944C423.247 208.944 412.825 186.653 404.623 184.772C396.243 182.844 395.251 194.352 398.06 205.326Z" fill="#263238"/>
<path opacity="0.8" d="M398.06 205.326C399.523 211.38 402.533 216.95 406.797 221.49L423.247 208.944C423.247 208.944 412.825 186.653 404.623 184.772C396.243 182.844 395.251 194.352 398.06 205.326Z" fill="white"/>
<path d="M403.476 184.391C411.808 186.462 410.618 198.606 410.618 210.377C410.618 228.426 410.796 258.673 409.987 276.028C409.968 277.311 406.613 278.674 405.441 278.881C395.395 280.27 367.554 280.617 358.318 278.623C357.242 278.357 349.114 276.746 349.047 275.556C361.291 255.595 353.676 202.119 354.307 195.687C354.974 189.023 357.176 187.004 359.461 185.884C368.388 181.484 397.36 182.835 403.478 184.392L403.476 184.391Z" fill="#263238"/>
<path opacity="0.8" d="M403.476 184.391C411.808 186.462 410.618 198.606 410.618 210.377C410.618 228.426 410.796 258.673 409.987 276.028C409.968 277.311 406.613 278.674 405.441 278.881C395.395 280.27 367.554 280.617 358.318 278.623C357.242 278.357 349.114 276.746 349.047 275.556C361.291 255.595 353.676 202.119 354.307 195.687C354.974 189.023 357.176 187.004 359.461 185.884C368.388 181.484 397.36 182.835 403.478 184.392L403.476 184.391Z" fill="white"/>
<path d="M355.484 198.611C355.055 200.658 354.591 202.896 354.091 205.074C353.591 207.252 353.044 209.407 352.496 211.549C351.441 215.741 350.138 219.867 348.592 223.904C347.903 225.69 347.063 227.415 346.081 229.058C345.739 229.647 345.34 230.201 344.891 230.712L344.57 231.045L344.225 231.366C344.046 231.568 343.999 231.699 343.713 231.818C343.222 231.926 342.71 231.876 342.249 231.675C341.475 231.373 340.743 230.973 340.071 230.485C339.654 230.235 339.25 229.926 338.881 229.64C338.748 229.537 338.605 229.422 338.463 229.307C337.522 224.316 331.442 222.296 331.442 222.296L326.098 219.839L326.157 228.962L327.811 231.14L332.52 233.466C332.582 233.628 332.646 233.788 332.715 233.949C332.989 234.592 333.322 235.223 333.667 235.853C334.438 237.177 335.401 238.381 336.524 239.424C337.88 240.709 339.507 241.673 341.285 242.245C343.346 242.874 345.538 242.931 347.629 242.412C348.13 242.294 348.623 242.142 349.105 241.96C349.573 241.786 350.03 241.583 350.474 241.353C351.361 240.872 352.191 240.293 352.95 239.627C354.179 238.567 355.282 237.369 356.235 236.056C357.814 233.836 359.173 231.468 360.294 228.986C362.341 224.462 364.032 219.786 365.353 215C366.02 212.667 366.591 210.37 367.127 207.989C367.663 205.608 368.151 203.359 368.555 200.847L355.486 198.609L355.484 198.611Z" fill="#FFB463"/>
<path d="M352.543 193.673C349.586 200.763 347.43 208.161 346.115 215.729L364.933 225.561C364.933 225.561 381.847 209.421 374.705 195.137C370.622 186.912 358.029 181.496 352.542 193.673H352.543Z" fill="#263238"/>
<path opacity="0.8" d="M352.543 193.673C349.586 200.763 347.43 208.161 346.115 215.729L364.933 225.561C364.933 225.561 381.847 209.421 374.705 195.137C370.622 186.912 358.029 181.496 352.542 193.673H352.543Z" fill="white"/>
<path d="M120.081 423.656L117.219 445.877H110.487L108.758 424.068L120.081 423.656Z" fill="#EF8274"/>
<path d="M120.037 441.176H117.029C116.348 441.176 115.719 441.52 115.316 442.07C113.581 444.439 112.277 443.544 110.39 441.316C109.19 441.176 108.866 442.553 108.769 442.923L106.52 451.104C106.325 451.787 106.721 452.499 107.404 452.695C107.525 452.73 107.651 452.746 107.778 452.744H131.614C135.405 452.744 136.191 448.924 134.629 448.57C127.607 447.018 122.634 444.952 120.463 442.909C120.061 442.551 120.474 442.284 120.037 441.176Z" fill="#263238"/>
<path d="M126.183 443.452C126.5 443.224 126.689 442.86 126.694 442.47C126.721 442.261 126.625 442.055 126.449 441.94C125.506 441.272 121.745 443.03 121.322 443.237C121.275 443.254 121.238 443.291 121.221 443.338C121.19 443.425 121.235 443.52 121.322 443.552C122.246 443.771 123.191 443.893 124.141 443.915C124.854 443.983 125.569 443.821 126.184 443.453L126.183 443.452ZM126.212 442.224C126.289 442.272 126.328 442.361 126.31 442.45C126.294 442.731 126.158 442.992 125.937 443.167C125.083 443.805 123.02 443.53 121.91 443.324C123.472 442.637 125.691 441.861 126.212 442.224Z" fill="#407BFF"/>
<path d="M121.448 443.59C122.577 443.119 124.944 441.262 124.817 440.28C124.797 440.074 124.65 439.828 124.139 439.759C122.077 439.523 121.193 443.226 121.193 443.383C121.173 443.446 121.192 443.516 121.242 443.56C121.28 443.571 121.321 443.571 121.36 443.56L121.448 443.59ZM124.07 440.064C124.453 440.103 124.453 440.241 124.453 440.29C124.561 440.889 122.842 442.431 121.615 443.079C121.87 442.215 122.626 440.054 123.933 440.054L124.07 440.064Z" fill="#407BFF"/>
<path d="M89.3011 422.498L82.7411 444.799L76.0781 444.41L77.4861 420.209L89.3011 422.498Z" fill="#EF8274"/>
<path d="M86.0766 441.529H83.0676C82.3866 441.529 81.7576 441.873 81.3546 442.423C79.6196 444.792 78.3156 443.897 76.4286 441.669C75.2286 441.529 74.9056 442.906 74.8086 443.276L72.5596 451.457C72.3646 452.14 72.7596 452.852 73.4426 453.048C73.5636 453.083 73.6896 453.099 73.8166 453.097H97.6526C101.444 453.097 102.23 449.277 100.668 448.923C93.6456 447.371 88.6736 445.305 86.5026 443.262C86.1006 442.904 86.5146 442.637 86.0766 441.529Z" fill="#263238"/>
<path d="M92.2228 443.803C92.5398 443.575 92.7288 443.211 92.7338 442.821C92.7598 442.612 92.6648 442.406 92.4878 442.291C91.5448 441.623 87.7838 443.381 87.3608 443.587C87.3138 443.604 87.2768 443.641 87.2598 443.688C87.2288 443.775 87.2738 443.871 87.3608 443.902C88.2848 444.121 89.2298 444.243 90.1798 444.265C90.8928 444.333 91.6078 444.171 92.2228 443.804V443.803ZM92.2528 442.575C92.3298 442.623 92.3688 442.712 92.3508 442.801C92.3348 443.082 92.1988 443.344 91.9778 443.518C91.1238 444.156 89.0608 443.881 87.9508 443.675C89.5118 442.988 91.7318 442.212 92.2528 442.575Z" fill="#407BFF"/>
<path d="M87.4894 443.942C88.6184 443.471 90.9854 441.614 90.8584 440.632C90.8384 440.426 90.6914 440.18 90.1804 440.112C88.1184 439.876 87.2344 443.579 87.2344 443.736C87.2144 443.799 87.2334 443.869 87.2834 443.913C87.3214 443.924 87.3624 443.924 87.4014 443.913L87.4894 443.942ZM90.1114 440.416C90.4944 440.455 90.4944 440.593 90.4944 440.642C90.6024 441.241 88.8834 442.783 87.6564 443.431C87.9114 442.567 88.6684 440.406 89.9744 440.406L90.1114 440.416Z" fill="#407BFF"/>
<path d="M123.805 257.418C123.805 257.418 131.899 273.686 124.114 303.6C116.329 333.514 89.0428 438.2 89.0428 438.2L72.5098 436.214C72.5098 436.214 73.9318 398.518 86.2618 368.376C86.2618 368.376 93.1558 309.497 92.0448 307.72C90.0298 299.294 87.9498 290.377 91.4298 277.612C92.7908 272.149 94.7148 266.738 97.0858 261.632C99.3758 257.053 98.6998 255.324 98.6998 255.324L123.806 257.419L123.805 257.418Z" fill="#407BFF"/>
<path opacity="0.5" d="M123.805 257.418C123.805 257.418 131.899 273.686 124.114 303.6C116.329 333.514 89.0428 438.2 89.0428 438.2L72.5098 436.214C72.5098 436.214 73.9318 398.518 86.2618 368.376C86.2618 368.376 93.1558 309.497 92.0448 307.72C90.0298 299.294 87.9498 290.377 91.4298 277.612C92.7908 272.149 94.7148 266.738 97.0858 261.632C99.3758 257.053 98.6998 255.324 98.6998 255.324L123.806 257.419L123.805 257.418Z" fill="black"/>
<path opacity="0.5" d="M103.818 298.278C103.818 298.278 109.96 310.105 112.743 312.073C115.113 313.749 114.17 333.409 114.327 338.969C114.339 339.386 114.355 341.068 114.355 341.068L111.846 350.699C112.038 350.148 112.298 333.395 110.297 315.784C109.623 309.853 103.819 305.036 103.819 298.277L103.818 298.278Z" fill="black"/>
<path d="M134.464 254.922C134.722 256.933 135.269 258.895 136.09 260.749C138.826 267.698 141.814 289.552 141.15 300.611C139.885 323.536 141.938 330.111 134.865 372.663C132.198 388.707 126.131 409.666 121.162 438.835H105.602C105.602 438.835 106.314 402.304 113.515 370.147C113.515 370.147 116.045 324.836 112.279 313.021C109.646 304.801 102.228 296.845 104.128 279.467C106.028 262.089 110.642 256.147 110.642 256.147L134.465 254.922H134.464Z" fill="#407BFF"/>
<path opacity="0.5" d="M134.464 254.922C134.722 256.933 135.269 258.895 136.09 260.749C138.826 267.698 141.814 289.552 141.15 300.611C141.222 314.33 140.871 344.268 134.865 372.663C127.659 406.73 121.162 438.835 121.162 438.835H105.602C105.602 438.835 106.314 402.304 113.515 370.147C113.515 370.147 116.045 324.836 112.279 313.021C109.646 304.801 102.228 296.845 104.128 279.467C106.028 262.089 110.642 256.147 110.642 256.147L134.465 254.922H134.464Z" fill="black"/>
<path d="M82.7745 217.43C82.7745 217.43 69.3685 244.997 74.9665 247.264C80.5645 249.531 99.4315 250.801 99.4315 250.801L107.662 258.677L112.424 255.575L111.222 247.561L100.404 245.271L85.9575 240.783C84.7585 240.381 84.1125 239.083 84.5145 237.884C84.5345 237.823 84.5585 237.762 84.5835 237.703L91.5665 222.385L82.7745 217.428V217.43Z" fill="#EF8274"/>
<path d="M118.581 170.903C118.501 170.179 118.824 169.539 119.309 169.498C119.793 169.457 120.231 170 120.309 170.735C120.387 171.47 120.066 172.099 119.581 172.14C119.097 172.181 118.648 171.636 118.581 170.903Z" fill="#263238"/>
<path d="M118.312 171.949L123.029 176.28C121.988 177.39 120.484 177.945 118.971 177.777L118.312 171.95V171.949Z" fill="#D7504D"/>
<path d="M117.119 169.317C117.26 169.297 117.384 169.211 117.451 169.086C117.928 168.099 118.848 167.399 119.927 167.202C120.159 167.176 120.327 166.967 120.301 166.734C120.281 166.497 120.074 166.32 119.837 166.337C118.47 166.566 117.297 167.438 116.686 168.682C116.572 168.883 116.64 169.139 116.839 169.256C116.919 169.316 117.021 169.339 117.119 169.318V169.317Z" fill="#263238"/>
<path d="M93.4148 174.226C95.4738 183.28 96.1528 187.158 101.544 191.097C109.398 194.72 120.351 192.512 121.025 183.004C121.643 174.462 118.175 161.121 108.605 158.901C101.788 157.314 94.9758 161.554 93.3888 168.371C92.9398 170.298 92.9488 172.303 93.4148 174.226Z" fill="#EF8274"/>
<path opacity="0.2" d="M111.074 188.718C111.074 188.718 116.972 191.05 120.349 186.141C118.76 190.288 114.7 192.378 110.213 192.693L108.922 191.392L110.11 189.36L111.074 188.718Z" fill="black"/>
<path d="M97.4453 200.705C97.4453 200.705 103.204 199.058 101.187 188.279C101.187 188.279 106.162 184.841 110.239 187.406C114.316 189.971 108.96 198.609 113.878 200.964C113.878 200.964 110.518 204.213 97.4453 200.705Z" fill="#EF8274"/>
<path d="M112.634 175.424C111.511 173.865 114.679 171.243 113.878 169.496C114.009 164.9 113.127 165.301 113.27 160.396C113.413 155.491 107.969 157.519 107.969 157.519C107.969 157.519 96.2642 154.034 92.4722 166.161C86.8752 172.18 87.2172 181.597 93.2362 187.194C95.9892 189.754 99.6091 191.177 103.368 191.178L104.189 191.139C107.568 190.671 110.264 188.083 110.869 184.726L112.634 175.424Z" fill="#263238"/>
<path d="M95.0878 169.549C95.4008 166.686 95.0708 164.301 92.2078 163.988C89.3448 163.675 88.7588 165.977 88.4458 168.84C88.1328 171.703 88.2348 174.059 91.0998 174.361C93.9648 174.663 94.7638 172.41 95.0878 169.549Z" fill="#407BFF"/>
<path d="M110.205 174.434C111.816 175.437 112.958 177.044 113.374 178.895C113.918 181.318 111.679 182.465 109.39 181.672C107.352 180.971 104.64 178.836 105.108 176.407C105.448 174.657 107.142 173.513 108.893 173.853C109.368 173.945 109.817 174.143 110.205 174.433V174.434Z" fill="#EF8274"/>
<path d="M112.542 156.522C111.552 157.508 110.471 159.002 111.125 160.293C111.493 161.033 112.332 161.415 112.815 162.095C113.276 162.895 113.469 163.822 113.366 164.74C113.329 168.081 113.022 171.413 112.448 174.705C115.398 171.208 118.546 167.514 119.443 163.011C119.751 161.673 119.716 160.278 119.341 158.958C118.937 157.628 117.936 156.564 116.634 156.079C115.336 155.661 112.543 156.523 112.543 156.523L112.542 156.522Z" fill="#263238"/>
<path d="M138.839 214.705L150.53 225.859C151.373 226.67 152.714 226.644 153.525 225.801C153.558 225.767 153.589 225.732 153.619 225.696L168.296 208.374L174.215 199.037L175.579 198.034L184.396 193.121C184.795 192.899 185.298 193.025 185.544 193.41C185.807 193.821 185.677 194.368 185.258 194.617L180.131 197.669L181.056 200.324C182.19 202.84 181.319 205.808 179.005 207.312L171.821 211.983C171.821 211.983 162.044 234.294 155.505 238.176C150.313 241.262 131.182 221.189 131.182 221.189L138.839 214.703V214.705Z" fill="#EF8274"/>
<path d="M86.7815 207.436C86.5145 206.632 87.1815 204.901 86.3775 205.169C86.1185 205.255 84.6315 206.765 84.4515 206.971C83.0545 208.528 80.7365 211.604 78.3325 217.923L75.8945 224.437L88.3275 233L93.0095 225.868L86.7815 207.436Z" fill="#407BFF"/>
<path opacity="0.2" d="M85.4297 215.083L86.7917 213.332L89.4587 215.347L93.0077 225.868L88.3257 233L85.9447 231.363C86.6777 224.643 85.4297 215.084 85.4297 215.084V215.083Z" fill="black"/>
<path d="M134.246 257.268C120.05 260.027 103.771 258.894 97.8066 258.333C96.4556 258.196 98.9516 242.306 84.6186 213.514C83.1576 210.795 83.7706 207.427 86.0956 205.397C95.8496 197.326 113.571 197.635 121.7 198.288C124.576 198.49 127.192 200.023 128.775 202.432C131.604 207.225 133.511 212.506 134.396 218.001C135.353 223.228 135.9 228.522 136.033 233.834C136.411 246.404 134.887 257.142 134.246 257.268Z" fill="#407BFF"/>
<path opacity="0.2" d="M136.031 233.834C131.452 232.964 125.018 216.078 125.018 216.078L134.394 218.001C135.351 223.228 135.898 228.522 136.031 233.834Z" fill="black"/>
<path d="M123.918 198.77C127.455 199.846 135.24 203.349 147.444 214.866L136.09 230.002C132.378 226.022 127.579 221.576 125.018 216.08C122.697 211.209 121.523 205.872 121.584 200.476C121.598 199.477 122.418 198.678 123.417 198.692C123.587 198.694 123.755 198.721 123.918 198.77Z" fill="#407BFF"/>
<path d="M92.0472 168.818L91.9452 166.223C88.2432 163.261 82.2922 163.661 79.0202 167.093C76.8742 169.343 75.9522 172.487 75.4462 175.555C74.9402 178.623 74.7722 181.769 73.8102 184.725C72.8472 187.682 70.9072 190.526 67.9922 191.607C65.8212 192.412 63.3392 192.165 61.2392 193.141C58.0612 194.618 56.7072 199.057 58.5202 202.056C60.2192 204.867 64.3302 205.802 67.1322 204.158C66.2222 205.046 66.3682 206.897 67.4102 207.79C68.6292 208.834 70.4392 208.817 71.9962 208.427C75.6292 207.516 78.7602 204.797 80.1702 201.327C80.6222 202.572 82.0782 203.237 83.3982 203.126C84.7182 203.015 85.9062 202.284 86.9312 201.446C91.4252 197.772 93.6082 191.856 94.0052 186.065C94.4032 180.274 93.2222 174.504 92.0482 168.819L92.0472 168.818Z" fill="#263238"/>
</svg>
