<svg xmlns="http://www.w3.org/2000/svg" version="1.0" width="300.000000pt" height="185.000000pt" viewBox="0 0 300.000000 185.000000" preserveAspectRatio="xMidYMid meet">
<metadata fill="#ffffff">
Created by potrace 1.10, written by Peter Selinger 2001-2011
</metadata>
<g transform="translate(0.000000,185.000000) scale(0.100000,-0.100000)" fill="#ffffff" stroke="none">
<path d="M1207 1593 c-13 -12 -7 -33 8 -33 8 0 15 9 15 20 0 20 -11 26 -23 13z" fill="#ffffff"/>
<path d="M675 1579 c-3 -4 -1 -10 4 -13 4 -3 8 -35 7 -71 -1 -39 3 -64 9 -62 6 2 11 14 13 28 2 16 14 29 35 39 33 16 48 53 29 72 -13 13 -91 18 -97 7z m75 -24 c10 -12 10 -18 0 -30 -21 -25 -40 -18 -40 15 0 33 19 40 40 15z" fill="#ffffff"/>
<path d="M798 1528 c7 -7 12 -31 12 -55 0 -24 5 -43 10 -43 6 0 10 11 10 25 0 15 11 36 27 51 14 13 23 27 20 31 -4 3 -16 -2 -27 -12 -18 -16 -20 -16 -20 -2 0 11 -8 17 -22 17 -17 0 -19 -3 -10 -12z" fill="#ffffff"/>
<path d="M908 1523 c-33 -39 -32 -65 3 -84 21 -11 69 -2 69 13 0 6 -7 7 -16 4 -20 -8 -54 2 -54 15 0 5 9 9 19 9 35 0 51 12 51 36 0 20 -5 24 -28 24 -16 0 -36 -8 -44 -17z m42 -23 c-19 -12 -40 -13 -40 0 0 5 8 13 18 19 22 13 44 -5 22 -19z" fill="#ffffff"/>
<path d="M998 1528 c7 -7 12 -31 12 -55 0 -24 5 -43 10 -43 6 0 10 10 10 23 0 25 26 67 41 67 5 0 9 -20 9 -45 0 -52 15 -60 24 -13 13 64 46 78 46 19 0 -22 5 -43 10 -46 6 -4 10 13 10 45 0 58 -18 74 -50 45 -12 -11 -20 -13 -20 -6 0 21 -30 24 -50 6 -18 -16 -20 -17 -20 -2 0 11 -8 17 -22 17 -17 0 -19 -3 -10 -12z" fill="#ffffff"/>
<path d="M1198 1484 c5 -69 23 -67 29 4 3 45 2 52 -14 52 -16 0 -18 -7 -15 -56z" fill="#ffffff"/>
<path d="M1268 1523 c-33 -39 -32 -65 3 -84 21 -11 69 -2 69 13 0 6 -7 7 -16 4 -20 -8 -54 2 -54 15 0 5 11 9 24 9 30 0 57 25 50 45 -8 21 -58 19 -76 -2z m41 -19 c-13 -16 -39 -19 -39 -4 0 12 32 30 43 23 4 -3 3 -11 -4 -19z" fill="#ffffff"/>
<path d="M1364 1524 c3 -9 6 -33 6 -55 0 -47 17 -52 22 -6 2 22 10 35 26 42 12 5 22 15 22 22 0 17 -10 16 -32 -4 -17 -15 -18 -15 -18 0 0 10 -7 17 -16 17 -11 0 -14 -5 -10 -16z" fill="#ffffff"/>
<path d="M1018 1403 c-10 -3 -21 -17 -25 -31 -3 -15 -11 -30 -17 -34 -8 -5 -7 -8 2 -8 8 0 12 -20 12 -66 0 -41 4 -63 10 -59 6 3 10 31 10 62 0 46 3 56 20 60 11 3 17 9 15 14 -3 4 -12 6 -20 2 -23 -8 -18 24 6 40 22 16 15 26 -13 20z" fill="#ffffff"/>
<path d="M1358 1388 c20 -20 13 -36 -19 -43 -39 -9 -70 -65 -49 -90 18 -22 46 -19 64 7 l16 22 0 -22 c0 -12 5 -22 10 -22 6 0 10 33 10 80 0 76 -1 80 -22 80 -17 0 -19 -3 -10 -12z m5 -64 c9 -9 -13 -52 -30 -58 -36 -14 -45 25 -11 48 24 17 32 19 41 10z" fill="#ffffff"/>
<path d="M2086 1379 c-79 -27 -138 -69 -192 -137 -54 -67 -94 -147 -120 -237 -13 -43 -24 -65 -34 -65 -22 0 -174 26 -258 44 -115 25 -114 20 6 -39 160 -79 200 -119 248 -249 26 -70 27 -67 32 134 l2 75 162 0 c128 0 176 4 223 18 154 47 259 126 333 254 23 39 42 73 42 75 0 2 -39 -15 -87 -39 -57 -27 -107 -44 -143 -48 l-55 -5 60 15 c74 19 137 56 170 99 14 18 25 35 25 38 0 10 -125 67 -170 77 -73 17 -178 13 -244 -10z m297 -34 c37 -15 70 -32 73 -37 11 -17 -59 -78 -113 -98 -31 -12 -78 -20 -112 -20 -72 0 -91 -22 -34 -41 52 -17 151 -6 217 24 31 14 56 24 56 21 0 -15 -66 -97 -107 -134 -108 -95 -225 -130 -435 -130 -82 0 -148 4 -148 8 0 22 45 143 73 197 34 66 133 172 184 199 102 52 231 57 346 11z m-773 -410 c30 -8 75 -15 99 -15 l44 0 -7 -46 c-3 -26 -6 -63 -6 -83 l0 -36 -29 50 c-30 51 -71 89 -129 119 -17 9 -32 19 -32 21 0 6 -3 7 60 -10z" fill="#ffffff"/>
<path d="M2264 1335 c-8 -21 2 -45 19 -45 8 0 20 7 27 15 10 12 10 18 0 30 -7 8 -19 15 -27 15 -7 0 -16 -7 -19 -15z" fill="#ffffff"/>
<path d="M626 1368 c-20 -28 -6 -53 39 -68 47 -16 39 -35 -14 -34 -48 1 -52 -19 -4 -24 37 -4 79 27 70 52 -4 9 -23 24 -43 32 -19 8 -34 20 -31 27 5 17 45 21 63 7 11 -10 14 -9 14 9 0 18 -6 21 -39 21 -29 0 -44 -6 -55 -22z" fill="#ffffff"/>
<path d="M1846 1375 c-16 -17 -22 -35 -29 -93 -5 -42 10 -37 45 14 40 57 27 122 -16 79z m34 -7 c0 -7 -12 -31 -26 -53 -24 -38 -25 -39 -19 -10 10 46 45 95 45 63z" fill="#ffffff"/>
<path d="M768 1339 c-32 -18 -41 -48 -23 -75 15 -24 38 -30 69 -18 26 10 18 21 -13 16 -39 -5 -49 15 -11 23 35 8 55 36 38 53 -15 15 -37 15 -60 1z m40 -21 c-6 -18 -48 -30 -48 -14 0 15 14 24 38 25 8 1 12 -4 10 -11z" fill="#ffffff"/>
<path d="M882 1334 c-29 -20 -42 -54 -30 -76 11 -22 41 -23 58 -3 11 13 14 13 26 -2 12 -16 13 -11 14 40 0 53 -2 57 -23 57 -12 0 -33 -7 -45 -16z m48 -13 c0 -38 -40 -70 -60 -46 -9 11 -7 18 9 34 22 22 51 28 51 12z" fill="#ffffff"/>
<path d="M1066 1325 c-29 -44 -15 -85 29 -85 48 0 76 78 36 100 -31 16 -47 12 -65 -15z m54 -10 c19 -23 8 -50 -20 -50 -16 0 -26 6 -28 18 -4 18 14 47 28 47 4 0 13 -7 20 -15z" fill="#ffffff"/>
<path d="M1186 1328 c-21 -29 -21 -74 0 -82 44 -17 84 10 84 57 0 46 -58 63 -84 25z m57 -19 c14 -22 2 -49 -22 -49 -26 0 -34 15 -27 46 7 28 32 29 49 3z" fill="#ffffff"/>
<path d="M1428 1339 c-27 -15 -21 -39 12 -52 17 -6 30 -15 30 -19 0 -4 -13 -8 -30 -8 -16 0 -30 -4 -30 -10 0 -15 53 -12 75 4 25 18 13 42 -25 49 -19 4 -29 11 -24 18 3 6 19 9 35 5 22 -4 27 -2 22 9 -6 17 -40 19 -65 4z" fill="#ffffff"/>
<path d="M1706 1238 c-18 -28 -60 -177 -52 -185 17 -17 104 117 113 174 5 30 3 33 -20 33 -16 0 -32 -9 -41 -22z m54 7 c0 -12 -40 -84 -50 -90 -14 -9 -2 42 16 73 13 20 34 30 34 17z" fill="#ffffff"/>
<path d="M1064 1199 c-10 -17 13 -36 27 -22 12 12 4 33 -11 33 -5 0 -12 -5 -16 -11z" fill="#ffffff"/>
<path d="M828 1125 l4 -75 43 0 c24 0 47 5 50 10 4 6 -8 10 -29 10 -32 0 -36 3 -36 25 0 21 5 25 29 25 17 0 33 5 36 10 4 6 -8 10 -29 10 -29 0 -36 4 -36 20 0 16 7 20 35 20 19 0 35 5 35 10 0 6 -24 10 -52 10 l-53 0 3 -75z" fill="#ffffff"/>
<path d="M960 1125 l23 -25 -22 -24 c-13 -14 -18 -26 -12 -30 5 -4 17 3 25 15 l15 22 20 -24 c25 -31 38 -19 15 16 -16 25 -16 27 3 47 28 27 45 15 41 -30 -2 -21 2 -38 7 -40 6 -1 11 20 13 48 l3 50 -35 0 c-23 0 -39 -6 -46 -17 -10 -17 -10 -17 -20 0 -6 9 -21 17 -32 17 -21 0 -21 0 2 -25z" fill="#ffffff"/>
<path d="M1114 1134 c3 -9 6 -33 6 -55 0 -21 5 -39 10 -39 6 0 10 10 10 23 0 25 26 67 41 67 5 0 9 -20 9 -45 0 -52 15 -60 24 -13 13 66 44 77 48 16 3 -49 19 -57 24 -13 8 66 -23 99 -57 59 -11 -14 -13 -14 -21 0 -12 21 -27 20 -51 -1 -19 -17 -20 -17 -14 0 5 13 1 17 -14 17 -15 0 -19 -5 -15 -16z" fill="#ffffff"/>
<path d="M728 925 c2 -41 8 -75 13 -75 5 0 9 11 9 25 0 19 8 28 34 39 67 28 55 86 -18 86 l-41 0 3 -75z m56 59 c23 -9 20 -41 -5 -54 -26 -14 -28 -12 -22 28 6 35 5 34 27 26z" fill="#ffffff"/>
<path d="M1220 971 c-5 -11 -7 -26 -4 -34 3 -8 6 -27 7 -42 3 -34 31 -55 49 -37 9 9 8 12 -5 12 -13 0 -17 9 -17 34 0 26 5 35 23 41 l22 8 -22 4 c-13 2 -23 11 -23 19 0 20 -18 17 -30 -5z" fill="#ffffff"/>
<path d="M844 944 c3 -9 6 -33 6 -55 0 -48 17 -51 26 -4 4 21 13 37 25 40 10 4 19 13 19 21 0 19 -19 18 -26 -1 -4 -8 -10 -15 -15 -15 -4 0 -6 7 -3 15 4 11 0 15 -16 15 -16 0 -20 -4 -16 -16z" fill="#ffffff"/>
<path d="M940 945 c8 -10 10 -29 6 -55 -5 -32 -3 -40 9 -40 12 0 15 13 15 55 0 49 -2 55 -21 55 -18 0 -19 -2 -9 -15z" fill="#ffffff"/>
<path d="M980 953 c0 -5 4 -13 9 -18 5 -6 14 -27 21 -47 6 -21 16 -38 21 -38 8 0 59 91 59 105 0 3 -5 5 -11 5 -6 0 -18 -19 -27 -42 l-17 -42 -11 39 c-6 23 -18 41 -27 43 -10 2 -17 0 -17 -5z" fill="#ffffff"/>
<path d="M1116 939 c-33 -26 -36 -74 -5 -84 13 -4 27 -1 38 10 17 14 19 14 24 0 12 -30 22 -14 24 40 1 54 1 55 -27 55 -15 0 -39 -9 -54 -21z m54 -17 c0 -23 -35 -56 -49 -47 -17 10 -13 43 7 54 26 16 42 13 42 -7z" fill="#ffffff"/>
<path d="M1315 935 c-14 -13 -25 -31 -25 -39 0 -24 46 -49 75 -42 35 9 31 27 -4 20 -42 -9 -47 12 -6 26 42 14 51 26 35 45 -18 22 -48 18 -75 -10z m55 -4 c0 -11 -39 -25 -47 -18 -3 3 -2 10 2 16 8 13 45 15 45 2z" fill="#ffffff"/>
<path d="M784 809 c-3 -6 -2 -15 2 -19 12 -12 38 5 30 19 -9 14 -23 14 -32 0z" fill="#ffffff"/>
<path d="M1347 790 c5 -26 3 -30 -16 -30 -31 0 -63 -36 -59 -68 4 -32 37 -42 61 -18 20 20 27 20 27 1 0 -8 4 -15 9 -15 5 0 9 36 10 80 1 74 0 80 -19 80 -16 0 -19 -5 -13 -30z m3 -63 c0 -19 -37 -50 -49 -42 -25 15 -2 55 31 55 10 0 18 -6 18 -13z" fill="#ffffff"/>
<path d="M678 798 c7 -7 12 -39 12 -75 l0 -63 40 0 c22 0 40 5 40 10 0 6 -14 10 -31 10 l-32 0 6 65 6 65 -26 0 c-21 0 -24 -3 -15 -12z" fill="#ffffff"/>
<path d="M1090 775 c0 -8 -5 -15 -11 -15 -8 0 -8 -4 -1 -13 6 -6 12 -28 14 -47 2 -27 8 -36 26 -38 12 -2 22 1 22 7 0 6 -7 11 -15 11 -11 0 -15 11 -15 36 0 28 3 35 15 31 8 -4 17 -2 20 3 4 6 -4 10 -15 10 -16 0 -20 5 -16 15 3 9 0 15 -9 15 -8 0 -15 -7 -15 -15z" fill="#ffffff"/>
<path d="M778 748 c7 -7 12 -29 12 -50 0 -21 5 -38 10 -38 6 0 10 23 10 50 0 45 -2 50 -22 50 -17 0 -19 -3 -10 -12z" fill="#ffffff"/>
<path d="M838 710 c2 -27 8 -50 13 -50 5 0 9 7 9 15 0 25 23 65 37 65 9 0 13 -13 13 -40 0 -46 15 -53 25 -13 16 63 43 69 47 11 2 -24 7 -43 12 -43 11 0 18 52 11 83 -7 27 -42 30 -61 5 -13 -17 -13 -17 -14 0 0 22 -28 22 -52 0 -17 -15 -18 -15 -18 0 0 10 -6 17 -12 17 -9 0 -12 -15 -10 -50z" fill="#ffffff"/>
<path d="M1028 748 c5 -7 8 -30 6 -50 -2 -28 1 -38 11 -38 11 0 15 13 15 50 0 44 -2 50 -21 50 -16 0 -19 -3 -11 -12z" fill="#ffffff"/>
<path d="M1177 742 c-20 -22 -22 -53 -5 -70 14 -14 57 -15 78 -2 11 7 6 10 -22 10 -20 0 -40 5 -43 10 -3 6 3 10 13 10 27 0 67 34 58 48 -11 18 -61 14 -79 -6z m53 -6 c0 -13 -39 -30 -48 -21 -8 7 20 35 34 35 8 0 14 -6 14 -14z" fill="#ffffff"/>
<path d="M1777 605 c-30 -42 -82 -50 -186 -30 -119 23 -174 17 -230 -23 -52 -38 -59 -38 -114 -10 -55 28 -122 28 -175 0 -65 -34 -142 -93 -142 -109 0 -11 6 -10 28 7 94 72 134 94 187 98 42 3 63 0 95 -17 55 -29 72 -27 131 14 57 39 99 44 200 25 30 -6 67 -13 82 -15 57 -11 157 37 157 75 0 17 -14 11 -33 -15z" fill="#ffffff"/>
<path d="M1776 548 c-39 -29 -107 -34 -215 -14 -105 20 -136 15 -201 -33 -24 -17 -49 -31 -56 -31 -6 0 -36 11 -66 25 -63 29 -99 31 -153 6 -45 -20 -147 -110 -127 -111 8 0 37 20 66 44 85 73 131 82 208 41 61 -33 87 -32 133 5 63 50 95 55 213 32 66 -13 114 -17 136 -12 44 10 96 41 96 57 0 16 1 16 -34 -9z" fill="#ffffff"/>
<path d="M1379 457 c-30 -18 -64 -39 -75 -47 -20 -12 -26 -10 -65 23 -54 46 -90 48 -147 8 -43 -32 -57 -49 -48 -58 3 -4 19 5 34 19 62 58 97 61 151 13 21 -19 46 -35 55 -35 9 0 45 20 82 45 36 25 76 45 90 45 13 0 24 5 24 10 0 20 -48 9 -101 -23z" fill="#ffffff"/>
</g>
</svg>