<svg width="500" height="500" viewBox="0 0 500 500" fill="none" xmlns="http://www.w3.org/2000/svg">
<path d="M500 382.4H0V382.65H500V382.4Z" fill="#EBEBEB"/>
<path d="M449.899 398.49H416.779V398.74H449.899V398.49Z" fill="#EBEBEB"/>
<path d="M331.219 401.211H322.529V401.461H331.219V401.211Z" fill="#EBEBEB"/>
<path d="M415.78 389.211H396.59V389.461H415.78V389.211Z" fill="#EBEBEB"/>
<path d="M95.6509 390.891H52.4609V391.141H95.6509V390.891Z" fill="#EBEBEB"/>
<path d="M110.891 390.891H104.561V391.141H110.891V390.891Z" fill="#EBEBEB"/>
<path d="M225.151 395.109H131.471V395.359H225.151V395.109Z" fill="#EBEBEB"/>
<path d="M237.001 337.8H43.9109C42.3983 337.797 40.9485 337.195 39.8798 336.124C38.8112 335.053 38.2109 333.603 38.2109 332.09V60.66C38.2241 59.156 38.8301 57.718 39.8974 56.6582C40.9646 55.5985 42.4069 55.0026 43.9109 55H237.001C238.515 55 239.968 55.6016 241.039 56.6724C242.109 57.7433 242.711 59.1956 242.711 60.71V332.09C242.711 333.604 242.109 335.057 241.039 336.128C239.968 337.198 238.515 337.8 237.001 337.8ZM43.9109 55.2C42.4646 55.2026 41.0784 55.7791 40.0566 56.8027C39.0348 57.8264 38.4609 59.2136 38.4609 60.66V332.09C38.4609 333.536 39.0348 334.924 40.0566 335.947C41.0784 336.971 42.4646 337.547 43.9109 337.55H237.001C238.448 337.547 239.835 336.971 240.859 335.948C241.882 334.924 242.458 333.537 242.461 332.09V60.66C242.458 59.2127 241.882 57.8255 240.859 56.8021C239.835 55.7787 238.448 55.2026 237.001 55.2H43.9109Z" fill="#EBEBEB"/>
<path d="M453.31 337.8H260.21C258.696 337.797 257.246 337.195 256.175 336.125C255.105 335.054 254.503 333.604 254.5 332.09V60.66C254.516 59.1551 255.124 57.7171 256.193 56.6576C257.262 55.5981 258.705 55.0025 260.21 55H453.31C454.812 55.0052 456.252 55.6022 457.317 56.6617C458.382 57.7212 458.987 59.1578 459 60.66V332.09C459 333.601 458.401 335.05 457.335 336.121C456.268 337.191 454.821 337.795 453.31 337.8ZM260.21 55.2C258.763 55.2026 257.375 55.7787 256.352 56.8021C255.329 57.8255 254.753 59.2127 254.75 60.66V332.09C254.753 333.537 255.329 334.924 256.352 335.948C257.375 336.971 258.763 337.547 260.21 337.55H453.31C454.757 337.547 456.145 336.971 457.168 335.948C458.191 334.924 458.767 333.537 458.77 332.09V60.66C458.767 59.2127 458.191 57.8255 457.168 56.8021C456.145 55.7787 454.757 55.2026 453.31 55.2H260.21Z" fill="#EBEBEB"/>
<path d="M393.079 76.1602H101.289V212.68H393.079V76.1602Z" fill="#E6E6E6"/>
<path d="M397.47 76.1602H103.34V212.68H397.47V76.1602Z" fill="#F0F0F0"/>
<path d="M393.079 212.68H101.289V219.64H393.079V212.68Z" fill="#E6E6E6"/>
<path d="M404.79 212.68H110.66V219.64H404.79V212.68Z" fill="#F0F0F0"/>
<path d="M391.32 206.53V82.3203L109.5 82.3203V206.53H391.32Z" fill="#FAFAFA"/>
<path d="M139.73 206.53L156.86 82.3203H183.59L166.46 206.53H139.73Z" fill="white"/>
<path d="M112.34 200.399C112.224 200.399 112.112 200.353 112.029 200.27C111.947 200.188 111.9 200.076 111.9 199.959V86.3189C111.9 86.2022 111.947 86.0903 112.029 86.0078C112.112 85.9253 112.224 85.8789 112.34 85.8789C112.398 85.8789 112.455 85.8903 112.509 85.9124C112.562 85.9345 112.611 85.9669 112.652 86.0078C112.692 86.0486 112.725 86.0971 112.747 86.1505C112.769 86.2039 112.78 86.2611 112.78 86.3189V199.999C112.773 200.109 112.723 200.213 112.641 200.287C112.559 200.362 112.451 200.402 112.34 200.399Z" fill="#F0F0F0"/>
<path d="M172.199 206.53L189.329 82.3203H199.749L182.619 206.53H172.199Z" fill="white"/>
<path d="M391.32 206.53V82.3203H390.54V206.53H391.32Z" fill="#E6E6E6"/>
<path opacity="0.6" d="M398.92 91.6009H107.14L106.57 84.7109H398.36L398.92 91.6009Z" fill="#EBEBEB"/>
<path opacity="0.6" d="M398.92 102.89H107.14L106.57 96H398.36L398.92 102.89Z" fill="#EBEBEB"/>
<path opacity="0.6" d="M398.92 114.191H107.14L106.57 107.301H398.36L398.92 114.191Z" fill="#EBEBEB"/>
<path opacity="0.6" d="M398.92 125.48H107.14L106.57 118.59H398.36L398.92 125.48Z" fill="#EBEBEB"/>
<path opacity="0.6" d="M398.92 136.781H107.14L106.57 129.891H398.36L398.92 136.781Z" fill="#EBEBEB"/>
<path opacity="0.6" d="M398.92 148.07H107.14L106.57 141.18H398.36L398.92 148.07Z" fill="#EBEBEB"/>
<path d="M439.001 247H394.471V382.4H439.001V247Z" fill="#E6E6E6"/>
<path d="M427.111 382.401H439.001V363.711H414.641L427.111 382.401Z" fill="#FAFAFA"/>
<path d="M317.591 247H273.061V382.4H317.591V247Z" fill="#E6E6E6"/>
<path d="M439.001 247H307.211V375.97H439.001V247Z" fill="#FAFAFA"/>
<path d="M319.101 382.401H307.211V363.711H331.571L319.101 382.401Z" fill="#FAFAFA"/>
<path d="M429.77 295.061H316.43V327.331H429.77V295.061Z" fill="#F0F0F0"/>
<path d="M429.77 334.23H316.43V366.5H429.77V334.23Z" fill="#F0F0F0"/>
<path d="M334.24 292.26H412V293.83C412 295.068 411.508 296.256 410.632 297.132C409.757 298.008 408.569 298.5 407.33 298.5H338.92C337.682 298.5 336.494 298.008 335.618 297.132C334.742 296.256 334.25 295.068 334.25 293.83V292.26H334.24Z" fill="#FAFAFA"/>
<path d="M429.77 255.879H316.43V288.149H429.77V255.879Z" fill="#F0F0F0"/>
<path d="M334.24 253.09H412V254.66C412 255.898 411.508 257.086 410.632 257.962C409.757 258.838 408.569 259.33 407.33 259.33H338.92C337.682 259.33 336.494 258.838 335.618 257.962C334.742 257.086 334.25 255.898 334.25 254.66V253.09H334.24Z" fill="#FAFAFA"/>
<path d="M334.24 331.43H412V333C412 334.238 411.508 335.426 410.632 336.302C409.757 337.178 408.569 337.67 407.33 337.67H338.92C337.682 337.67 336.494 337.178 335.618 336.302C334.742 335.426 334.25 334.238 334.25 333V331.43H334.24Z" fill="#FAFAFA"/>
<path d="M53.4195 275.87C55.8995 268.74 75.4195 278.43 83.4195 290.23C88.7095 298.09 91.9395 306.48 93.4195 317.75C93.2395 304.89 93.0395 291.08 92.8395 278.04C91.2295 274.79 87.5595 267.29 84.9295 261.35C76.1295 241.53 55.2095 234.15 47.9295 221.64C38.4595 205.24 38.5195 180.64 46.5795 171.78C53.5795 164.06 76.7795 216.21 79.3995 222.04C88.3995 242.04 90.9995 256.95 92.6795 271.36C92.4895 259.11 92.3095 247.87 92.1595 239.19C91.6695 210.89 91.0495 201.79 90.7695 198.99C89.7695 197.62 88.6595 195.99 87.9895 195.17C82.3795 187.94 69.9195 179.34 63.6995 168.83C54.6095 153.49 56.0795 135.13 62.4495 128.29C69.1695 121.14 80.9995 138 87.2095 154.78C93.4195 171.56 90.7895 187.54 92.5495 201.45C92.9195 204.17 93.2895 214.53 93.6495 228.9C95.5495 213.44 99.3295 203.08 106.33 193.43C114.95 181.56 122.39 167.11 129.49 168.98C136.59 170.85 132.77 189.98 127.15 203.4C122.15 215.35 97.4695 227.28 93.8295 236.89C94.2595 256.37 94.6395 281.04 94.9195 304.01C96.8595 292.141 95.5195 291.15 103.5 273.01C108.24 262.21 127.67 248.9 129.99 256.32C132.31 263.74 128.78 277.76 121.45 287.58C115.53 295.51 102.45 295.5 99.3595 300.41C98.6495 301.56 96.3595 305.96 94.9695 308.48C95.2795 336.531 95.4295 361.28 95.2695 369.72L93.9895 369.81C94.0595 367.63 93.8995 353.361 93.6495 334.48C90.4595 324.48 68.9995 318.58 62.3695 308.13C55.4295 297.17 50.4395 284.41 53.4195 275.87Z" fill="#E6E6E6"/>
<path d="M73.6 382.399H114.8C115.892 382.399 116.949 382.021 117.795 381.33C118.64 380.64 119.221 379.679 119.44 378.609L122.36 364.189H66L69 378.609C69.2174 379.672 69.7926 380.628 70.6298 381.318C71.4669 382.008 72.5153 382.389 73.6 382.399Z" fill="#F0F0F0"/>
<path d="M64.8608 369.78H123.541C124.221 369.779 124.878 369.528 125.385 369.074C125.892 368.621 126.215 367.996 126.291 367.32L127.491 356.66C127.533 356.273 127.493 355.882 127.374 355.512C127.255 355.142 127.06 354.801 126.8 354.512C126.541 354.222 126.224 353.99 125.869 353.832C125.514 353.673 125.13 353.59 124.741 353.59H63.6608C63.2721 353.59 62.8878 353.673 62.5329 353.832C62.1781 353.99 61.8607 354.222 61.6013 354.512C61.3419 354.801 61.1464 355.142 61.0274 355.512C60.9084 355.882 60.8687 356.273 60.9108 356.66L62.1108 367.32C62.187 367.996 62.5094 368.621 63.0166 369.074C63.5238 369.528 64.1803 369.779 64.8608 369.78Z" fill="#F0F0F0"/>
<path d="M177.841 317.621H142.631V382.401H177.841V317.621Z" fill="#E0E0E0"/>
<path d="M267.581 382.4H149.691L137.301 294.5H255.191L267.581 382.4Z" fill="#E6E6E6"/>
<path d="M284.78 382.4H154.37L141.99 294.5H272.39L284.78 382.4Z" fill="#F0F0F0"/>
<path d="M167.129 368.66L156.699 308.24H259.629L270.059 368.66H167.129Z" fill="white"/>
<path d="M211.361 368.66L176.381 308.24H187.351L222.341 368.66H211.361Z" fill="#FAFAFA"/>
<path d="M226.99 368.66L192 308.24H210.72L245.7 368.66H226.99Z" fill="#FAFAFA"/>
<path d="M249.999 427.56C357.082 427.56 443.889 422.492 443.889 416.24C443.889 409.988 357.082 404.92 249.999 404.92C142.917 404.92 56.1094 409.988 56.1094 416.24C56.1094 422.492 142.917 427.56 249.999 427.56Z" fill="#F5F5F5"/>
<path d="M77.2697 221.529C77.1623 221.53 77.0585 221.49 76.979 221.418C76.8994 221.346 76.8497 221.246 76.8397 221.139L74.6197 194.439C74.6141 194.331 74.6505 194.225 74.7213 194.143C74.7921 194.061 74.8918 194.009 74.9997 193.999C75.1122 193.991 75.2235 194.027 75.3095 194.1C75.3956 194.173 75.4495 194.277 75.4597 194.389L77.6797 221.089C77.688 221.202 77.6518 221.313 77.5789 221.399C77.5059 221.485 77.4021 221.539 77.2897 221.549L77.2697 221.529Z" fill="#92E3A9"/>
<path d="M78.5903 237.389C78.4828 237.389 78.3791 237.35 78.2995 237.278C78.22 237.205 78.1703 237.106 78.1603 236.999L77.4903 228.919C77.4848 228.863 77.4906 228.807 77.5074 228.753C77.5242 228.699 77.5515 228.649 77.5879 228.606C77.6243 228.564 77.6689 228.528 77.7191 228.503C77.7694 228.478 77.8242 228.463 77.8803 228.459C77.9363 228.454 77.9928 228.459 78.0465 228.476C78.1002 228.493 78.1499 228.52 78.1928 228.557C78.2357 228.593 78.2709 228.638 78.2962 228.688C78.3215 228.738 78.3365 228.793 78.3403 228.849L79.0103 236.929C79.0186 237.042 78.9824 237.153 78.9094 237.239C78.8365 237.325 78.7326 237.379 78.6203 237.389H78.5903Z" fill="#92E3A9"/>
<path d="M303.56 313.371H97.0799C94.4784 313.32 91.986 312.317 90.0748 310.551C88.1636 308.785 86.9664 306.38 86.7099 303.791L75.0799 164.001C74.9556 162.78 75.0911 161.546 75.4774 160.381C75.8637 159.217 76.4921 158.147 77.3214 157.242C78.1506 156.337 79.1619 155.618 80.2888 155.132C81.4157 154.645 82.6327 154.403 83.8599 154.421H290.33C292.932 154.472 295.426 155.474 297.339 157.24C299.252 159.005 300.451 161.411 300.71 164.001L312.34 303.771C312.466 304.993 312.331 306.228 311.946 307.395C311.56 308.561 310.932 309.633 310.103 310.54C309.274 311.447 308.262 312.168 307.134 312.655C306.007 313.143 304.788 313.387 303.56 313.371Z" fill="white"/>
<path d="M303.559 313.77H97.0794C94.3765 313.726 91.7844 312.688 89.7979 310.855C87.8114 309.022 86.5695 306.521 86.3094 303.83L74.6794 164.05C74.5619 162.775 74.7121 161.489 75.1202 160.275C75.5283 159.061 76.1854 157.946 77.0494 157C77.909 156.049 78.9601 155.289 80.1337 154.772C81.3073 154.255 82.577 153.992 83.8594 154H290.329C293.043 154.043 295.646 155.088 297.636 156.934C299.626 158.78 300.863 161.297 301.109 164L312.729 303.77C312.858 305.045 312.715 306.332 312.311 307.548C311.907 308.764 311.251 309.88 310.385 310.825C309.519 311.769 308.463 312.519 307.287 313.027C306.111 313.535 304.84 313.788 303.559 313.77ZM83.8594 154.84C82.6856 154.821 81.5211 155.051 80.4428 155.515C79.3645 155.98 78.3969 156.667 77.604 157.533C76.8111 158.399 76.2108 159.423 75.8428 160.538C75.4749 161.652 75.3476 162.833 75.4694 164L87.0994 303.76C87.3468 306.255 88.5022 308.571 90.3459 310.269C92.1897 311.967 94.5932 312.928 97.0994 312.97H303.559C304.73 312.988 305.892 312.757 306.968 312.293C308.043 311.83 309.008 311.144 309.8 310.28C310.591 309.417 311.191 308.396 311.56 307.284C311.929 306.173 312.058 304.995 311.939 303.83L300.309 164.05C300.064 161.555 298.909 159.237 297.065 157.539C295.221 155.84 292.816 154.88 290.309 154.84H83.8594Z" fill="#92E3A9"/>
<path d="M290.33 154.44H83.8598C82.6345 154.423 81.4193 154.665 80.294 155.15C79.1686 155.635 78.1583 156.352 77.3294 157.255C76.5005 158.157 75.8716 159.225 75.484 160.387C75.0963 161.55 74.9585 162.781 75.0798 164H300.71C300.446 161.414 299.245 159.013 297.333 157.252C295.42 155.491 292.929 154.49 290.33 154.44Z" fill="#92E3A9"/>
<path d="M88.6904 159.23C88.7188 159.494 88.6908 159.76 88.6084 160.012C88.5259 160.264 88.3909 160.496 88.2121 160.691C88.0334 160.887 87.8151 161.043 87.5717 161.148C87.3284 161.253 87.0654 161.305 86.8004 161.3C86.2386 161.288 85.7006 161.071 85.288 160.69C84.8753 160.309 84.6165 159.789 84.5604 159.23C84.5337 158.967 84.5628 158.701 84.6458 158.45C84.7289 158.199 84.864 157.968 85.0424 157.773C85.2208 157.577 85.4385 157.422 85.6811 157.316C85.9237 157.211 86.1859 157.157 86.4504 157.16C87.0135 157.168 87.5539 157.383 87.9675 157.766C88.3811 158.148 88.6386 158.669 88.6904 159.23Z" fill="white"/>
<path d="M97.0899 159.23C97.1183 159.494 97.0903 159.76 97.0078 160.012C96.9254 160.264 96.7903 160.496 96.6116 160.691C96.4329 160.887 96.2146 161.043 95.9712 161.148C95.7278 161.253 95.4649 161.305 95.1999 161.3C94.6451 161.279 94.1168 161.058 93.7124 160.677C93.3081 160.297 93.055 159.783 92.9999 159.23C92.9731 158.967 93.0022 158.701 93.0853 158.45C93.1683 158.199 93.3035 157.968 93.4819 157.773C93.6603 157.577 93.8779 157.422 94.1205 157.316C94.3631 157.211 94.6253 157.157 94.8899 157.16C95.446 157.177 95.9766 157.397 96.3819 157.779C96.7871 158.16 97.0389 158.676 97.0899 159.23Z" fill="white"/>
<path d="M105.489 159.23C105.518 159.494 105.49 159.76 105.407 160.012C105.325 160.264 105.19 160.496 105.011 160.691C104.832 160.887 104.614 161.043 104.371 161.148C104.127 161.253 103.864 161.305 103.599 161.3C103.037 161.288 102.499 161.071 102.087 160.69C101.674 160.309 101.415 159.789 101.359 159.23C101.332 158.967 101.362 158.701 101.445 158.45C101.528 158.199 101.663 157.968 101.841 157.773C102.02 157.577 102.237 157.422 102.48 157.316C102.723 157.211 102.985 157.157 103.249 157.16C103.812 157.168 104.353 157.383 104.766 157.766C105.18 158.148 105.437 158.669 105.489 159.23Z" fill="white"/>
<path d="M285.639 295.05H111.999C109.931 295.011 107.949 294.215 106.428 292.812C104.908 291.41 103.955 289.498 103.749 287.44L95.5893 190C95.4918 189.028 95.601 188.046 95.91 187.12C96.2189 186.193 96.7204 185.343 97.3817 184.624C98.0429 183.905 98.8487 183.334 99.7463 182.949C100.644 182.564 101.613 182.373 102.589 182.39H276.259C278.328 182.428 280.31 183.224 281.83 184.627C283.351 186.03 284.304 187.941 284.509 190L292.619 287.49C292.709 288.456 292.595 289.43 292.284 290.349C291.972 291.268 291.472 292.112 290.813 292.824C290.155 293.537 289.354 294.104 288.463 294.487C287.572 294.871 286.61 295.062 285.639 295.05Z" fill="#F0F0F0"/>
<path opacity="0.1" d="M231.92 199.409L178.12 264.189C176.429 266.224 175.291 268.659 174.815 271.261C174.34 273.863 174.543 276.544 175.405 279.045C176.268 281.546 177.76 283.782 179.738 285.538C181.717 287.294 184.114 288.51 186.7 289.069L274 307.939C276.73 308.532 279.57 308.369 282.215 307.47C284.861 306.571 287.211 304.969 289.015 302.835C290.819 300.701 292.008 298.117 292.454 295.359C292.901 292.601 292.588 289.773 291.55 287.179L258.08 203.519C257.091 201.037 255.473 198.855 253.385 197.188C251.297 195.52 248.81 194.425 246.171 194.011C243.531 193.596 240.829 193.876 238.33 194.822C235.831 195.769 233.622 197.35 231.92 199.409Z" fill="#263238"/>
<path opacity="0.1" d="M112.16 208.491L93.4201 259.001C92.8589 260.543 92.6972 262.202 92.9502 263.824C93.2032 265.445 93.8625 266.976 94.8669 268.274C95.8712 269.572 97.1878 270.594 98.6938 271.246C100.2 271.898 101.847 272.157 103.48 272.001L158.21 266.631C159.952 266.461 161.615 265.824 163.025 264.787C164.434 263.75 165.538 262.352 166.219 260.74C166.9 259.128 167.133 257.362 166.894 255.629C166.655 253.895 165.952 252.258 164.86 250.891L128.86 205.791C127.785 204.449 126.372 203.416 124.767 202.798C123.162 202.18 121.421 201.999 119.723 202.273C118.025 202.548 116.43 203.268 115.102 204.36C113.773 205.453 112.758 206.878 112.16 208.491Z" fill="#263238"/>
<path d="M250.481 183.101L200.181 256.101C198.61 258.381 197.65 261.026 197.394 263.783C197.137 266.54 197.593 269.317 198.717 271.848C199.841 274.378 201.595 276.578 203.812 278.237C206.03 279.895 208.636 280.957 211.381 281.321L303.841 293.631C306.748 294.018 309.707 293.607 312.399 292.443C315.092 291.278 317.417 289.404 319.126 287.02C320.836 284.636 321.865 281.832 322.103 278.908C322.342 275.984 321.781 273.05 320.481 270.421L278.321 185.081C277.069 182.552 275.179 180.395 272.836 178.823C270.494 177.251 267.781 176.319 264.967 176.119C262.154 175.919 259.336 176.458 256.795 177.682C254.254 178.907 252.077 180.775 250.481 183.101Z" fill="#92E3A9"/>
<path d="M213.57 274.8C211.9 274.573 210.312 273.936 208.948 272.947C207.584 271.958 206.485 270.647 205.75 269.13C204.992 267.696 204.636 266.085 204.719 264.465C204.801 262.846 205.32 261.279 206.22 259.93L256.65 186.71C257.562 185.404 258.823 184.381 260.289 183.758C261.755 183.136 263.367 182.939 264.94 183.19C266.611 183.415 268.199 184.051 269.564 185.041C270.928 186.03 272.027 187.342 272.76 188.86L315 274.41C315.758 275.844 316.114 277.455 316.031 279.075C315.949 280.694 315.43 282.261 314.53 283.61C313.62 284.919 312.36 285.944 310.893 286.569C309.427 287.193 307.814 287.391 306.24 287.14L213.57 274.8Z" fill="white"/>
<path d="M260.65 209.071L266.54 209.851C268.381 210.111 270.063 211.039 271.263 212.459C272.464 213.879 273.1 215.692 273.05 217.551L272.65 225.231C272.64 225.509 272.61 225.787 272.56 226.061L268.37 249.211C268.07 250.806 267.159 252.222 265.831 253.156C264.503 254.089 262.863 254.468 261.26 254.211C259.558 253.969 257.989 253.158 256.807 251.911C255.625 250.664 254.9 249.053 254.75 247.341L253.06 223.421C253.04 223.145 253.04 222.867 253.06 222.591L253.45 214.901C253.492 214.027 253.718 213.172 254.114 212.392C254.509 211.612 255.065 210.924 255.745 210.374C256.424 209.824 257.213 209.423 258.058 209.198C258.903 208.974 259.787 208.93 260.65 209.071ZM260.18 260.631L261.78 260.841C263.428 261.073 264.933 261.904 266.008 263.175C267.083 264.445 267.653 266.067 267.61 267.731C267.575 268.515 267.374 269.284 267.021 269.985C266.668 270.687 266.171 271.306 265.562 271.802C264.953 272.297 264.245 272.659 263.487 272.862C262.728 273.065 261.935 273.106 261.16 272.981L259.56 272.761C257.913 272.53 256.408 271.702 255.333 270.433C254.257 269.164 253.687 267.544 253.73 265.881C253.763 265.096 253.963 264.327 254.316 263.624C254.668 262.922 255.165 262.302 255.775 261.806C256.384 261.31 257.092 260.949 257.851 260.746C258.611 260.544 259.404 260.504 260.18 260.631Z" fill="#92E3A9"/>
<path d="M131.5 194.26L117.69 246.63C117.273 248.221 117.267 249.892 117.673 251.487C118.078 253.081 118.882 254.546 120.008 255.745C121.134 256.944 122.546 257.838 124.112 258.342C125.677 258.847 127.345 258.946 128.96 258.63L182.53 248.18C184.229 247.841 185.807 247.054 187.101 245.9C188.394 244.746 189.355 243.267 189.884 241.617C190.413 239.966 190.492 238.204 190.111 236.514C189.731 234.823 188.905 233.264 187.72 232L148 190.05C146.808 188.784 145.3 187.861 143.631 187.375C141.961 186.89 140.193 186.861 138.509 187.29C136.824 187.72 135.286 188.593 134.053 189.819C132.821 191.045 131.939 192.578 131.5 194.26Z" fill="#92E3A9"/>
<path d="M128.85 254.41C127.866 254.588 126.853 254.515 125.906 254.196C124.958 253.878 124.106 253.326 123.429 252.59C122.731 251.881 122.227 251.005 121.964 250.046C121.701 249.086 121.689 248.075 121.929 247.11L135.77 194.6C136.009 193.682 136.505 192.852 137.2 192.206C137.894 191.56 138.757 191.124 139.689 190.95C140.674 190.774 141.687 190.85 142.634 191.17C143.582 191.489 144.433 192.043 145.109 192.78L184.969 234.78C185.669 235.488 186.175 236.364 186.439 237.323C186.703 238.283 186.717 239.294 186.479 240.26C186.238 241.176 185.741 242.004 185.047 242.648C184.353 243.293 183.491 243.727 182.559 243.9L128.85 254.41Z" fill="white"/>
<path d="M142.29 206.931L145.7 206.261C146.801 206.083 147.929 206.319 148.866 206.922C149.804 207.526 150.486 208.455 150.78 209.531L152 214.101C152.046 214.269 152.083 214.439 152.11 214.611L154.28 229.001C154.449 229.97 154.229 230.966 153.667 231.773C153.105 232.58 152.247 233.133 151.28 233.311C150.265 233.479 149.224 233.295 148.329 232.789C147.434 232.284 146.739 231.487 146.36 230.531L140.82 216.851C140.753 216.691 140.696 216.528 140.65 216.361L139.39 211.781C139.226 211.272 139.173 210.734 139.233 210.202C139.294 209.671 139.467 209.158 139.742 208.699C140.016 208.24 140.386 207.845 140.825 207.54C141.264 207.235 141.764 207.027 142.29 206.931ZM151.94 237.211L152.87 237.031C153.856 236.86 154.87 237.065 155.713 237.606C156.555 238.146 157.164 238.983 157.42 239.951C157.561 240.402 157.605 240.877 157.55 241.346C157.495 241.815 157.342 242.267 157.1 242.673C156.858 243.078 156.534 243.429 156.148 243.7C155.762 243.972 155.323 244.16 154.86 244.251L153.93 244.431C152.945 244.602 151.932 244.398 151.089 243.86C150.247 243.321 149.637 242.487 149.38 241.521C149.239 241.07 149.194 240.594 149.249 240.124C149.304 239.655 149.458 239.202 149.699 238.795C149.941 238.389 150.265 238.038 150.651 237.765C151.037 237.492 151.476 237.303 151.94 237.211Z" fill="#92E3A9"/>
<path d="M388.36 206L380.6 208.52L386.84 215.9C388.611 214.365 390.145 212.576 391.39 210.59C391.712 210.028 391.8 209.362 391.635 208.735C391.471 208.108 391.066 207.571 390.51 207.24L388.36 206Z" fill="#7F3E3B"/>
<path d="M377.031 214.619L381.681 220.269L386.851 215.939L380.601 208.559L377.031 214.619Z" fill="#7F3E3B"/>
<path d="M390.87 145.68C392.76 150.88 394.5 156.08 396.15 161.35C397.8 166.62 399.32 171.91 400.65 177.45L401.12 179.58L401.34 180.69L401.45 181.25V181.39V181.6L401.51 182.02C401.729 183.922 401.634 185.848 401.23 187.72C400.592 190.723 399.627 193.647 398.35 196.44C396.02 201.658 393.151 206.618 389.79 211.24L384.6 208.37C386.44 203.37 388.26 198.26 389.6 193.31C390.262 190.99 390.723 188.618 390.98 186.22C391.063 185.392 391.023 184.556 390.86 183.74L390.43 182.18L389.87 180.33C388.3 175.33 386.51 170.18 384.74 165.06C382.97 159.94 381.2 154.77 379.5 149.64L390.87 145.68Z" fill="#7F3E3B"/>
<path d="M347.681 114.74C347.811 115.37 347.591 115.95 347.191 116.06C346.791 116.17 346.351 115.73 346.191 115.06C346.031 114.39 346.271 113.85 346.681 113.75C347.091 113.65 347.551 114.12 347.681 114.74Z" fill="#263238"/>
<path d="M347.65 115.939C347.312 118.034 346.7 120.075 345.83 122.009C346.322 122.208 346.851 122.295 347.38 122.264C347.91 122.232 348.425 122.084 348.89 121.829L347.65 115.939Z" fill="#630F0F"/>
<path d="M346.001 110.999C345.94 110.999 345.88 110.984 345.826 110.957C345.772 110.929 345.726 110.888 345.691 110.839C345.662 110.799 345.641 110.754 345.63 110.706C345.619 110.658 345.618 110.608 345.627 110.56C345.635 110.512 345.653 110.465 345.679 110.424C345.706 110.383 345.74 110.347 345.781 110.319C346.284 110.008 346.854 109.822 347.444 109.776C348.034 109.731 348.626 109.828 349.171 110.059C349.216 110.077 349.258 110.105 349.293 110.14C349.327 110.175 349.355 110.216 349.374 110.262C349.392 110.307 349.402 110.356 349.401 110.406C349.401 110.455 349.39 110.504 349.371 110.549C349.333 110.641 349.26 110.715 349.169 110.754C349.077 110.794 348.973 110.795 348.881 110.759C348.455 110.571 347.989 110.488 347.525 110.518C347.06 110.547 346.609 110.688 346.211 110.929C346.151 110.976 346.076 111 346.001 110.999Z" fill="#263238"/>
<path d="M369.11 116.719C369.81 123.979 368.78 131.009 370.4 137.319C370.4 137.319 368.6 143.179 357.87 143.179C346.07 143.179 352.46 137.319 352.46 137.319C358.96 135.789 358.97 131.009 358.03 126.519L369.11 116.719Z" fill="#7F3E3B"/>
<path d="M372.691 139.329C373.611 137.479 374.221 134.849 372.321 134.189C370.231 133.459 359.061 133.189 355.011 134.589C353.931 134.875 353.005 135.571 352.432 136.529C351.858 137.488 351.682 138.633 351.941 139.719L372.691 139.329Z" fill="#263238"/>
<path d="M396.8 402.69C397.536 402.501 398.248 402.225 398.92 401.87C398.956 401.853 398.986 401.827 399.008 401.793C399.029 401.759 399.04 401.72 399.04 401.68C399.039 401.639 399.025 401.6 399 401.567C398.975 401.535 398.94 401.511 398.9 401.5C398.55 401.38 395.45 400.35 394.63 401.05C394.541 401.128 394.474 401.229 394.437 401.342C394.4 401.454 394.394 401.575 394.42 401.69C394.436 401.9 394.504 402.101 394.62 402.276C394.735 402.451 394.894 402.594 395.08 402.69C395.637 402.883 396.243 402.883 396.8 402.69ZM398.28 401.69C396.92 402.31 395.82 402.52 395.28 402.24C395.155 402.179 395.048 402.086 394.971 401.97C394.894 401.854 394.849 401.72 394.84 401.58C394.824 401.535 394.823 401.486 394.835 401.44C394.848 401.393 394.874 401.352 394.91 401.32C395.32 401 397 401.35 398.28 401.73V401.69Z" fill="#92E3A9"/>
<path d="M398.88 401.889C398.907 401.882 398.932 401.87 398.955 401.853C398.977 401.836 398.996 401.815 399.01 401.791C399.024 401.767 399.033 401.74 399.036 401.712C399.04 401.684 399.037 401.656 399.03 401.629C399.03 401.529 398.22 399.149 397.03 398.629C396.891 398.556 396.738 398.513 396.581 398.502C396.425 398.492 396.267 398.515 396.12 398.569C395.97 398.604 395.837 398.69 395.744 398.812C395.651 398.935 395.604 399.086 395.61 399.239C395.61 400.239 397.77 401.659 398.75 401.929L398.88 401.889ZM396.38 398.889C396.549 398.85 396.725 398.871 396.88 398.949C397.644 399.57 398.205 400.406 398.49 401.349C397.49 400.899 396.07 399.759 396.05 399.179C396.05 399.129 396.05 399.009 396.29 398.909L396.38 398.889Z" fill="#92E3A9"/>
<path d="M342.181 408.799C342.94 408.778 343.695 408.674 344.431 408.489C344.471 408.478 344.506 408.456 344.534 408.426C344.562 408.396 344.582 408.359 344.591 408.319C344.595 408.278 344.587 408.238 344.57 408.201C344.552 408.164 344.525 408.132 344.491 408.109C344.181 407.919 341.401 406.209 340.441 406.699C340.334 406.753 340.245 406.837 340.183 406.939C340.121 407.042 340.089 407.159 340.091 407.279C340.07 407.48 340.097 407.682 340.17 407.87C340.243 408.058 340.36 408.226 340.511 408.359C341.005 408.685 341.591 408.839 342.181 408.799ZM343.841 408.199C342.381 408.489 341.251 408.439 340.781 408.039C340.676 407.95 340.595 407.835 340.546 407.705C340.497 407.576 340.482 407.436 340.501 407.299C340.501 407.139 340.571 407.089 340.631 407.059C341.121 406.809 342.711 407.539 343.841 408.199Z" fill="#92E3A9"/>
<path d="M344.381 408.488C344.42 408.497 344.461 408.497 344.501 408.488C344.531 408.467 344.554 408.438 344.57 408.405C344.586 408.372 344.593 408.335 344.591 408.298C344.591 408.198 344.371 405.708 343.371 404.888C343.254 404.784 343.115 404.707 342.965 404.662C342.814 404.618 342.656 404.606 342.501 404.628C342.348 404.628 342.2 404.68 342.081 404.777C341.962 404.873 341.881 405.008 341.851 405.158C341.671 406.158 343.391 408.008 344.291 408.498L344.381 408.488ZM342.641 404.998C342.813 404.995 342.981 405.056 343.111 405.168C343.71 405.95 344.058 406.895 344.111 407.878C343.221 407.198 342.111 405.778 342.231 405.208C342.231 405.208 342.231 405.028 342.531 404.998H342.621H342.641Z" fill="#92E3A9"/>
<path d="M353.669 408.178H345.769L345.689 389.898H353.589L353.669 408.178Z" fill="#7F3E3B"/>
<path d="M408.659 401.42L401.059 402.81L395.609 384.82L403.209 383.43L408.659 401.42Z" fill="#7F3E3B"/>
<path d="M399.62 400.789L408.25 398.789C408.4 398.752 408.558 398.769 408.697 398.836C408.836 398.904 408.946 399.018 409.01 399.159L411.87 405.689C411.938 405.852 411.97 406.028 411.964 406.205C411.957 406.382 411.911 406.555 411.83 406.712C411.749 406.87 411.635 407.007 411.494 407.116C411.354 407.224 411.192 407.3 411.02 407.339C408.02 407.999 406.5 408.159 402.7 409.059C400.37 409.609 395.61 410.999 392.38 411.759C389.15 412.519 388.11 409.399 389.38 408.759C395.04 406.049 396.92 403.759 398.47 401.559C398.749 401.173 399.157 400.9 399.62 400.789Z" fill="#263238"/>
<path d="M345.86 407.26H354.48C354.634 407.26 354.784 407.313 354.902 407.412C355.021 407.511 355.102 407.648 355.13 407.8L356.42 414.8C356.451 414.973 356.443 415.15 356.397 415.32C356.352 415.489 356.269 415.647 356.155 415.781C356.041 415.914 355.899 416.021 355.739 416.094C355.579 416.166 355.405 416.203 355.23 416.2C352.12 416.15 347.64 415.97 343.73 415.97C339.16 415.97 337.53 416.22 332.17 416.22C328.93 416.22 328.17 412.94 329.53 412.65C335.75 411.29 338.47 411.15 343.94 407.86C344.513 407.488 345.177 407.28 345.86 407.26Z" fill="#263238"/>
<path d="M388 139.359C395.37 144.549 397.59 157.909 397.59 157.909L380.89 166.369C378.249 161.089 376.204 155.532 374.79 149.799C373 141.899 382.76 135.679 388 139.359Z" fill="#92E3A9"/>
<path opacity="0.2" d="M379.65 147.879L386.23 163.639L380.89 166.369C379.235 163.023 377.792 159.576 376.57 156.049L379.65 147.879Z" fill="black"/>
<path d="M338.891 173.998C338.951 182.808 339.481 193.768 340.791 207.368H383.001C383.511 201.168 380.921 171.938 387.211 142.668C387.322 142.153 387.327 141.62 387.224 141.103C387.122 140.585 386.915 140.094 386.617 139.66C386.318 139.225 385.934 138.857 385.487 138.576C385.041 138.295 384.542 138.109 384.021 138.028C380.708 137.498 377.37 137.141 374.021 136.958C368.042 136.613 362.049 136.613 356.071 136.958C353.658 137.167 351.259 137.501 348.881 137.958C347.112 138.317 345.482 139.169 344.176 140.414C342.87 141.66 341.943 143.249 341.501 144.998C340.187 150.391 339.413 155.902 339.191 161.448C339.001 165.048 338.861 169.218 338.891 173.998Z" fill="#92E3A9"/>
<path opacity="0.2" d="M352.211 157.459C349.421 159.459 344.081 160.459 339.211 160.869C339.291 159.579 339.391 158.359 339.501 157.209C340.811 156.519 342.071 155.889 343.261 155.309L352.211 157.459Z" fill="black"/>
<g opacity="0.2">
<path d="M345.689 389.9L345.739 400.06H353.629L353.589 389.9H345.689Z" fill="black"/>
<path d="M403.209 383.43L395.609 384.83L398.429 394.1L406.029 392.7L403.209 383.43Z" fill="black"/>
</g>
<path d="M368.001 108.22C369.151 115.99 370.221 120.47 367.221 125.37C366.268 126.963 364.898 128.266 363.258 129.137C361.619 130.008 359.772 130.413 357.919 130.31C356.065 130.208 354.275 129.6 352.742 128.553C351.209 127.505 349.991 126.059 349.221 124.37C346.131 117.91 344.761 106.28 351.531 101.37C352.967 100.272 354.666 99.5711 356.459 99.338C358.251 99.1048 360.074 99.3475 361.743 100.042C363.412 100.736 364.869 101.857 365.967 103.293C367.066 104.728 367.767 106.427 368.001 108.22Z" fill="#7F3E3B"/>
<path d="M351.84 113.899C348.91 112.609 349.19 107.999 350.08 106.059C346.69 107.219 341.79 107.889 340.91 104.439C340.03 100.989 343.02 99.8893 341.19 96.9393C339.36 93.9893 345.19 90.7793 347.91 94.9393C350.63 99.0993 357.35 97.2393 361.69 93.2693C364.85 90.3793 369.47 94.1093 367.64 97.8793C367.64 97.8793 377.14 97.2693 375.25 103.719C373.36 110.169 370.69 110.389 371.3 114.979C371.72 118.079 372.08 124.379 368.36 125.269C363.86 126.299 352.64 122.309 351.84 113.899Z" fill="#263238"/>
<path opacity="0.2" d="M351.781 122.308C350.921 122.928 350.031 123.588 349.121 124.308L349.171 124.418C350.06 126.292 351.483 127.861 353.261 128.928C353.831 128.378 354.151 126.528 355.211 126.558C358.381 126.648 364.511 125.318 365.531 121.738L351.781 122.308Z" fill="black"/>
<path d="M354.251 113.789C354.47 115.517 354.207 117.271 353.491 118.859C352.591 120.689 351.171 119.519 350.621 117.269C350.121 115.269 349.991 111.859 351.291 110.859C352.591 109.859 354.001 111.509 354.251 113.789Z" fill="#7F3E3B"/>
<path d="M355.77 207.398C355.77 207.398 362.4 267.718 366.44 290.318C370.87 315.068 393.81 392.748 393.81 392.748L407.95 389.748C407.95 389.748 392.16 317.068 390 292.568C387.69 265.968 383 207.398 383 207.398H355.77Z" fill="#92E3A9"/>
<path opacity="0.3" d="M355.77 207.398C355.77 207.398 362.4 267.718 366.44 290.318C370.87 315.068 393.81 392.748 393.81 392.748L407.95 389.748C407.95 389.748 392.16 317.068 390 292.568C387.8 267.288 387.8 267.338 383 207.398H355.77Z" fill="black"/>
<path d="M390.65 388C390.59 388 393.05 393.16 393.05 393.16L409 389.75L407.87 384.93L390.65 388Z" fill="#263238"/>
<path opacity="0.2" d="M360.601 228.9C370.881 230.9 368.291 269.55 366.281 289.42C363.841 275.42 360.511 248.35 358.281 229.18C358.999 228.822 359.819 228.724 360.601 228.9Z" fill="black"/>
<path d="M340.79 207.399C340.79 207.399 337.43 266.399 337.36 290.489C337.28 315.489 342.86 397.489 342.86 397.489H356.24C356.24 397.489 359.84 316.979 361.38 292.389C363.06 265.579 368.55 207.389 368.55 207.389L340.79 207.399Z" fill="#92E3A9"/>
<path opacity="0.3" d="M340.79 207.399C340.79 207.399 337.43 266.399 337.36 290.489C337.28 315.489 342.86 397.489 342.86 397.489H356.24C356.24 397.489 359.84 316.979 361.38 292.389C363.06 265.579 368.55 207.389 368.55 207.389L340.79 207.399Z" fill="black"/>
<path d="M340.5 392.18C340.44 392.18 341.04 397.73 341.04 397.73H357.3L357.93 392.73L340.5 392.18Z" fill="#263238"/>
<path d="M357.52 151.739C355.92 151.889 354.57 151.979 353.1 152.019C351.63 152.059 350.23 152.089 348.8 152.079C345.92 152.079 343.04 151.899 340.14 151.579C337.197 151.275 334.277 150.774 331.4 150.079C328.354 149.363 325.396 148.313 322.58 146.949L322.25 146.779C321.633 146.477 321.081 146.057 320.627 145.541C320.172 145.025 319.825 144.425 319.604 143.774C319.382 143.124 319.292 142.436 319.338 141.75C319.384 141.064 319.565 140.394 319.87 139.779C320.01 139.495 320.174 139.224 320.36 138.969C321.554 137.387 322.912 135.936 324.41 134.639C325.76 133.439 327.11 132.369 328.47 131.349C331.19 129.299 333.97 127.489 336.76 125.729C339.55 123.969 342.4 122.339 345.27 120.729C348.14 119.119 351.03 117.669 354.03 116.279C354.69 116.015 355.421 115.994 356.095 116.219C356.769 116.444 357.34 116.901 357.709 117.508C358.077 118.116 358.218 118.834 358.107 119.535C357.995 120.237 357.639 120.876 357.1 121.339C354.59 123.269 352 125.179 349.49 127.139C346.98 129.099 344.49 131.029 342 133.009C339.51 134.989 337.14 137.009 334.87 139.009C333.74 140.009 332.65 141.009 331.68 142.099C330.808 142.985 330.018 143.949 329.32 144.979L327.11 136.979C329.289 137.787 331.539 138.387 333.83 138.769C336.284 139.186 338.757 139.473 341.24 139.629C343.77 139.789 346.33 139.879 348.9 139.879C350.19 139.879 351.48 139.879 352.76 139.879C354.04 139.879 355.39 139.779 356.51 139.719H356.64C358.153 139.717 359.61 140.287 360.721 141.314C361.831 142.341 362.512 143.749 362.629 145.257C362.745 146.766 362.288 148.262 361.348 149.447C360.408 150.632 359.055 151.418 357.56 151.649L357.52 151.739Z" fill="#7F3E3B"/>
<path d="M363.12 114.72L358.12 115.83C358.12 115.83 351.43 115 349.9 120.04L353.9 123.42L360.02 124.42C360.989 124.571 361.98 124.409 362.85 123.96L364.41 123.15C364.765 122.967 365.068 122.699 365.292 122.368C365.515 122.038 365.653 121.657 365.69 121.26L366.06 117.26C366.097 116.881 366.042 116.499 365.901 116.146C365.76 115.792 365.535 115.478 365.247 115.229C364.959 114.981 364.616 114.805 364.246 114.716C363.876 114.627 363.49 114.629 363.12 114.72Z" fill="#7F3E3B"/>
<path d="M353.359 157.579C344.949 159.919 335.359 156.999 335.359 156.999L338.889 138.169C338.889 138.169 347.239 137.429 352.459 137.319C365.889 136.999 368.519 153.379 353.359 157.579Z" fill="#92E3A9"/>
</svg>
