<svg id="visual" viewBox="0 0 900 200" width="900" height="200" xmlns="http://www.w3.org/2000/svg" xmlns:xlink="http://www.w3.org/1999/xlink" version="1.1"><path d="M0 102L18.8 101.7C37.7 101.3 75.3 100.7 112.8 98.2C150.3 95.7 187.7 91.3 225.2 86.3C262.7 81.3 300.3 75.7 337.8 79.8C375.3 84 412.7 98 450.2 111.3C487.7 124.7 525.3 137.3 562.8 129.7C600.3 122 637.7 94 675.2 86.5C712.7 79 750.3 92 787.8 98C825.3 104 862.7 103 881.3 102.5L900 102L900 201L881.3 201C862.7 201 825.3 201 787.8 201C750.3 201 712.7 201 675.2 201C637.7 201 600.3 201 562.8 201C525.3 201 487.7 201 450.2 201C412.7 201 375.3 201 337.8 201C300.3 201 262.7 201 225.2 201C187.7 201 150.3 201 112.8 201C75.3 201 37.7 201 18.8 201L0 201Z" fill="#F0F4F8" stroke-linecap="round" stroke-linejoin="miter"></path></svg>